<svg data-name="Group 47570" xmlns="http://www.w3.org/2000/svg" width="188" height="158.955" viewBox="0 0 188 158.955">
    <path data-name="Path 4864" d="M77.7 83.659H58.77v18.925H77.7z" style="fill:#ed1e79"/>
    <path data-name="Path 4865" d="M77.7 109.977H58.77V128.9H77.7z" style="fill:#ed1e79"/>
    <path data-name="Path 4866" d="M87.763 48.765h-5.917v24.248h5.917z" style="fill:#ed1e79"/>
    <path data-name="Path 4867" d="M110.839 54.68h-5.917v18.333h5.917z" style="fill:#ed1e79"/>
    <path data-name="Path 4868" d="M64.687 51.723H58.77v21.292h5.917z" style="fill:#ed1e79"/>
    <path data-name="Path 4869" d="M129.677 142.186H51.471a4.589 4.589 0 0 1-4.586-4.584V34.226a4.589 4.589 0 0 1 4.586-4.583h78.206a4.588 4.588 0 0 1 4.585 4.583V137.6a4.589 4.589 0 0 1-4.585 4.586zM51.471 31.221a3.009 3.009 0 0 0-3.007 3V137.6a3.008 3.008 0 0 0 3.007 3h78.206a3.008 3.008 0 0 0 3.006-3V34.226a3.008 3.008 0 0 0-3.006-3z"/>
    <path data-name="Path 4870" d="M139.426 132.858h-4.818a.789.789 0 0 1 0-1.579h4.818a2.716 2.716 0 0 0 2.713-2.711V24.6a2.716 2.716 0 0 0-2.713-2.711H60.633a2.715 2.715 0 0 0-2.712 2.711v5.8a.79.79 0 0 1-1.579 0v-5.8a4.3 4.3 0 0 1 4.292-4.289h78.794a4.3 4.3 0 0 1 4.292 4.289v103.968a4.3 4.3 0 0 1-4.292 4.29z"/>
    <path data-name="Path 4871" d="M125.568 135.706H55.579a3.351 3.351 0 0 1-3.348-3.346V39.469a3.351 3.351 0 0 1 3.348-3.346h69.989a3.352 3.352 0 0 1 3.349 3.346v53.653a.79.79 0 0 1-1.579 0V39.469a1.77 1.77 0 0 0-1.77-1.768H55.579a1.77 1.77 0 0 0-1.769 1.768v92.891a1.769 1.769 0 0 0 1.769 1.767h69.989a1.771 1.771 0 0 0 1.77-1.767v-12.033a.79.79 0 0 1 1.579 0v12.033a3.352 3.352 0 0 1-3.349 3.346z"/>
    <path data-name="Path 4872" d="M64.687 73.8H58.77a.789.789 0 0 1-.79-.789V51.722a.789.789 0 0 1 .79-.789h5.917a.789.789 0 0 1 .79.789v21.291a.789.789 0 0 1-.79.787zm-5.127-1.578h4.34V52.511h-4.341z"/>
    <path data-name="Path 4873" d="M76.226 73.8h-5.917a.789.789 0 0 1-.79-.789V62.073a.789.789 0 0 1 .79-.789h5.917a.789.789 0 0 1 .79.789v10.94a.789.789 0 0 1-.79.787zM71.1 72.224h4.338v-9.362H71.1z"/>
    <path data-name="Path 4874" d="M87.763 73.8h-5.917a.789.789 0 0 1-.79-.789V48.766a.789.789 0 0 1 .79-.789h5.917a.789.789 0 0 1 .79.789v24.247a.789.789 0 0 1-.79.787zm-5.127-1.578h4.338V49.555h-4.338z"/>
    <path data-name="Path 4875" d="M99.3 73.8h-5.915a.789.789 0 0 1-.79-.789V60.594a.789.789 0 0 1 .79-.789H99.3a.789.789 0 0 1 .789.789v12.419a.789.789 0 0 1-.789.787zm-5.127-1.578h4.338V61.383h-4.337z"/>
    <path data-name="Path 4876" d="M110.839 73.8h-5.917a.789.789 0 0 1-.789-.789V54.68a.789.789 0 0 1 .789-.789h5.917a.789.789 0 0 1 .79.789v18.333a.789.789 0 0 1-.79.787zm-5.127-1.578h4.338V55.469h-4.338z"/>
    <path data-name="Path 4877" d="M122.378 73.8h-5.917a.789.789 0 0 1-.789-.789V48.766a.789.789 0 0 1 .789-.789h5.917a.789.789 0 0 1 .79.789v24.247a.789.789 0 0 1-.79.787zm-5.127-1.578h4.338V49.555h-4.338z"/>
    <path data-name="Path 4878" d="M77.7 103.374H58.771a.789.789 0 0 1-.79-.789V83.66a.789.789 0 0 1 .79-.789H77.7a.789.789 0 0 1 .79.789v18.925a.789.789 0 0 1-.79.789zM59.56 101.8h17.355V84.449H59.56z"/>
    <path data-name="Path 4879" d="M77.7 129.692H58.771a.789.789 0 0 1-.79-.789v-18.925a.789.789 0 0 1 .79-.789H77.7a.789.789 0 0 1 .79.789V128.9a.789.789 0 0 1-.79.792zm-18.14-1.578h17.355v-17.347H59.56z"/>
    <path data-name="Path 4880" d="M101.875 88.657h-16.4a.789.789 0 1 1 0-1.578h16.4a.789.789 0 0 1 0 1.578z"/>
    <path data-name="Path 4881" d="M111.836 94h-26.36a.789.789 0 1 1 0-1.578h26.36a.789.789 0 0 1 0 1.578z"/>
    <path data-name="Path 4882" d="M111.836 99.22h-26.36a.789.789 0 1 1 0-1.578h26.36a.789.789 0 0 1 0 1.578z"/>
    <path data-name="Path 4883" d="M101.875 115h-16.4a.789.789 0 1 1 0-1.578h16.4a.789.789 0 1 1 0 1.578z"/>
    <path data-name="Path 4884" d="M111.836 120.224h-26.36a.789.789 0 1 1 0-1.578h26.36a.789.789 0 1 1 0 1.578z"/>
    <path data-name="Path 4885" d="M111.836 125.445h-26.36a.789.789 0 1 1 0-1.578h26.36a.789.789 0 0 1 0 1.578z"/>
    <path data-name="Path 4886" d="M15.506 41.426a.849.849 0 0 1-.85-.85V39a.85.85 0 0 1 1.7 0v1.578a.849.849 0 0 1-.85.848z"/>
    <path data-name="Path 4887" d="M15.506 92.42a.85.85 0 0 1-.85-.85v-3.035a.85.85 0 0 1 1.7 0v3.035a.85.85 0 0 1-.85.85zm0-8.5a.849.849 0 0 1-.85-.85v-3.034a.85.85 0 0 1 1.7 0v3.035a.849.849 0 0 1-.85.85zm0-8.5a.849.849 0 0 1-.85-.85v-3.033a.85.85 0 0 1 1.7 0v3.035a.849.849 0 0 1-.85.85zm0-8.5a.849.849 0 0 1-.85-.85v-3.032a.85.85 0 0 1 1.7 0v3.035a.849.849 0 0 1-.85.85zm0-8.5a.849.849 0 0 1-.85-.85v-3.031a.85.85 0 0 1 1.7 0v3.035a.849.849 0 0 1-.85.85zm0-8.5a.85.85 0 0 1-.85-.85v-3.03a.85.85 0 0 1 1.7 0v3.035a.85.85 0 0 1-.85.85z"/>
    <path data-name="Path 4888" d="M16.964 99.462h-1.458a.849.849 0 0 1-.85-.85v-1.457a.85.85 0 0 1 1.7 0v.607h.607a.85.85 0 1 1 0 1.7z"/>
    <path data-name="Path 4889" d="M33.241 99.462h-2.915a.85.85 0 1 1 0-1.7h2.915a.85.85 0 1 1 0 1.7zm-8.139 0h-2.915a.85.85 0 1 1 0-1.7H25.1a.85.85 0 1 1 0 1.7z"/>
    <path data-name="Path 4890" d="M39.923 99.462h-1.58a.85.85 0 1 1 0-1.7h1.579a.85.85 0 1 1 0 1.7z"/>
    <path data-name="Path 4891" d="M4.209 113.546a.849.849 0 0 1-.85-.85v-5.463a.85.85 0 0 1 1.7 0v5.467a.849.849 0 0 1-.85.846z"/>
    <path data-name="Path 4892" d="M7 110.875H1.537a.85.85 0 1 1 0-1.7H7a.85.85 0 1 1 0 1.7z"/>
    <path data-name="Path 4893" d="M84.747 154.463a.849.849 0 0 1-.85-.85v-5.463a.85.85 0 0 1 1.7 0v5.463a.849.849 0 0 1-.85.85z"/>
    <path data-name="Path 4894" d="M87.541 151.792h-5.467a.85.85 0 1 1 0-1.7h5.466a.85.85 0 1 1 0 1.7z"/>
    <path data-name="Path 4895" d="M181.562 102.5a.85.85 0 0 1-.851-.85v-5.466a.851.851 0 0 1 1.7 0v5.464a.849.849 0 0 1-.849.852z"/>
    <path data-name="Path 4896" d="M184.356 99.827h-5.467a.85.85 0 1 1 0-1.7h5.467a.85.85 0 1 1 0 1.7z"/>
    <path data-name="Path 4897" d="M10.03 157.8a1.215 1.215 0 0 1 2.428-.066 1.186 1.186 0 0 1-1.184 1.223h-.03a1.19 1.19 0 0 1-1.214-1.157zm-3.6-.664a1.214 1.214 0 1 1 .843.338 1.137 1.137 0 0 1-.842-.337zm7.865-.193a1.217 1.217 0 1 1 .832.329 1.215 1.215 0 0 1-.827-.331zm-9.928-4.553a1.214 1.214 0 1 1 1.233 1.223h-.016a1.236 1.236 0 0 1-1.214-1.226zm11.04-.29a1.215 1.215 0 0 1 2.427-.1 1.188 1.188 0 0 1-1.169 1.246h-.046a1.2 1.2 0 0 1-1.209-1.146zm-9.086-2.834a1.214 1.214 0 1 1 .853.351 1.214 1.214 0 0 1-.85-.353zm7.691-.16a1.216 1.216 0 1 1 .821.319 1.215 1.215 0 0 1-.818-.325zm-4.123-2.345a1.215 1.215 0 1 1 1.215 1.214 1.214 1.214 0 0 1-1.212-1.216z"/>
    <path data-name="Path 4898" d="M32.138 52.774a1.215 1.215 0 0 1 2.428-.067 1.187 1.187 0 0 1-1.184 1.224h-.03a1.191 1.191 0 0 1-1.214-1.157zm-3.6-.671a1.215 1.215 0 1 1 .843.34 1.215 1.215 0 0 1-.841-.343zm7.867-.186a1.214 1.214 0 1 1 1.717-.05 1.256 1.256 0 0 1-.886.38 1.215 1.215 0 0 1-.832-.332zm-9.929-4.553a1.215 1.215 0 1 1 1.229 1.225h-.014a1.237 1.237 0 0 1-1.215-1.226zm11.041-.29a1.215 1.215 0 0 1 2.427-.095 1.188 1.188 0 0 1-1.169 1.246h-.046a1.2 1.2 0 0 1-1.212-1.152zm-9.086-2.834a1.216 1.216 0 1 1 .854.351 1.215 1.215 0 0 1-.854-.351zm7.692-.16a1.216 1.216 0 1 1 .821.319 1.213 1.213 0 0 1-.821-.319zm-4.11-2.344a1.207 1.207 0 0 1 1.207-1.213 1.222 1.222 0 0 1 1.224 1.213 1.248 1.248 0 0 1-1.2 1.214s-1.228-.543-1.228-1.214z"/>
    <path data-name="Path 4899" d="M155.071 75.479a1.215 1.215 0 0 1 2.428-.067 1.187 1.187 0 0 1-1.184 1.224h-.031a1.191 1.191 0 0 1-1.213-1.157zm-3.6-.672a1.214 1.214 0 1 1 .843.34 1.214 1.214 0 0 1-.841-.339zm7.866-.186a1.214 1.214 0 1 1 1.717-.05 1.259 1.259 0 0 1-.886.38 1.216 1.216 0 0 1-.832-.331zm-9.928-4.553a1.215 1.215 0 1 1 1.23 1.225h-.016a1.236 1.236 0 0 1-1.214-1.226zm11.04-.273a1.214 1.214 0 1 1 1.258 1.168h-.046a1.213 1.213 0 0 1-1.212-1.169zm-9.086-2.852a1.214 1.214 0 1 1 .852.351 1.212 1.212 0 0 1-.852-.351zm7.69-.16a1.216 1.216 0 1 1 .821.319 1.215 1.215 0 0 1-.821-.319zm-4.123-2.344a1.214 1.214 0 1 1 1.215 1.214 1.214 1.214 0 0 1-1.213-1.214z"/>
    <path data-name="Path 4900" d="M184.356 15.2a.85.85 0 0 1-.851-.85V8.887a.85.85 0 0 1 1.7 0v5.463a.849.849 0 0 1-.849.85z"/>
    <path data-name="Path 4901" d="M187.15 12.529h-5.467a.85.85 0 1 1 0-1.7h5.467a.85.85 0 1 1 0 1.7z"/>
    <path data-name="Path 4902" d="M29.311 12.733a4.978 4.978 0 0 1-.647-1.236 5.172 5.172 0 0 1-.066-1.454 4.5 4.5 0 0 0-.373-2.483 4.532 4.532 0 0 0-1.983-1.576 5.059 5.059 0 0 1-1.207-.769 5.082 5.082 0 0 1-.769-1.207 4.532 4.532 0 0 0-1.576-1.984 4.511 4.511 0 0 0-2.481-.373 5.172 5.172 0 0 1-1.454-.066 4.969 4.969 0 0 1-1.238-.646A4.563 4.563 0 0 0 15.125 0a4.563 4.563 0 0 0-2.392.939 4.977 4.977 0 0 1-1.236.646 5.222 5.222 0 0 1-1.454.066 4.509 4.509 0 0 0-2.483.373 4.531 4.531 0 0 0-1.576 1.984 5.06 5.06 0 0 1-.769 1.207 5.081 5.081 0 0 1-1.207.769 4.532 4.532 0 0 0-1.984 1.577 4.511 4.511 0 0 0-.373 2.481 5.171 5.171 0 0 1-.066 1.458 4.967 4.967 0 0 1-.647 1.237A4.564 4.564 0 0 0 0 15.125a4.563 4.563 0 0 0 .939 2.392 4.978 4.978 0 0 1 .647 1.236 5.169 5.169 0 0 1 .066 1.454 4.5 4.5 0 0 0 .373 2.483 4.531 4.531 0 0 0 1.983 1.576 5.059 5.059 0 0 1 1.207.769 5.08 5.08 0 0 1 .769 1.207 8.719 8.719 0 0 0 .668 1.129l-3.86 10.605a.688.688 0 0 0 .866.886l3.649-1.232 2 3.29a.688.688 0 0 0 .587.33h.068a.687.687 0 0 0 .578-.449l3.875-10.645a2.6 2.6 0 0 0 1.413 0L19.707 40.8a.687.687 0 0 0 .578.449h.068a.687.687 0 0 0 .587-.33l2-3.29 3.649 1.232a.687.687 0 0 0 .866-.886L23.6 27.37a8.762 8.762 0 0 0 .668-1.128 5.058 5.058 0 0 1 .769-1.207 5.08 5.08 0 0 1 1.207-.769 4.532 4.532 0 0 0 1.984-1.576 4.512 4.512 0 0 0 .373-2.481 5.17 5.17 0 0 1 .066-1.454 4.969 4.969 0 0 1 .647-1.237 4.564 4.564 0 0 0 .938-2.392 4.563 4.563 0 0 0-.939-2.392zm-19.57 26.25L8.2 36.445a.687.687 0 0 0-.808-.293l-2.819.948 3.194-8.775a4.952 4.952 0 0 0 2.276.271 5.2 5.2 0 0 1 1.454.066 4.97 4.97 0 0 1 1.237.647c.139.089.284.18.431.268zm13.121-2.832a.687.687 0 0 0-.808.293l-1.545 2.538-3.423-9.4c.147-.089.292-.18.431-.269a4.978 4.978 0 0 1 1.236-.647 5.2 5.2 0 0 1 1.454-.066 4.941 4.941 0 0 0 2.277-.272l3.193 8.772zm5.289-19.373a5.991 5.991 0 0 0-.814 1.62 6.219 6.219 0 0 0-.113 1.864A3.462 3.462 0 0 1 27.035 22a3.48 3.48 0 0 1-1.429 1.046 6.1 6.1 0 0 0-1.544 1.015 6.082 6.082 0 0 0-1.016 1.544A3.48 3.48 0 0 1 22 27.035a3.474 3.474 0 0 1-1.738.189 6.246 6.246 0 0 0-1.865.113 6 6 0 0 0-1.619.814 3.491 3.491 0 0 1-1.654.724 3.491 3.491 0 0 1-1.654-.724 5.991 5.991 0 0 0-1.62-.814 4.546 4.546 0 0 0-1.18-.131c-.23 0-.458.009-.685.018a3.471 3.471 0 0 1-1.738-.189A3.48 3.48 0 0 1 7.2 25.606a6.1 6.1 0 0 0-1.015-1.544 6.082 6.082 0 0 0-1.544-1.016A3.48 3.48 0 0 1 3.215 22a3.463 3.463 0 0 1-.189-1.738 6.223 6.223 0 0 0-.113-1.862 6 6 0 0 0-.813-1.621 3.491 3.491 0 0 1-.724-1.654 3.491 3.491 0 0 1 .724-1.654 6 6 0 0 0 .814-1.62 6.221 6.221 0 0 0 .113-1.864 3.462 3.462 0 0 1 .189-1.738A3.48 3.48 0 0 1 4.644 7.2a6.1 6.1 0 0 0 1.544-1.012A6.08 6.08 0 0 0 7.2 4.644a3.48 3.48 0 0 1 1.049-1.429 3.466 3.466 0 0 1 1.738-.189 6.247 6.247 0 0 0 1.864-.113 6 6 0 0 0 1.62-.813 3.491 3.491 0 0 1 1.654-.724 3.491 3.491 0 0 1 1.654.724 6 6 0 0 0 1.62.814 6.246 6.246 0 0 0 1.864.113A3.463 3.463 0 0 1 22 3.215a3.48 3.48 0 0 1 1.046 1.429 6.1 6.1 0 0 0 1.015 1.544A6.08 6.08 0 0 0 25.606 7.2a3.48 3.48 0 0 1 1.429 1.046 3.462 3.462 0 0 1 .189 1.738 6.223 6.223 0 0 0 .113 1.864 6 6 0 0 0 .814 1.619 3.491 3.491 0 0 1 .724 1.654 3.491 3.491 0 0 1-.724 1.654z"/>
    <path data-name="Path 4903" d="M15.125 4.125A11.013 11.013 0 1 0 22.9 7.351a11 11 0 0 0-7.774-3.226zm0 20.625a9.636 9.636 0 1 1 6.8-2.822 9.625 9.625 0 0 1-6.8 2.822z"/>
    <path data-name="Path 4904" d="m15.741 7.946 1.85 3.749 4.138.6a.687.687 0 0 1 .381 1.172l-2.994 2.918.707 4.122a.687.687 0 0 1-1 .724l-3.7-1.946-3.7 1.946a.687.687 0 0 1-1-.724l.707-4.122-2.991-2.916a.688.688 0 0 1 .382-1.169l4.138-.6 1.85-3.749a.715.715 0 0 1 1.233 0z" style="fill:#662d91;fill-rule:evenodd"/>
</svg>
