<svg data-name="Group 47571" xmlns="http://www.w3.org/2000/svg" width="180" height="152.407" viewBox="0 0 180 152.407">
    <path data-name="Path 4905" d="M74 88H39v3h35z" style="fill:#ed1e79"/>
    <path data-name="Path 4906" d="M101.346 17.136v17.02a1.541 1.541 0 0 0 1.516 1.565H115.4a1.541 1.541 0 0 0 1.516-1.565v-17.02a1.541 1.541 0 0 0-1.516-1.565h-12.538a1.541 1.541 0 0 0-1.516 1.565z" style="fill:#6c3099"/>
    <path data-name="Path 4907" d="M67.457 17.4v15.57h33.889V17.4z" style="fill:#ed1e79"/>
    <path data-name="Path 4908" d="M102.042 17.881V33.06a.872.872 0 0 1-.872.873H69.89a9.393 9.393 0 0 1-3.879-.833l-12.969-5.84a1.961 1.961 0 0 1 0-3.576l12.969-5.84a9.391 9.391 0 0 1 3.879-.833h31.278a.872.872 0 0 1 .873.873zM100.3 32.187V18.754H69.89a7.643 7.643 0 0 0-3.162.68l-12.969 5.84a.216.216 0 0 0 0 .394l12.969 5.839a7.662 7.662 0 0 0 3.162.679h30.41z"/>
    <path data-name="Path 4909" d="M117.9 17.072v16.8a2.421 2.421 0 0 1-2.417 2.418h-12.768a2.421 2.421 0 0 1-2.415-2.42v-16.8a2.421 2.421 0 0 1 2.418-2.418h12.773a2.421 2.421 0 0 1 2.409 2.42zm-15.862 16.8a.673.673 0 0 0 .672.672h12.773a.673.673 0 0 0 .672-.672v-16.8a.673.673 0 0 0-.672-.672h-12.768a.673.673 0 0 0-.672.672v16.8z"/>
    <path data-name="Path 4910" d="M68.686 18.52v13.716a.873.873 0 0 1-1.746 0V18.52a.873.873 0 0 1 1.746 0z"/>
    <path data-name="Path 4911" d="M60.332 22.759v5.362a.873.873 0 0 1-1.746 0v-5.362a.873.873 0 0 1 1.746 0z"/>
    <path data-name="Path 4912" d="M126.991 21.016v8.91a3.356 3.356 0 0 1-3.353 3.353h-6.606a.872.872 0 0 1-.872-.873V18.537a.872.872 0 0 1 .872-.873h6.606a3.357 3.357 0 0 1 3.353 3.353zM117.9 31.534h5.733a1.609 1.609 0 0 0 1.608-1.607v-8.91a1.609 1.609 0 0 0-1.608-1.607H117.9v12.122z"/>
    <path data-name="Path 4913" d="M101.978 25.752a.872.872 0 0 1-.873.873h-9.85a.873.873 0 0 1 0-1.746h9.85a.872.872 0 0 1 .873.873z"/>
    <path data-name="Path 4914" d="M79.285 25.752a.872.872 0 0 1-.873.873h-9.6a.873.873 0 0 1 0-1.746h9.6a.872.872 0 0 1 .873.873z"/>
    <path data-name="Path 4915" d="M109.958 32.485v2.369a.873.873 0 0 1-1.746 0v-2.369a.873.873 0 0 1 1.746 0z"/>
    <path data-name="Path 4916" d="M109.958 15.652v11.222a.873.873 0 0 1-1.746 0V15.652a.873.873 0 0 1 1.746 0z"/>
    <path data-name="Path 4917" d="M155.7 79.6H31.612a.87.87 0 0 1 0-1.74H155.7a.87.87 0 0 1 0 1.74z" style="fill:#1e243a"/>
    <path data-name="Path 4918" d="M60.372 78.729a.868.868 0 0 1-.868-.87v-9.446a.868.868 0 1 1 1.736 0v9.446a.868.868 0 0 1-.868.87z" style="fill:#1e243a"/>
    <path data-name="Path 4919" d="M39.726 75.666A2.576 2.576 0 1 1 42.3 73.09a2.576 2.576 0 0 1-2.574 2.576zm0-3.413a.836.836 0 1 0 .834.836.836.836 0 0 0-.834-.835z" style="fill:#1e243a"/>
    <path data-name="Path 4920" d="M46.1 75.666a2.576 2.576 0 1 1 2.57-2.576 2.576 2.576 0 0 1-2.57 2.576zm0-3.413a.836.836 0 1 0 .834.836.836.836 0 0 0-.834-.835z" style="fill:#1e243a"/>
    <path data-name="Path 4921" d="M52.473 75.666a2.576 2.576 0 1 1 2.57-2.576 2.576 2.576 0 0 1-2.57 2.576zm0-3.413a.836.836 0 1 0 .834.836.836.836 0 0 0-.834-.835z" style="fill:#1e243a"/>
    <path data-name="Path 4922" d="M96.446 72.39H65.207a.87.87 0 0 1 0-1.74h31.24a.87.87 0 0 1 0 1.74z" style="fill:#1e243a"/>
    <path data-name="Path 4923" d="M126.57 75.87H65.207a.87.87 0 0 1 0-1.74h61.363a.87.87 0 0 1 0 1.74z" style="fill:#1e243a"/>
    <path data-name="Path 4924" d="M.93 92.587a.931.931 0 0 1-.93-.932v-1.616a.93.93 0 1 1 1.86 0v1.616a.931.931 0 0 1-.93.932z" style="fill:#1e243a"/>
    <path data-name="Path 4925" d="M.93 85a.931.931 0 0 1-.93-.936v-1.616a.93.93 0 1 1 1.86 0v1.616A.931.931 0 0 1 .93 85z" style="fill:#1e243a"/>
    <path data-name="Path 4926" d="M.93 77.405a.931.931 0 0 1-.93-.932v-1.616a.93.93 0 1 1 1.86 0v1.616a.931.931 0 0 1-.93.932z" style="fill:#1e243a"/>
    <path data-name="Path 4927" d="M.93 69.814a.931.931 0 0 1-.93-.932v-1.615a.93.93 0 1 1 1.86 0v1.616a.931.931 0 0 1-.93.931z" style="fill:#1e243a"/>
    <path data-name="Path 4928" d="M.93 62.223a.931.931 0 0 1-.93-.932v-1.615a.93.93 0 1 1 1.86 0v1.616a.931.931 0 0 1-.93.931z" style="fill:#1e243a"/>
    <path data-name="Path 4929" d="M.93 54.633A.931.931 0 0 1 0 53.7v-1.615a.93.93 0 1 1 1.86 0V53.7a.931.931 0 0 1-.93.933z" style="fill:#1e243a"/>
    <path data-name="Path 4930" d="M.93 47.042A.931.931 0 0 1 0 46.11v-1.616a.93.93 0 1 1 1.86 0v1.616a.931.931 0 0 1-.93.932z" style="fill:#1e243a"/>
    <path data-name="Path 4931" d="M.93 39.451a.931.931 0 0 1-.93-.932V36.9a.93.93 0 1 1 1.86 0v1.616a.931.931 0 0 1-.93.935z" style="fill:#1e243a"/>
    <path data-name="Path 4932" d="M.93 31.86a.931.931 0 0 1-.93-.932v-1.615a.93.93 0 1 1 1.86 0v1.616a.931.931 0 0 1-.93.931z" style="fill:#1e243a"/>
    <path data-name="Path 4933" d="M.93 127.262a.931.931 0 0 1-.93-.932v-3.107a.93.93 0 1 1 1.86 0v3.107a.931.931 0 0 1-.93.932zm0-8.7a.931.931 0 0 1-.93-.932v-3.107a.93.93 0 1 1 1.86 0v3.107a.931.931 0 0 1-.93.932zm0-8.7a.931.931 0 0 1-.93-.932v-3.107a.93.93 0 1 1 1.86 0v3.107a.931.931 0 0 1-.93.932zm0-8.7a.931.931 0 0 1-.93-.932v-3.107a.93.93 0 1 1 1.86 0v3.107a.931.931 0 0 1-.93.932z" style="fill:#1e243a"/>
    <path data-name="Path 4934" d="M2.479 134.285H.93a.932.932 0 0 1-.93-.933V131.8a.93.93 0 1 1 1.86 0v.621h.62a.933.933 0 0 1 0 1.865z" style="fill:#1e243a"/>
    <path data-name="Path 4935" d="M12.025 134.285H8.554a.933.933 0 0 1 0-1.865h3.471a.933.933 0 0 1 0 1.865z" style="fill:#1e243a"/>
    <path data-name="Path 4936" d="M19.711 134.285H18.1a.933.933 0 0 1 0-1.865h1.612a.933.933 0 0 1 0 1.865z" style="fill:#1e243a"/>
    <path data-name="Path 4937" d="M179.07 81.277a.931.931 0 0 1-.929-.932v-1.616a.93.93 0 1 1 1.859 0v1.616a.931.931 0 0 1-.93.932z" style="fill:#1e243a"/>
    <path data-name="Path 4938" d="M179.07 74a.931.931 0 0 1-.929-.932v-1.611a.93.93 0 1 1 1.859 0v1.616a.931.931 0 0 1-.93.927z" style="fill:#1e243a"/>
    <path data-name="Path 4939" d="M179.07 66.733a.931.931 0 0 1-.929-.932v-1.615a.93.93 0 1 1 1.859 0V65.8a.931.931 0 0 1-.93.933z" style="fill:#1e243a"/>
    <path data-name="Path 4940" d="M179.07 59.462a.931.931 0 0 1-.929-.932v-1.616a.93.93 0 1 1 1.859 0v1.616a.931.931 0 0 1-.93.932z" style="fill:#1e243a"/>
    <path data-name="Path 4941" d="M179.07 52.19a.931.931 0 0 1-.929-.932v-1.616a.93.93 0 1 1 1.859 0v1.616a.931.931 0 0 1-.93.932z" style="fill:#1e243a"/>
    <path data-name="Path 4942" d="M179.07 44.918a.931.931 0 0 1-.929-.932v-1.615a.93.93 0 1 1 1.859 0v1.616a.931.931 0 0 1-.93.931z" style="fill:#1e243a"/>
    <path data-name="Path 4943" d="M179.07 37.647a.931.931 0 0 1-.929-.932V35.1a.93.93 0 1 1 1.859 0v1.616a.931.931 0 0 1-.93.931z" style="fill:#1e243a"/>
    <path data-name="Path 4944" d="M179.07 30.375a.931.931 0 0 1-.929-.932v-1.616a.93.93 0 1 1 1.859 0v1.616a.931.931 0 0 1-.93.932z" style="fill:#1e243a"/>
    <path data-name="Path 4945" d="M179.07 126.641a.932.932 0 0 1-.93-.932v-3.232a.93.93 0 1 1 1.86 0v3.232a.932.932 0 0 1-.93.932zm0-9.073a.932.932 0 0 1-.93-.932V113.4a.93.93 0 1 1 1.86 0v3.231a.932.932 0 0 1-.93.937zm0-9.073a.931.931 0 0 1-.93-.932v-3.231a.93.93 0 1 1 1.86 0v3.231a.931.931 0 0 1-.93.937zm0-9.073a.932.932 0 0 1-.93-.932v-3.231a.93.93 0 1 1 1.86 0v3.231a.932.932 0 0 1-.93.932zm0-9.073a.932.932 0 0 1-.93-.932v-3.231a.93.93 0 1 1 1.86 0v3.231a.932.932 0 0 1-.93.933z" style="fill:#1e243a"/>
    <path data-name="Path 4946" d="M179.07 134.285h-1.549a.933.933 0 0 1 0-1.865h.619v-.62a.93.93 0 1 1 1.86 0v1.553a.932.932 0 0 1-.93.932z" style="fill:#1e243a"/>
    <path data-name="Path 4947" d="M171.694 134.285h-3.223a.933.933 0 0 1 0-1.865h3.223a.933.933 0 0 1 0 1.865z" style="fill:#1e243a"/>
    <path data-name="Path 4948" d="M170.528 26.594H167.3a.932.932 0 0 1 0-1.864h3.223a.932.932 0 0 1 0 1.864z" style="fill:#1e243a"/>
    <path data-name="Path 4949" d="M161.369 26.594h-3.223a.932.932 0 0 1 0-1.864h3.223a.932.932 0 0 1 0 1.864z" style="fill:#1e243a"/>
    <path data-name="Path 4950" d="M152.21 26.594h-3.223a.932.932 0 0 1 0-1.864h3.223a.932.932 0 0 1 0 1.864z" style="fill:#1e243a"/>
    <path data-name="Path 4951" d="M143.051 26.594h-3.223a.932.932 0 0 1 0-1.864h3.223a.932.932 0 0 1 0 1.864z" style="fill:#1e243a"/>
    <path data-name="Path 4952" d="M133.892 26.594h-3.223a.932.932 0 0 1 0-1.864h3.223a.932.932 0 0 1 0 1.864z" style="fill:#1e243a"/>
    <path data-name="Path 4953" d="M46.88 26.594h-3.223a.932.932 0 0 1 0-1.864h3.223a.932.932 0 0 1 0 1.864z" style="fill:#1e243a"/>
    <path data-name="Path 4954" d="M37.722 26.594H34.5a.932.932 0 0 1 0-1.864h3.223a.932.932 0 0 1 0 1.864z" style="fill:#1e243a"/>
    <path data-name="Path 4955" d="M28.563 26.594h-3.224a.932.932 0 0 1 0-1.864h3.223a.932.932 0 0 1 0 1.864z" style="fill:#1e243a"/>
    <path data-name="Path 4956" d="M19.4 26.594h-3.22a.932.932 0 0 1 0-1.864h3.22a.932.932 0 0 1 0 1.864z" style="fill:#1e243a"/>
    <path data-name="Path 4957" d="M10.244 26.594H7.021a.932.932 0 0 1 0-1.864h3.223a.932.932 0 0 1 0 1.864z" style="fill:#1e243a"/>
    <path data-name="Path 4958" d="M162.52 134.285h-1.487a.933.933 0 0 1 0-1.865h1.487a.933.933 0 0 1 0 1.865z" style="fill:#1e243a"/>
    <path data-name="Path 4959" d="M70.1 44.239a.931.931 0 0 1-.93-.932v-5.592a.93.93 0 1 1 1.859 0v5.593a.931.931 0 0 1-.929.931z" style="fill:#1e243a"/>
    <path data-name="Path 4960" d="M73.017 41.567h-5.579a.932.932 0 0 1 0-1.864h5.578a.932.932 0 0 1 0 1.864z" style="fill:#1e243a"/>
    <path data-name="Path 4961" d="M87.015 12.543a1.24 1.24 0 0 1 2.478-.068 1.213 1.213 0 0 1-1.209 1.253h-.031a1.217 1.217 0 0 1-1.238-1.185zm-3.672-.687a1.238 1.238 0 1 1 .86.348 1.245 1.245 0 0 1-.86-.348zm8.028-.19a1.239 1.239 0 1 1 .849.337 1.247 1.247 0 0 1-.849-.337zM81.238 7a1.24 1.24 0 1 1 1.254 1.254h-.015A1.265 1.265 0 0 1 81.238 7zm11.267-.3a1.239 1.239 0 0 1 2.477-.1 1.214 1.214 0 0 1-1.192 1.286h-.047a1.226 1.226 0 0 1-1.237-1.179zm-9.273-2.9a1.245 1.245 0 0 1-.011-1.757A1.272 1.272 0 0 1 85 2.038a1.362 1.362 0 0 1 .04 1.759c0 .246-.591.369-.911.369a1.294 1.294 0 0 1-.9-.359zm7.848-.164a1.238 1.238 0 1 1 .838.327 1.246 1.246 0 0 1-.837-.32zm-4.207-2.4a1.24 1.24 0 1 1 1.24 1.243 1.241 1.241 0 0 1-1.239-1.236z" style="fill:#1e243a"/>
    <path data-name="Path 4962" d="M106.354 59.771a1.24 1.24 0 0 1 2.478-.068 1.213 1.213 0 0 1-1.209 1.253h-.03a1.218 1.218 0 0 1-1.239-1.185zm-3.672-.687a1.241 1.241 0 1 1 1.753-.032 1.238 1.238 0 0 1-1.753.032zm8.028-.19a1.239 1.239 0 1 1 .849.337 1.246 1.246 0 0 1-.849-.337zm-10.133-4.661a1.24 1.24 0 1 1 1.255 1.254h-.015a1.266 1.266 0 0 1-1.24-1.255zm11.268-.3a1.239 1.239 0 0 1 2.476-.1 1.213 1.213 0 0 1-1.192 1.274h-.047a1.225 1.225 0 0 1-1.237-1.179zm-9.273-2.9a1.237 1.237 0 1 1 .87.359 1.226 1.226 0 0 1-.87-.359zm7.848-.164a1.238 1.238 0 1 1 .838.327 1.245 1.245 0 0 1-.838-.325zm-4.194-2.4a1.235 1.235 0 0 1 1.233-1.243 1.25 1.25 0 0 1 1.249 1.243 1.276 1.276 0 0 1-1.23 1.243s-1.253-.556-1.253-1.243z" style="fill:#1e243a"/>
    <path data-name="Path 4963" d="M18.586 77.42a1.24 1.24 0 0 1 2.478-.068 1.213 1.213 0 0 1-1.209 1.248h-.031a1.218 1.218 0 0 1-1.238-1.185zm-3.672-.687a1.239 1.239 0 1 1 .86.348 1.246 1.246 0 0 1-.86-.348zm8.028-.19a1.239 1.239 0 1 1 .849.337 1.245 1.245 0 0 1-.849-.337zm-10.133-4.661a1.24 1.24 0 1 1 1.255 1.254h-.015a1.266 1.266 0 0 1-1.24-1.255zm11.267-.3a1.239 1.239 0 0 1 2.477-.1 1.214 1.214 0 0 1-1.193 1.275h-.046a1.225 1.225 0 0 1-1.238-1.179zm-9.273-2.9a1.237 1.237 0 1 1 .87.359 1.228 1.228 0 0 1-.873-.357zm7.848-.164a1.238 1.238 0 1 1 .838.327 1.246 1.246 0 0 1-.837-.325zm-4.207-2.4a1.24 1.24 0 1 1 1.24 1.243 1.241 1.241 0 0 1-1.24-1.241z" style="fill:#1e243a"/>
    <rect data-name="Rectangle 21" width="128.369" height="84.398" rx="3.25" transform="translate(30.405 67.259)" style="fill:none;stroke:#000;stroke-width:1.5px"/>
    <path data-name="Path 4964" d="M144 114H40v1h104z" style="fill:#6c3099"/>
    <path data-name="Path 4965" d="M144 131H40v1h104z" style="fill:#6c3099"/>
    <path data-name="Path 4966" d="M65.848 108h1.36l-2.5-5.6h-1.28l-2.5 5.6h1.328l.5-1.2h2.6zm-2.68-2.184.888-2.144.888 2.144z"/>
    <path data-name="Path 4967" d="M42.456 108.048c1.432 0 2.088-.7 2.088-1.528 0-2.04-3.448-1.112-3.448-2.648 0-.56.456-1.016 1.48-1.016a2.883 2.883 0 0 1 1.536.464l.2-.472a3.161 3.161 0 0 0-1.736-.5c-1.424 0-2.064.712-2.064 1.536 0 2.072 3.448 1.128 3.448 2.664 0 .552-.456.992-1.5.992a2.75 2.75 0 0 1-1.848-.68l-.232.456a3.037 3.037 0 0 0 2.076.732zM48.97 108h.7l-1.97-2.488 1.8-1.72h-.7l-2.512 2.3v-4.024h-.568V108h.568v-1.2l.992-.912zm1.774-5.128a.408.408 0 0 0 .416-.416.4.4 0 0 0-.416-.392.4.4 0 1 0 0 .808zM50.456 108h.568v-4.208h-.568zm2.148 0h.568v-5.936H52.6zm2.148 0h.568v-5.936h-.568z"/>
    <path data-name="Path 4968" d="M42.456 126.048a3.641 3.641 0 0 1-1.2-.2 2.191 2.191 0 0 1-.88-.528l.232-.456a2.259 2.259 0 0 0 .808.5 3 3 0 0 0 1.04.184 1.925 1.925 0 0 0 1.128-.272.861.861 0 0 0 .376-.72.708.708 0 0 0-.208-.536 1.3 1.3 0 0 0-.5-.3 7.174 7.174 0 0 0-.824-.24 9.415 9.415 0 0 1-1.008-.3 1.72 1.72 0 0 1-.648-.456 1.214 1.214 0 0 1-.264-.824 1.376 1.376 0 0 1 .224-.768 1.524 1.524 0 0 1 .688-.56 2.81 2.81 0 0 1 1.152-.208 3.246 3.246 0 0 1 .936.136 2.61 2.61 0 0 1 .8.36l-.2.472a2.665 2.665 0 0 0-.752-.344 2.72 2.72 0 0 0-.784-.12 1.809 1.809 0 0 0-1.112.288.874.874 0 0 0-.368.728.753.753 0 0 0 .2.544 1.461 1.461 0 0 0 .512.312c.208.069.485.147.832.232a7.569 7.569 0 0 1 .992.3 1.575 1.575 0 0 1 .648.448 1.17 1.17 0 0 1 .264.808 1.38 1.38 0 0 1-.232.776 1.545 1.545 0 0 1-.7.552 2.982 2.982 0 0 1-1.152.192zm4.818-2.16-.992.912v1.2h-.568v-5.936h.568v4.024l2.512-2.3h.7l-1.8 1.72L49.666 126h-.7zm3.182-2.1h.568V126h-.568zm.288-.92a.4.4 0 0 1-.3-.12.393.393 0 0 1-.12-.288.383.383 0 0 1 .12-.28.425.425 0 0 1 .592 0 .358.358 0 0 1 .12.272.41.41 0 0 1-.416.416zm1.86-.808h.568V126H52.6zm2.148 0h.568V126h-.568z"/>
    <path data-name="Path 4969" d="M65.776 123.088a1.346 1.346 0 0 0 .744-1.232c0-.872-.72-1.456-2.12-1.456h-2.736v5.6h2.9c1.472 0 2.24-.56 2.24-1.528a1.383 1.383 0 0 0-1.028-1.384zm-1.536-1.712c.632 0 .976.216.976.656s-.344.664-.976.664h-1.288v-1.32zm.224 3.648h-1.512v-1.384h1.512c.672 0 1.032.224 1.032.7s-.36.684-1.032.684z"/>
</svg>
