<svg xmlns="http://www.w3.org/2000/svg" width="169.013" height="151" viewBox="0 0 169.013 151">
    <g data-name="Group 47565" transform="translate(0 1)">
        <path data-name="Path 4644" d="M139.737 78.8H18.388a.851.851 0 0 1 0-1.7h121.349a.851.851 0 0 1 0 1.7z" style="fill:#1e243a"/>
        <path data-name="Path 4645" d="M46.513 77.95a.849.849 0 0 1-.849-.851v-9.237a.849.849 0 1 1 1.7 0V77.1a.849.849 0 0 1-.851.85z" style="fill:#1e243a"/>
        <path data-name="Path 4646" d="M26.323 74.955a2.52 2.52 0 1 1 2.513-2.52 2.519 2.519 0 0 1-2.513 2.52zm0-3.338a.818.818 0 1 0 .816.818.818.818 0 0 0-.816-.817z" style="fill:#1e243a"/>
        <path data-name="Path 4647" d="M32.556 74.955a2.52 2.52 0 1 1 2.513-2.52 2.519 2.519 0 0 1-2.513 2.52zm0-3.338a.818.818 0 1 0 .816.818.818.818 0 0 0-.816-.817z" style="fill:#1e243a"/>
        <path data-name="Path 4648" d="M38.788 74.955a2.52 2.52 0 1 1 2.513-2.52 2.519 2.519 0 0 1-2.513 2.52zm0-3.338a.818.818 0 1 0 .816.818.818.818 0 0 0-.816-.817z" style="fill:#1e243a"/>
        <path data-name="Path 4649" d="M81.79 71.752H51.241a.851.851 0 0 1 0-1.7H81.79a.851.851 0 0 1 0 1.7z" style="fill:#1e243a"/>
        <path data-name="Path 4650" d="M111.248 75.155H51.241a.851.851 0 0 1 0-1.7h60.007a.851.851 0 0 1 0 1.7z" style="fill:#1e243a"/>
        <path data-name="Path 4651" d="M128 114H24v1h104z" style="fill:#6c3099"/>
        <path data-name="Path 4652" d="M128 131H24v1h104z" style="fill:#6c3099"/>
        <path data-name="Path 4653" d="M162.588 80.441a.911.911 0 0 1-.909-.911v-1.58a.91.91 0 1 1 1.819 0v1.58a.911.911 0 0 1-.91.911z" style="fill:#1e243a"/>
        <path data-name="Path 4654" d="M162.588 73.4a.91.91 0 0 1-.909-.911v-1.58a.909.909 0 1 1 1.818 0v1.58a.91.91 0 0 1-.909.911z" style="fill:#1e243a"/>
        <path data-name="Path 4655" d="M162.588 66.365a.91.91 0 0 1-.909-.911v-1.58a.909.909 0 1 1 1.818 0v1.58a.91.91 0 0 1-.909.911z" style="fill:#1e243a"/>
        <path data-name="Path 4656" d="M162.588 59.326a.91.91 0 0 1-.909-.912v-1.58a.909.909 0 1 1 1.818 0v1.58a.91.91 0 0 1-.909.912z" style="fill:#1e243a"/>
        <path data-name="Path 4657" d="M162.588 52.288a.91.91 0 0 1-.909-.911V49.8a.909.909 0 1 1 1.818 0v1.58a.91.91 0 0 1-.909.908z" style="fill:#1e243a"/>
        <path data-name="Path 4658" d="M162.588 45.25a.91.91 0 0 1-.909-.911v-1.58a.909.909 0 1 1 1.818 0v1.58a.91.91 0 0 1-.909.911z" style="fill:#1e243a"/>
        <path data-name="Path 4659" d="M162.588 38.211a.91.91 0 0 1-.909-.912V35.72a.909.909 0 1 1 1.818 0v1.58a.91.91 0 0 1-.909.911z" style="fill:#1e243a"/>
        <path data-name="Path 4660" d="M162.588 31.173a.91.91 0 0 1-.909-.912v-1.58a.909.909 0 1 1 1.818 0v1.58a.91.91 0 0 1-.909.912z" style="fill:#1e243a"/>
        <path data-name="Path 4661" d="M158.4 26.909a.91.91 0 0 1-.911.909h-1.58a.909.909 0 1 1 0-1.818h1.58a.91.91 0 0 1 .911.909z" style="fill:#1e243a"/>
        <path data-name="Path 4662" d="M150.4 26.909a.91.91 0 0 1-.911.909h-1.58a.909.909 0 1 1 0-1.818h1.58a.91.91 0 0 1 .911.909z" style="fill:#1e243a"/>
        <path data-name="Path 4663" d="M162.588 124.8a.912.912 0 0 1-.909-.912v-3.16a.91.91 0 1 1 1.819 0v3.16a.912.912 0 0 1-.91.912zm0-8.873a.911.911 0 0 1-.909-.911v-3.16a.91.91 0 1 1 1.819 0v3.16a.911.911 0 0 1-.91.915zm0-8.872a.912.912 0 0 1-.909-.912v-3.16a.91.91 0 1 1 1.819 0v3.16a.912.912 0 0 1-.91.916zm0-8.873a.911.911 0 0 1-.909-.911v-3.16a.91.91 0 1 1 1.819 0v3.16a.911.911 0 0 1-.91.915zm0-8.872a.911.911 0 0 1-.909-.912v-3.16a.91.91 0 1 1 1.819 0V88.4a.911.911 0 0 1-.91.914z" style="fill:#1e243a"/>
        <path data-name="Path 4664" d="M162.588 132.278h-1.515a.912.912 0 0 1 0-1.823h.606v-.608a.909.909 0 1 1 1.818 0v1.52a.91.91 0 0 1-.909.911z" style="fill:#1e243a"/>
        <path data-name="Path 4665" d="M155.376 132.278h-3.152a.912.912 0 0 1 0-1.823h3.152a.912.912 0 0 1 0 1.823z" style="fill:#1e243a"/>
        <path data-name="Path 4666" d="M146.4 132.278h-1.45a.912.912 0 0 1 0-1.823h1.45a.912.912 0 0 1 0 1.823z" style="fill:#1e243a"/>
        <path data-name="Path 4667" d="M56.029 44.223a.911.911 0 0 1-.909-.911v-5.47a.909.909 0 1 1 1.818 0v5.469a.911.911 0 0 1-.909.912z" style="fill:#1e243a"/>
        <path data-name="Path 4668" d="M58.878 41.61h-5.455a.912.912 0 0 1 0-1.823h5.455a.912.912 0 0 1 0 1.823z" style="fill:#1e243a"/>
        <path data-name="Path 4669" d="M165.255 20.036a.911.911 0 0 1-.909-.912v-5.469a.91.91 0 1 1 1.819 0v5.469a.911.911 0 0 1-.91.912z" style="fill:#1e243a"/>
        <path data-name="Path 4670" d="M168.1 17.423h-5.455a.912.912 0 0 1 0-1.823h5.455a.912.912 0 0 1 0 1.823z" style="fill:#1e243a"/>
        <path data-name="Path 4671" d="M72.567 13.226a1.212 1.212 0 0 1 2.423-.067 1.187 1.187 0 0 1-1.182 1.225h-.03a1.19 1.19 0 0 1-1.211-1.158zm-3.591-.672a1.21 1.21 0 1 1 .841.34 1.218 1.218 0 0 1-.841-.34zm7.851-.186a1.211 1.211 0 1 1 .83.329 1.219 1.219 0 0 1-.83-.329zm-9.909-4.557a1.213 1.213 0 1 1 1.227 1.226h-.015a1.238 1.238 0 0 1-1.212-1.228zm11.018-.29a1.212 1.212 0 0 1 2.422-.094 1.187 1.187 0 0 1-1.166 1.246h-.046a1.2 1.2 0 0 1-1.21-1.153zm-9.067-2.838a1.217 1.217 0 0 1-.011-1.719 1.244 1.244 0 0 1 1.742-.01 1.332 1.332 0 0 1 .039 1.72c0 .241-.578.361-.891.361a1.265 1.265 0 0 1-.879-.351zm7.675-.16a1.21 1.21 0 1 1 .819.32 1.218 1.218 0 0 1-.819-.32zm-4.115-2.347a1.212 1.212 0 1 1 1.212 1.215 1.213 1.213 0 0 1-1.212-1.215z" style="fill:#1e243a"/>
        <path data-name="Path 4672" d="M91.478 59.412a1.212 1.212 0 0 1 2.423-.067 1.187 1.187 0 0 1-1.181 1.225h-.03a1.191 1.191 0 0 1-1.211-1.158zm-3.591-.672a1.214 1.214 0 1 1 1.714-.032 1.21 1.21 0 0 1-1.714.032zm7.851-.186a1.212 1.212 0 1 1 .83.329 1.219 1.219 0 0 1-.83-.329zM85.829 54a1.213 1.213 0 1 1 1.227 1.226h-.015a1.238 1.238 0 0 1-1.212-1.228zm11.018-.291a1.212 1.212 0 0 1 2.422-.094 1.186 1.186 0 0 1-1.169 1.242h-.046a1.2 1.2 0 0 1-1.21-1.153zm-9.067-2.84a1.21 1.21 0 1 1 .851.351 1.2 1.2 0 0 1-.851-.351zm7.675-.16a1.21 1.21 0 1 1 .82.32 1.218 1.218 0 0 1-.82-.321zm-4.1-2.347a1.207 1.207 0 0 1 1.205-1.215 1.223 1.223 0 0 1 1.222 1.215 1.247 1.247 0 0 1-1.2 1.215s-1.226-.543-1.226-1.215z" style="fill:#1e243a"/>
        <path data-name="Path 4673" d="M5.649 76.67a1.212 1.212 0 0 1 2.424-.07 1.187 1.187 0 0 1-1.182 1.225H6.86a1.191 1.191 0 0 1-1.211-1.155zM2.059 76a1.212 1.212 0 1 1 .841.34 1.219 1.219 0 0 1-.841-.34zm7.851-.186a1.212 1.212 0 1 1 .83.329 1.218 1.218 0 0 1-.83-.329zM0 71.254a1.227 1.227 0 0 1 1.2-1.243 1.235 1.235 0 0 1 .029 2.47h-.017A1.238 1.238 0 0 1 0 71.253zm11.018-.291a1.212 1.212 0 0 1 2.422-.095 1.187 1.187 0 0 1-1.166 1.247h-.045a1.2 1.2 0 0 1-1.211-1.153zm-9.067-2.836a1.21 1.21 0 1 1 .851.351 1.2 1.2 0 0 1-.851-.351zm7.675-.16a1.21 1.21 0 1 1 .82.32 1.218 1.218 0 0 1-.82-.32zM5.511 65.62a1.212 1.212 0 1 1 1.212 1.215 1.214 1.214 0 0 1-1.212-1.215z" style="fill:#1e243a"/>
        <rect data-name="Rectangle 20" width="125.5" height="82.5" rx="3.25" transform="translate(17.225 66.75)" style="stroke:#000;fill:none;stroke-width:1.5px"/>
        <path data-name="Path 4674" d="M68.352 106.8h-2.6l-.5 1.2h-1.324l2.5-5.6H67.7l2.5 5.6h-1.36zm-.408-.984-.888-2.144-.888 2.144z"/>
        <path data-name="Path 4675" d="m26.648 105.368-1.144 1.16V108h-.592v-5.6h.588v3.384l3.288-3.384h.68l-2.424 2.536L29.64 108h-.7zm7.3.7h-3.52a1.519 1.519 0 0 0 .5 1.064 1.682 1.682 0 0 0 1.152.4 1.856 1.856 0 0 0 .72-.136 1.619 1.619 0 0 0 .568-.416l.32.368a1.793 1.793 0 0 1-.7.512 2.344 2.344 0 0 1-.92.176 2.391 2.391 0 0 1-1.152-.272 2.03 2.03 0 0 1-.776-.764 2.176 2.176 0 0 1-.28-1.1 2.281 2.281 0 0 1 .264-1.1 1.978 1.978 0 0 1 .736-.76 2.08 2.08 0 0 1 1.056-.272 2.037 2.037 0 0 1 1.048.272 1.921 1.921 0 0 1 .728.76 2.253 2.253 0 0 1 .264 1.1zm-2.032-1.824a1.438 1.438 0 0 0-1.024.392 1.517 1.517 0 0 0-.464 1.008h2.984a1.5 1.5 0 0 0-.472-1.008 1.42 1.42 0 0 0-1.024-.388zm6.654-.456-2.1 4.712a2.007 2.007 0 0 1-.592.84 1.325 1.325 0 0 1-.808.248 1.649 1.649 0 0 1-.568-.1 1.231 1.231 0 0 1-.456-.288l.264-.424a1.049 1.049 0 0 0 .768.32.755.755 0 0 0 .488-.16 1.428 1.428 0 0 0 .384-.544l.184-.408-1.88-4.2h.592l1.584 3.576 1.584-3.576zm6.937 0L43.915 108h-.536l-1.328-3.448L40.723 108h-.536l-1.587-4.208h.544l1.32 3.576 1.352-3.576h.488l1.344 3.576 1.336-3.576zm2.458 4.248a2.216 2.216 0 0 1-1.1-.272A2.047 2.047 0 0 1 46.1 107a2.316 2.316 0 0 1 0-2.208 1.985 1.985 0 0 1 .768-.76 2.344 2.344 0 0 1 2.192 0 1.928 1.928 0 0 1 .76.76 2.316 2.316 0 0 1 0 2.208 1.988 1.988 0 0 1-.76.768 2.216 2.216 0 0 1-1.095.272zm0-.5a1.594 1.594 0 0 0 .8-.2 1.441 1.441 0 0 0 .56-.584 1.932 1.932 0 0 0 0-1.712 1.385 1.385 0 0 0-.56-.576 1.539 1.539 0 0 0-.8-.208 1.582 1.582 0 0 0-.808.208 1.453 1.453 0 0 0-.56.576 1.932 1.932 0 0 0 0 1.712 1.514 1.514 0 0 0 .56.584 1.639 1.639 0 0 0 .808.2zm3.84-2.92a1.38 1.38 0 0 1 .592-.64 2.049 2.049 0 0 1 .984-.216v.552l-.136-.008a1.344 1.344 0 0 0-1.04.408 1.625 1.625 0 0 0-.376 1.144V108h-.568v-4.208h.539zm6.405-2.552V108h-.544v-.832a1.72 1.72 0 0 1-.68.648 1.963 1.963 0 0 1-.944.224 2.14 2.14 0 0 1-1.072-.272 1.944 1.944 0 0 1-.752-.76 2.409 2.409 0 0 1 0-2.224 1.892 1.892 0 0 1 .752-.752 2.14 2.14 0 0 1 1.072-.272 1.936 1.936 0 0 1 .92.216 1.715 1.715 0 0 1 .68.616v-2.528zm-2.12 5.472a1.578 1.578 0 0 0 .792-.2 1.441 1.441 0 0 0 .56-.584 1.865 1.865 0 0 0 0-1.712 1.385 1.385 0 0 0-.56-.576 1.524 1.524 0 0 0-.792-.208 1.582 1.582 0 0 0-.808.208 1.453 1.453 0 0 0-.56.576 1.932 1.932 0 0 0 0 1.712 1.514 1.514 0 0 0 .56.584 1.639 1.639 0 0 0 .808.2z"/>
        <path data-name="Path 4676" d="m26.648 123.368-1.144 1.16V126h-.592v-5.6h.588v3.384l3.288-3.384h.68l-2.424 2.536L29.64 126h-.7zm7.3.7h-3.52a1.519 1.519 0 0 0 .5 1.064 1.682 1.682 0 0 0 1.152.4 1.856 1.856 0 0 0 .72-.136 1.619 1.619 0 0 0 .568-.416l.32.368a1.793 1.793 0 0 1-.7.512 2.344 2.344 0 0 1-.92.176 2.391 2.391 0 0 1-1.152-.272 2.03 2.03 0 0 1-.776-.764 2.176 2.176 0 0 1-.28-1.1 2.281 2.281 0 0 1 .264-1.1 1.978 1.978 0 0 1 .736-.76 2.08 2.08 0 0 1 1.056-.272 2.037 2.037 0 0 1 1.048.272 1.921 1.921 0 0 1 .728.76 2.253 2.253 0 0 1 .264 1.1zm-2.032-1.824a1.438 1.438 0 0 0-1.024.392 1.517 1.517 0 0 0-.464 1.008h2.984a1.5 1.5 0 0 0-.472-1.008 1.42 1.42 0 0 0-1.024-.388zm6.654-.456-2.1 4.712a2.007 2.007 0 0 1-.592.84 1.325 1.325 0 0 1-.808.248 1.649 1.649 0 0 1-.568-.1 1.231 1.231 0 0 1-.456-.288l.264-.424a1.049 1.049 0 0 0 .768.32.755.755 0 0 0 .488-.16 1.428 1.428 0 0 0 .384-.544l.184-.408-1.88-4.2h.592l1.584 3.576 1.584-3.576zm6.937 0L43.915 126h-.536l-1.328-3.448L40.723 126h-.536l-1.587-4.208h.544l1.32 3.576 1.352-3.576h.488l1.344 3.576 1.336-3.576zm2.458 4.248a2.216 2.216 0 0 1-1.1-.272A2.047 2.047 0 0 1 46.1 125a2.316 2.316 0 0 1 0-2.208 1.985 1.985 0 0 1 .768-.76 2.344 2.344 0 0 1 2.192 0 1.928 1.928 0 0 1 .76.76 2.316 2.316 0 0 1 0 2.208 1.988 1.988 0 0 1-.76.768 2.216 2.216 0 0 1-1.095.272zm0-.5a1.594 1.594 0 0 0 .8-.2 1.441 1.441 0 0 0 .56-.584 1.932 1.932 0 0 0 0-1.712 1.385 1.385 0 0 0-.56-.576 1.539 1.539 0 0 0-.8-.208 1.582 1.582 0 0 0-.808.208 1.453 1.453 0 0 0-.56.576 1.932 1.932 0 0 0 0 1.712 1.514 1.514 0 0 0 .56.584 1.639 1.639 0 0 0 .808.2zm3.84-2.92a1.38 1.38 0 0 1 .592-.64 2.049 2.049 0 0 1 .984-.216v.552l-.136-.008a1.344 1.344 0 0 0-1.04.408 1.625 1.625 0 0 0-.376 1.144V126h-.568v-4.208h.539zm6.405-2.552V126h-.544v-.832a1.72 1.72 0 0 1-.68.648 1.963 1.963 0 0 1-.944.224 2.14 2.14 0 0 1-1.072-.272 1.944 1.944 0 0 1-.752-.76 2.409 2.409 0 0 1 0-2.224 1.892 1.892 0 0 1 .752-.752 2.14 2.14 0 0 1 1.072-.272 1.936 1.936 0 0 1 .92.216 1.715 1.715 0 0 1 .68.616v-2.528zm-2.12 5.472a1.578 1.578 0 0 0 .792-.2 1.441 1.441 0 0 0 .56-.584 1.865 1.865 0 0 0 0-1.712 1.385 1.385 0 0 0-.56-.576 1.524 1.524 0 0 0-.792-.208 1.582 1.582 0 0 0-.808.208 1.453 1.453 0 0 0-.56.576 1.932 1.932 0 0 0 0 1.712 1.514 1.514 0 0 0 .56.584 1.639 1.639 0 0 0 .808.2z"/>
        <path data-name="Path 4677" d="M68.776 123.088a1.465 1.465 0 0 1 .752.512 1.384 1.384 0 0 1 .272.872 1.3 1.3 0 0 1-.576 1.136 2.93 2.93 0 0 1-1.664.392h-2.9v-5.6h2.74a2.661 2.661 0 0 1 1.568.392 1.238 1.238 0 0 1 .552 1.064 1.365 1.365 0 0 1-.744 1.232zm-2.824-1.712v1.32h1.288a1.3 1.3 0 0 0 .728-.168.56.56 0 0 0 .248-.5.541.541 0 0 0-.248-.488 1.3 1.3 0 0 0-.728-.168zm1.512 3.648a1.415 1.415 0 0 0 .768-.168.572.572 0 0 0 .264-.52q0-.7-1.032-.7h-1.512v1.384z"/>
        <path data-name="Path 4678" d="M60.475 86h-35v3h35z" style="fill:#ed1e79"/>
        <path data-name="Path 4679" d="M110.132 2.329A11.485 11.485 0 0 1 117.094 0a2.646 2.646 0 0 1 1.592.62 7.063 7.063 0 0 1 1.01 1.022 1.467 1.467 0 0 1 .335.934v10.643h-3.187a4.406 4.406 0 1 0 0 2.938h3.187v27.656a1.471 1.471 0 0 1-.537 1.137 8.45 8.45 0 0 1-5.338 2.05 9.788 9.788 0 0 1-7.755-3.857A11.927 11.927 0 0 1 104 38a7.876 7.876 0 0 1-3.1-1.63 8.809 8.809 0 0 1-2.9-6.995 24.062 24.062 0 0 1 .353-4.406h9.194a3.676 3.676 0 0 1 3.642 3.2 4.405 4.405 0 1 0 2.95-.018 6.61 6.61 0 0 0-6.592-6.119H99.3a5.6 5.6 0 0 1 1.836-2.142 4.7 4.7 0 0 1 .623-.347 11.882 11.882 0 0 1 .188-7.552 8.407 8.407 0 0 1 2.453-3.722 4.679 4.679 0 0 1 2.585-1.075 8.387 8.387 0 0 1 3.155-4.864zm12.837 34.389h2.2a6.61 6.61 0 0 0 6.609-6.609v-5.39a4.406 4.406 0 1 0-2.937 0v5.39a3.673 3.673 0 0 1-3.672 3.672h-2.2V2.576a1.467 1.467 0 0 1 .335-.934 6.913 6.913 0 0 1 1.01-1.022 2.63 2.63 0 0 1 1.592-.62 11.485 11.485 0 0 1 6.962 2.329 8.369 8.369 0 0 1 3.152 4.864 4.658 4.658 0 0 1 2.58 1.076 8.407 8.407 0 0 1 2.453 3.722 11.874 11.874 0 0 1 .188 7.549 4.921 4.921 0 0 1 .623.352 5.6 5.6 0 0 1 1.874 2.215A16.69 16.69 0 0 1 145 29.375a8.8 8.8 0 0 1-2.9 6.991 7.876 7.876 0 0 1-3.1 1.63 11.914 11.914 0 0 1-2.406 5.146 9.783 9.783 0 0 1-7.75 3.858 8.441 8.441 0 0 1-5.335-2.05 1.468 1.468 0 0 1-.54-1.137v-7.094zm-10.281-23.5a1.468 1.468 0 1 0 1.038.43 1.468 1.468 0 0 0-1.038-.429zm0 17.625a1.468 1.468 0 1 0 1.038.43 1.468 1.468 0 0 0-1.038-.429zm17.624-8.812a1.468 1.468 0 1 0-1.038-.43 1.468 1.468 0 0 0 1.038.43z" style="stroke-width:2px;stroke:#000;fill:#6c3099"/>
    </g>
</svg>
