<svg data-name="Group 47569" xmlns="http://www.w3.org/2000/svg" width="179" height="150.894" viewBox="0 0 179 150.894">
    <path data-name="Path 4807" d="M175.892 13.219h-12.554a2.325 2.325 0 0 0-2.325 2.325v92.588a2.325 2.325 0 0 0 2.325 2.326h12.554a2.325 2.325 0 0 0 2.325-2.326V15.544a2.325 2.325 0 0 0-2.325-2.325zM165.81 107.6a1.744 1.744 0 1 1 1.744-1.744 1.744 1.744 0 0 1-1.744 1.744z" style="fill:#ed1e79"/>
    <path data-name="Path 4808" d="M93.833 80.376a4 4 0 1 0-4-4 4 4 0 0 0 4 4z" style="fill:#ed1e79"/>
    <path data-name="Path 4809" d="M150.032 150.894H32.488a5.506 5.506 0 0 1-5.5-5.5v-2.27a.777.777 0 0 1 .777-.777h126.989a.777.777 0 0 1 .777.777v2.27a5.507 5.507 0 0 1-5.5 5.5zM28.543 143.9v1.493a3.951 3.951 0 0 0 3.946 3.946h117.543a3.951 3.951 0 0 0 3.946-3.946V143.9H28.543z"/>
    <path data-name="Path 4810" d="M100.182 147.533H82.311a.776.776 0 0 1-.777-.777V143.2a.777.777 0 0 1 1.554 0v2.775h16.317V143.2a.777.777 0 1 1 1.554 0v3.552a.776.776 0 0 1-.777.781z"/>
    <path data-name="Path 4811" d="M146.026 142.982a.777.777 0 0 1-.777-.777V81.947a4.222 4.222 0 0 0-4.3-4.235H131.6a.777.777 0 0 1 0-1.554h9.354a5.759 5.759 0 0 1 5.853 5.789v60.258a.776.776 0 0 1-.781.777z"/>
    <path data-name="Path 4812" d="M36.355 143.537a.776.776 0 0 1-.777-.777V81.947a5.68 5.68 0 0 1 1.755-4.124 5.982 5.982 0 0 1 4.173-1.665h9.724a.777.777 0 0 1 0 1.554h-9.724a4.26 4.26 0 0 0-4.374 4.235v60.813a.776.776 0 0 1-.777.777z"/>
    <path data-name="Path 4813" d="M43.57 137.987a.765.765 0 0 1-.549-.212.743.743 0 0 1-.228-.534V84.15a.776.776 0 0 1 .777-.777h7.659a.777.777 0 0 1 0 1.554h-6.882v51.537l93.8-.054V84.928H131.6a.777.777 0 0 1 0-1.554h7.326a.776.776 0 0 1 .777.777v53.036a.764.764 0 0 1-.777.761l-95.352.04z"/>
    <path data-name="Path 4814" d="M21.59 101.688a.776.776 0 0 1-.777-.777v-4.995a.777.777 0 1 1 1.554 0v4.995a.776.776 0 0 1-.777.777z"/>
    <path data-name="Path 4815" d="M24.144 99.246h-5a.777.777 0 0 1 0-1.554h5a.777.777 0 0 1 0 1.554z"/>
    <path data-name="Path 4816" d="M150.577 61.949a.777.777 0 0 1-.777-.777v-5a.777.777 0 0 1 1.554 0v5a.776.776 0 0 1-.777.777z"/>
    <path data-name="Path 4817" d="M153.131 59.507h-5a.777.777 0 0 1 0-1.554h5a.777.777 0 0 1 0 1.554z"/>
    <path data-name="Path 4818" d="M75.095 40.636a.776.776 0 0 1-.777-.777v-5a.777.777 0 0 1 1.554 0v5a.776.776 0 0 1-.777.777z"/>
    <path data-name="Path 4819" d="M77.648 38.194h-5a.777.777 0 0 1 0-1.554h5a.777.777 0 0 1 0 1.554z"/>
    <path data-name="Path 4820" d="M35.347 57.228a1.11 1.11 0 0 1 2.219-.061 1.085 1.085 0 0 1-1.082 1.119h-.028a1.089 1.089 0 0 1-1.109-1.058zm-3.288-.607a1.108 1.108 0 1 1 .769.309 1.043 1.043 0 0 1-.77-.307zm7.189-.176a1.111 1.111 0 1 1 .76.3 1.111 1.111 0 0 1-.76-.3zm-9.073-4.163A1.11 1.11 0 1 1 31.3 53.4h-.015a1.132 1.132 0 0 1-1.11-1.121zm10.089-.265a1.11 1.11 0 0 1 2.218-.087 1.086 1.086 0 0 1-1.068 1.139h-.041a1.1 1.1 0 0 1-1.109-1.053zm-8.3-2.591a1.11 1.11 0 1 1 .779.321 1.11 1.11 0 0 1-.779-.321zm7.028-.146a1.11 1.11 0 1 1 .75.292 1.11 1.11 0 0 1-.754-.293zm-3.772-2.144a1.11 1.11 0 1 1 1.11 1.11 1.11 1.11 0 0 1-1.11-1.11z"/>
    <path data-name="Path 4821" d="M117.045 44.907a1.11 1.11 0 0 1 2.219-.061 1.084 1.084 0 0 1-1.082 1.119h-.028a1.09 1.09 0 0 1-1.109-1.058zm-3.286-.614a1.108 1.108 0 1 1 .769.311 1.109 1.109 0 0 1-.769-.311zm7.187-.17a1.112 1.112 0 1 1 .76.3 1.112 1.112 0 0 1-.76-.3zm-9.073-4.163A1.11 1.11 0 1 1 113 41.08h-.014a1.131 1.131 0 0 1-1.11-1.121zm10.089-.265a1.11 1.11 0 0 1 2.218-.087 1.086 1.086 0 0 1-1.068 1.139h-.042a1.1 1.1 0 0 1-1.108-1.053zm-8.3-2.591a1.109 1.109 0 1 1 .779.321 1.109 1.109 0 0 1-.782-.325zm7.027-.147a1.111 1.111 0 1 1 .751.292 1.111 1.111 0 0 1-.751-.292zm-3.767-2.144a1.11 1.11 0 1 1 1.11 1.11 1.11 1.11 0 0 1-1.113-1.109z"/>
    <path data-name="Path 4822" d="M168.662 142.257a1.11 1.11 0 0 1 2.219-.061 1.084 1.084 0 0 1-1.082 1.119h-.028a1.09 1.09 0 0 1-1.109-1.058zm-3.288-.614a1.111 1.111 0 1 1 .771.311 1.11 1.11 0 0 1-.771-.311zm7.189-.169a1.112 1.112 0 1 1 .76.3 1.112 1.112 0 0 1-.76-.3zm-9.074-4.163a1.11 1.11 0 1 1 1.125 1.12h-.014a1.132 1.132 0 0 1-1.11-1.121zm10.089-.265a1.11 1.11 0 0 1 2.218-.087 1.085 1.085 0 0 1-1.068 1.139h-.041a1.1 1.1 0 0 1-1.109-1.054zm-8.3-2.591a1.109 1.109 0 1 1 .78.321 1.111 1.111 0 0 1-.78-.321zm7.028-.147a1.11 1.11 0 1 1 .75.292 1.11 1.11 0 0 1-.756-.292zm-3.767-2.143a1.11 1.11 0 1 1 1.11 1.11 1.109 1.109 0 0 1-1.113-1.11z"/>
    <path data-name="Path 4823" d="M10.593 142.257a1.11 1.11 0 0 1 2.219-.061 1.085 1.085 0 0 1-1.082 1.119h-.03a1.089 1.089 0 0 1-1.109-1.058zm-3.293-.614a1.111 1.111 0 1 1 .77.311 1.11 1.11 0 0 1-.77-.311zm7.189-.169a1.113 1.113 0 1 1 .76.3 1.112 1.112 0 0 1-.756-.3zm-9.069-4.163a1.11 1.11 0 1 1 1.124 1.12H6.53a1.132 1.132 0 0 1-1.11-1.121zm10.089-.265a1.1 1.1 0 0 1 1.068-1.138 1.084 1.084 0 0 1 1.15 1.08 1.1 1.1 0 0 1-1.069 1.11h-.042a1.1 1.1 0 0 1-1.108-1.054zm-8.3-2.591a1.109 1.109 0 1 1 .779.321 1.11 1.11 0 0 1-.782-.321zm7.028-.147a1.11 1.11 0 1 1 .75.292 1.11 1.11 0 0 1-.75-.292zm-3.767-2.143a1.11 1.11 0 1 1 1.11 1.11 1.11 1.11 0 0 1-1.114-1.11z"/>
    <path data-name="Path 4824" d="M175.9 111.246h-12.585a3.107 3.107 0 0 1-3.1-3.1V15.5a3.106 3.106 0 0 1 3.1-3.1H175.9a3.106 3.106 0 0 1 3.1 3.1v92.641a3.107 3.107 0 0 1-3.1 3.1zm-12.585-97.294a1.551 1.551 0 0 0-1.549 1.549v92.641a1.551 1.551 0 0 0 1.549 1.549H175.9a1.551 1.551 0 0 0 1.549-1.549V15.5a1.551 1.551 0 0 0-1.549-1.549z"/>
    <path data-name="Path 4825" d="M177.884 20.545h-8.436a.777.777 0 0 1 0-1.554h8.436a.777.777 0 0 1 0 1.554z"/>
    <path data-name="Path 4826" d="M177.884 27.2H174a.777.777 0 0 1 0-1.554h3.885a.777.777 0 0 1 0 1.554z"/>
    <path data-name="Path 4827" d="M177.884 33.532h-8.436a.777.777 0 0 1 0-1.554h8.436a.777.777 0 0 1 0 1.554z"/>
    <path data-name="Path 4828" d="M177.884 40.081H174a.777.777 0 0 1 0-1.554h3.885a.777.777 0 0 1 0 1.554z"/>
    <path data-name="Path 4829" d="M177.884 46.631h-8.436a.777.777 0 0 1 0-1.554h8.436a.777.777 0 0 1 0 1.554z"/>
    <path data-name="Path 4830" d="M177.884 52.958H174a.777.777 0 0 1 0-1.554h3.885a.777.777 0 0 1 0 1.554z"/>
    <path data-name="Path 4831" d="M177.884 59.507h-8.436a.777.777 0 0 1 0-1.554h8.436a.777.777 0 0 1 0 1.554z"/>
    <path data-name="Path 4832" d="M177.884 65.834H174a.777.777 0 0 1 0-1.554h3.885a.777.777 0 0 1 0 1.554z"/>
    <path data-name="Path 4833" d="M177.884 72.383h-8.436a.777.777 0 0 1 0-1.554h8.436a.777.777 0 0 1 0 1.554z"/>
    <path data-name="Path 4834" d="M177.884 79.044H174a.777.777 0 0 1 0-1.554h3.885a.777.777 0 0 1 0 1.554z"/>
    <path data-name="Path 4835" d="M177.884 85.482h-8.436a.777.777 0 0 1 0-1.554h8.436a.777.777 0 0 1 0 1.554z"/>
    <path data-name="Path 4836" d="M177.884 91.92H174a.777.777 0 0 1 0-1.554h3.885a.777.777 0 0 1 0 1.554z"/>
    <path data-name="Path 4837" d="M177.884 98.58h-8.436a.777.777 0 0 1 0-1.554h8.436a.777.777 0 0 1 0 1.554z"/>
    <path data-name="Path 4838" d="M177.884 105.019H174a.777.777 0 0 1 0-1.554h3.885a.777.777 0 0 1 0 1.554z"/>
    <path data-name="Path 4839" d="M165.811 108.373a2.521 2.521 0 1 1 2.521-2.521 2.524 2.524 0 0 1-2.521 2.521zm0-3.488a.967.967 0 1 0 .967.967.968.968 0 0 0-.967-.967z"/>
    <path data-name="Path 4840" d="M4.209.672A3.547 3.547 0 1 0 7.747 4.22 3.543 3.543 0 0 0 4.209.672z" style="fill:#ed1e79"/>
    <path data-name="Path 4841" d="M20.664 12.509H4.208v19.906h16.456a1.5 1.5 0 0 0 1.493-1.5V14.006a1.5 1.5 0 0 0-1.493-1.497z" style="fill:#6c3099"/>
    <path data-name="Path 4842" d="M41.771 17.979a.843.843 0 0 0-.571-1.459H22.708l-7.95 16.41v3.5H41.2a.843.843 0 0 0 .575-1.459l-8.411-7.881a.845.845 0 0 1 0-1.232l8.408-7.878z" style="fill:#6c3099"/>
    <path data-name="Path 4843" d="M4.14 65.672A.671.671 0 0 1 3.469 65V7.862a.67.67 0 1 1 1.341 0V65a.671.671 0 0 1-.67.672z"/>
    <path data-name="Path 4844" d="M4.209 8.439A4.22 4.22 0 1 1 8.417 4.22a4.219 4.219 0 0 1-4.208 4.219zm0-7.095A2.875 2.875 0 1 0 7.076 4.22a2.875 2.875 0 0 0-2.867-2.876z"/>
    <path data-name="Path 4845" d="M20.664 33.087H4.592a.672.672 0 0 1 0-1.344h16.072a.824.824 0 0 0 .823-.825V14.006a.824.824 0 0 0-.823-.825H4.592a.672.672 0 0 1 0-1.344h16.072a2.169 2.169 0 0 1 2.164 2.169v16.912a2.169 2.169 0 0 1-2.164 2.169z"/>
    <path data-name="Path 4846" d="M41.2 37.1H14.758a.671.671 0 0 1-.67-.672v-3.5a.671.671 0 1 1 1.341 0v2.825H41.2a.171.171 0 0 0 .117-.3l-8.411-7.873a1.517 1.517 0 0 1 0-2.215l8.408-7.878a.171.171 0 0 0-.117-.3H22.708a.672.672 0 0 1 0-1.344H41.2a1.516 1.516 0 0 1 1.033 2.622l-8.408 7.878a.166.166 0 0 0-.054.125.17.17 0 0 0 .054.125l8.408 7.878A1.516 1.516 0 0 1 41.2 37.1z"/>
    <path data-name="Path 4847" d="M17.645 22.65a.671.671 0 0 1-.67-.672v-4.8h-6.226a.672.672 0 0 1 0-1.344h6.9a.671.671 0 0 1 .67.672v5.474a.671.671 0 0 1-.674.67z"/>
    <path data-name="Path 4848" d="M54.148 116.9h-2.5a.776.776 0 0 1-.777-.777v-2.5a.777.777 0 0 1 1.554 0v1.721h1.721a.777.777 0 1 1 0 1.554z"/>
    <path data-name="Path 4849" d="M121.752 116.9h-4.609a.777.777 0 0 1 0-1.554h4.609a.777.777 0 1 1 0 1.554zm-11.267 0h-4.609a.777.777 0 0 1 0-1.554h4.609a.777.777 0 1 1 0 1.554zm-11.267 0h-4.609a.777.777 0 0 1 0-1.554h4.609a.777.777 0 1 1 0 1.554zm-11.267 0h-4.609a.777.777 0 0 1 0-1.554h4.609a.777.777 0 1 1 0 1.554zm-11.267 0h-4.608a.777.777 0 1 1 0-1.554h4.609a.777.777 0 1 1 0 1.554zm-11.267 0h-4.608a.777.777 0 1 1 0-1.554h4.609a.777.777 0 1 1 0 1.554z"/>
    <path data-name="Path 4850" d="M130.907 116.9h-2.5a.777.777 0 0 1 0-1.554h1.72v-1.721a.777.777 0 1 1 1.554 0v2.5a.776.776 0 0 1-.774.775z"/>
    <path data-name="Path 4851" d="M130.908 106.436a.776.776 0 0 1-.777-.777v-5.512a.777.777 0 1 1 1.554 0v5.512a.777.777 0 0 1-.777.777zm0-13.473a.776.776 0 0 1-.777-.777v-5.513a.777.777 0 0 1 1.554 0v5.513a.777.777 0 0 1-.777.777zm0-13.474a.776.776 0 0 1-.777-.777V73.2a.777.777 0 1 1 1.554 0v5.512a.777.777 0 0 1-.777.777z"/>
    <path data-name="Path 4852" d="M130.907 66.015a.777.777 0 0 1-.777-.777v-1.72h-1.72a.777.777 0 0 1 0-1.554h2.5a.776.776 0 0 1 .777.777v2.5a.776.776 0 0 1-.78.774z"/>
    <path data-name="Path 4853" d="M121.752 63.518h-4.609a.777.777 0 0 1 0-1.554h4.609a.777.777 0 0 1 0 1.554zm-11.267 0h-4.609a.777.777 0 0 1 0-1.554h4.609a.777.777 0 0 1 0 1.554zm-11.267 0h-4.609a.777.777 0 0 1 0-1.554h4.609a.777.777 0 1 1 0 1.554zm-11.267 0h-4.609a.777.777 0 0 1 0-1.554h4.609a.777.777 0 1 1 0 1.554zm-11.267 0h-4.608a.777.777 0 1 1 0-1.554h4.609a.777.777 0 1 1 0 1.554zm-11.267 0h-4.608a.777.777 0 1 1 0-1.554h4.609a.777.777 0 1 1 0 1.554z"/>
    <path data-name="Path 4854" d="M51.651 66.015a.777.777 0 0 1-.777-.777v-2.5a.777.777 0 0 1 .777-.777h2.5a.777.777 0 1 1 0 1.554h-1.723v1.72a.777.777 0 0 1-.777.78z"/>
    <path data-name="Path 4855" d="M51.651 106.436a.776.776 0 0 1-.777-.777v-5.512a.777.777 0 1 1 1.554 0v5.512a.776.776 0 0 1-.777.777zm0-13.473a.776.776 0 0 1-.777-.777v-5.513a.777.777 0 0 1 1.554 0v5.513a.776.776 0 0 1-.777.777zm0-13.474a.777.777 0 0 1-.777-.777V73.2a.777.777 0 0 1 1.554 0v5.512a.777.777 0 0 1-.777.777z"/>
    <path data-name="Path 4856" d="M98.69 109.431a.77.77 0 0 1-.549-.228L71.3 82.363l-19.1 19.1a.777.777 0 1 1-1.1-1.1l19.65-19.649a.778.778 0 0 1 1.1 0l27.39 27.391a.777.777 0 0 1-.549 1.326z"/>
    <path data-name="Path 4857" d="M130.351 101.023a.775.775 0 0 1-.394-.108l-20.482-12.093L90.218 99.7a.777.777 0 0 1-.765-1.353l19.648-11.1a.775.775 0 0 1 .777.008l20.869 12.321a.777.777 0 0 1-.4 1.447z"/>
    <path data-name="Path 4858" d="M93.833 81.153a4.773 4.773 0 1 1 4.773-4.773 4.779 4.779 0 0 1-4.773 4.773zm0-7.992a3.219 3.219 0 1 0 3.219 3.219 3.223 3.223 0 0 0-3.219-3.22z"/>
    <path data-name="Path 4859" d="M148.69 26.761h-2.89a.777.777 0 1 1 0-1.554h2.886a.777.777 0 0 1 0 1.554zm-7.992 0h-2.886a.777.777 0 0 1 0-1.554h2.888a.777.777 0 1 1 0 1.554zm-7.992 0h-2.886a.777.777 0 1 1 0-1.554h2.886a.777.777 0 1 1 0 1.554zm-7.993 0h-2.886a.777.777 0 1 1 0-1.554h2.886a.777.777 0 1 1 0 1.554zm-7.992 0h-2.886a.777.777 0 1 1 0-1.554h2.886a.777.777 0 1 1 0 1.554zm-7.992 0h-2.886a.777.777 0 1 1 0-1.554h2.886a.777.777 0 1 1 0 1.554zm-7.992 0h-2.886a.777.777 0 1 1 0-1.554h2.886a.777.777 0 1 1 0 1.554zm-7.993 0h-2.886a.777.777 0 1 1 0-1.554h2.886a.777.777 0 1 1 0 1.554zm-7.992 0h-2.886a.777.777 0 1 1 0-1.554h2.886a.777.777 0 1 1 0 1.554zm-7.992 0h-2.886a.777.777 0 1 1 0-1.554h2.886a.777.777 0 0 1 0 1.554zm-7.992 0h-2.887a.777.777 0 1 1 0-1.554h2.886a.777.777 0 1 1 0 1.554zm-7.992 0h-2.887a.777.777 0 1 1 0-1.554h2.886a.777.777 0 1 1 0 1.554zm-7.992 0H49.9a.777.777 0 1 1 0-1.554h2.886a.777.777 0 1 1 0 1.554zm-7.992 0H41.9a.777.777 0 1 1 0-1.554h2.886a.777.777 0 1 1 0 1.554zm-7.992 0h-2.888a.777.777 0 1 1 0-1.554H36.8a.777.777 0 1 1 0 1.554z"/>
    <path data-name="Path 4860" d="M155.35 26.761h-1.443a.777.777 0 0 1 0-1.554h1.443a.777.777 0 0 1 0 1.554z"/>
    <path data-name="Path 4861" d="M91.3 28.648a.777.777 0 0 1-.777-.777v-1.443a.777.777 0 0 1 1.554 0v1.443a.777.777 0 0 1-.777.777z"/>
    <path data-name="Path 4862" d="M91.3 51.182a.776.776 0 0 1-.777-.777v-2.664a.777.777 0 0 1 1.554 0V50.4a.776.776 0 0 1-.777.782zm0-7.548a.776.776 0 0 1-.777-.777v-2.665a.777.777 0 0 1 1.554 0v2.664a.776.776 0 0 1-.777.777zm0-7.548a.777.777 0 0 1-.777-.777v-2.665a.777.777 0 1 1 1.554 0v2.664a.777.777 0 0 1-.777.777z"/>
    <path data-name="Path 4863" d="M91.3 57.62a.777.777 0 0 1-.777-.777v-1.332a.777.777 0 0 1 1.554 0v1.332a.777.777 0 0 1-.777.777z"/>
</svg>
