<svg data-name="Group 47562" xmlns="http://www.w3.org/2000/svg" width="475" height="412" viewBox="0 0 475 412">
    <defs>
        <clipPath id="ab7jg455aa">
            <path data-name="Rectangle 4" transform="rotate(14.76 7.622 58.896)" style="fill:#fff" d="M0 0h59.83v59.83H0z"/>
        </clipPath>
    </defs>
    <path data-name="Path 4425" d="M33.943 443.649s20.5-79.333 56.071-92.182-1.958 53.1 40.409 28.968 129.687-166.246 140.993-97.519S288.689 433.529 336 386.417s70.515-127.6 98.838-112.384c26.3 14.13-25.057 104.589 15.608 90.9 54.119-18.223 13.609 72.311 10.9 78.714H33.943z" transform="translate(-4.078 -33.332)" style="fill:#e8e8e8"/>
    <path data-name="Path 4426" d="M29.055 410.946h428.617l.165-.384c.08-.192.2-.458.341-.795a268.9 268.9 0 0 0 12.768-35.579c5.623-20.746 5.395-34.613-.671-41.225-4.681-5.1-12.794-5.758-24.115-1.946-5.8 1.952-9.826 1.84-12.305-.352-5.841-5.16-2.6-21.337.831-38.464 2.165-10.818 4.4-22 4.575-31.383.2-10.824-2.49-17.579-8.208-20.65-17.2-9.24-32.351 15.388-51.529 46.573-13.432 21.844-28.658 46.606-48.049 65.918-5.819 5.8-11.219 9.81-16.049 11.921-4.49 1.963-8.634 2.347-12.311 1.131-4.319-1.424-8.1-4.953-11.549-10.786-3.128-5.278-5.9-12.327-8.49-21.546-4.836-17.206-8.273-39.7-11.6-61.459-1.133-7.39-2.3-15.036-3.517-22.415-.9-5.455-2.314-9.784-4.218-12.877a12.392 12.392 0 0 0-7.06-5.785c-4-1.162-8.831-.155-14.768 3.072-5.187 2.82-11.134 7.3-18.167 13.691-13.013 11.82-27.796 28.456-42.09 44.546-21.03 23.673-40.894 46.035-55.62 54.422-8.58 4.889-14.347 6.361-17.63 4.506-3.862-2.186-4.044-8.819-4.235-15.841-.2-7.278-.4-14.8-4.974-17.931-2.968-2.031-7.379-1.951-13.475.251-8.23 2.976-16.327 9.714-24.062 20.037-6.155 8.217-12.1 18.715-17.678 31.207a298.157 298.157 0 0 0-14.731 41.37l-.2.783zm427.793-1.258H30.677a299.357 299.357 0 0 1 14.459-40.4c5.538-12.4 11.438-22.815 17.534-30.956 7.581-10.12 15.481-16.715 23.477-19.606 5.692-2.058 9.73-2.186 12.347-.394 4.049 2.767 4.24 9.965 4.432 16.928.2 7.39.389 14.369 4.868 16.9a7.882 7.882 0 0 0 3.936.944c3.628 0 8.5-1.792 14.928-5.45 14.906-8.488 34.84-30.924 55.938-54.678 14.274-16.064 29.025-32.679 41.99-44.451 14.433-13.112 24.817-18.5 31.743-16.492 5.214 1.514 8.709 7.454 10.39 17.659 1.213 7.374 2.383 15.015 3.512 22.4 3.336 21.79 6.783 44.329 11.635 61.609 2.617 9.325 5.442 16.47 8.623 21.844 3.618 6.105 7.618 9.816 12.236 11.34 3.985 1.317 8.427.923 13.2-1.173 4.969-2.175 10.5-6.275 16.428-12.183 19.493-19.413 34.761-44.243 48.23-66.146 18.832-30.621 33.707-54.81 49.869-46.125 5.266 2.826 7.735 9.214 7.549 19.52-.165 9.273-2.394 20.4-4.554 31.159-1.766 8.82-3.437 17.153-3.927 24.111-.564 8 .549 12.941 3.5 15.548 2.846 2.511 7.272 2.708 13.533.6 10.805-3.636 18.476-3.1 22.791 1.61 3.112 3.391 4.58 9.016 4.362 16.721-.181 6.392-1.516 14.241-3.979 23.327a267.089 267.089 0 0 1-12.709 35.414c-.069.154-.127.3-.181.421z"/>
    <path data-name="Path 4427" d="M133.205 171.158h-58.57s1.413 30.834 29.474 30.829 29.096-30.829 29.096-30.829z" transform="translate(-8.967 -21.184)" style="fill:#6c3099"/>
    <path data-name="Path 4428" d="M106.5 187.177h104.01l-12.327-87.009s-8.611-21.887-19.683-37.387a54.33 54.33 0 0 0-10.27-11.309 16.421 16.421 0 0 0-8-3.69c-18.15-2.058-41.4 41.577-38.7 89.766s-15.03 49.629-15.03 49.629z" transform="translate(-13.048 -5.733)" style="fill:#e8e8e8"/>
    <path data-name="Path 4429" d="M93.455 182.074h104.732l-12.439-87.8-.026-.069c-.085-.219-8.765-22.138-19.76-37.52a54.678 54.678 0 0 0-10.402-11.442 17.093 17.093 0 0 0-8.312-3.818c-4.473-.507-9.39 1.637-14.22 6.2-7.289 6.889-14.13 19.1-18.758 33.5a141.61 141.61 0 0 0-6.42 50.728c2.64 47.032-14.278 48.951-14.454 48.967l.054 1.253zm103.282-1.258H96.846a17.463 17.463 0 0 0 5.667-5.774c2.421-3.775 4.234-8.829 5.38-15.025 1.429-7.693 1.839-17.19 1.215-28.232a140.306 140.306 0 0 1 6.367-50.279c4.564-14.2 11.282-26.222 18.421-32.972 4.548-4.3 9.117-6.329 13.212-5.86a15.891 15.891 0 0 1 7.684 3.562 53.3 53.3 0 0 1 10.141 11.181c10.594 14.828 19.045 35.825 19.584 37.184l12.215 86.221z"/>
    <path data-name="Path 4430" d="M459.628 415.238S483.866 194.564 421.4 81.995a66.491 66.491 0 0 0-58.181-34.1h-197.9s32.546-2.851 41.044 104.42c8.862 111.9-5.811 264.081-5.811 264.081l259.073-1.157z" transform="translate(-20.864 -5.753)" style="fill:#fff"/>
    <path data-name="Path 4431" d="M177.888 412h.693l259.634-1.167.059-.557a1041.623 1041.623 0 0 0 4.313-124.5c-1.018-40.233-4.457-77.031-10.221-109.37-7.214-40.457-18.112-74.016-32.4-99.755a67.1 67.1 0 0 0-58.724-34.42H143.93c-.378-.016-.6 0-.634 0l.053 1.248h.5a13.007 13.007 0 0 1 4.617 1.242c2.837 1.285 7.2 4.184 11.858 10.682 8.291 11.558 19.082 36.889 23.444 91.919 4.575 57.769 2.751 126.465.416 173.924-2.532 51.425-6.19 89.672-6.228 90.05l-.064.689zm259.2-2.411-257.814 1.152c.507-5.388 3.823-41.746 6.169-89.422 2.335-47.491 4.164-116.251-.415-174.084-2.368-29.87-6.83-54.016-13.271-71.781-4.778-13.172-10.547-22.67-17.158-28.24a24.156 24.156 0 0 0-5.839-3.727h192.49a65.857 65.857 0 0 1 57.626 33.777c32.2 58.035 40.863 145.435 42.457 208.535a1046.229 1046.229 0 0 1-4.25 123.789z"/>
    <path data-name="Path 4432" d="M207.43 66.631s9.486 12.716 14.877 37.056a156.857 156.857 0 0 1 3.6 30.354h86.669a119.859 119.859 0 0 0-.7-22.468c-1.7-14.13-6.287-32.2-18.043-45.875l-86.4.933z" transform="translate(-25.414 -7.893)" style="fill:#fff"/>
    <path data-name="Path 4433" d="M266.554 92.816c-6.275.742-11.859-2.856-12.471-8.035s3.98-9.978 10.255-10.72 11.86 2.856 12.472 8.035-3.98 9.978-10.256 10.72z" transform="translate(-31.014 -9.146)" style="fill:#ed1e79"/>
    <path data-name="Path 4434" d="M268.214 105c-23.58-1.056-35.634 22.143-38.714 33.874h85.786c-5.866-10.856-23.492-32.823-47.072-33.874z" transform="translate(-28.091 -12.994)" style="fill:#ed1e79"/>
    <path data-name="Path 4435" d="M199.939 126.718h87.751l.048-.523a121.907 121.907 0 0 0-.7-22.586c-1.6-13.281-6.052-32.076-18.182-46.179l-.171-.2h-.267l-87.522.949.672.9c.1.128 9.474 12.919 14.78 36.838a157.248 157.248 0 0 1 3.588 30.241l.016.555zm86.7-1.141h-85.586a158.6 158.6 0 0 0-3.6-29.906c-4.564-20.592-12.145-33.052-14.358-36.374l85.064-.922c11.809 13.863 16.166 32.311 17.739 45.369a123.983 123.983 0 0 1 .741 21.833z"/>
    <path data-name="Path 4436" d="M203.75 151.585h89.626v1.255H203.75z"/>
    <path data-name="Path 4437" d="M203.75 138.31h89.626v1.258H203.75z"/>
    <path data-name="Path 4438" d="M281.335 57.212h89.617v1.258h-89.617z"/>
    <path data-name="Path 4439" d="M296.672 75.453h89.623v1.258h-89.623z"/>
    <path data-name="Path 4440" d="M203.75 163.696h89.626v1.258H203.75z"/>
    <path data-name="Path 4441" d="M203.75 177.06h89.626v1.258H203.75z"/>
    <path data-name="Path 4442" d="M203.621 202.533h131.531v1.258H203.621z"/>
    <path data-name="Path 4443" d="M203.621 214.654h131.531v1.258H203.621z"/>
    <path data-name="Path 4444" d="M203.621 228.008h131.531v1.263H203.621z"/>
    <path data-name="Path 4445" d="M212.829 253.482H426.56v1.258H212.829z"/>
    <path data-name="Path 4446" d="M212.829 265.596H426.56v1.259H212.829z"/>
    <path data-name="Path 4447" d="M212.829 278.954H426.56v1.258H212.829z"/>
    <path data-name="Path 4448" d="M209.289 304.427H426.56v1.258H209.289z"/>
    <path data-name="Path 4449" d="M209.289 316.544H426.56v1.259H209.289z"/>
    <path data-name="Path 4450" d="M209.289 329.593H426.56v1.258H209.289z"/>
    <path data-name="Path 4451" d="M473.4 411.057H19.908c-6.125 0-12.256.046-18.386 0h-.8c-.957 0-.957-.839 0-.839h453.49c6.125 0 12.255-.046 18.386 0h.8c.958 0 .958.839 0 .839z"/>
    <path data-name="Path 4452" d="M490.353 383.5c2.825 1.343 4.573 3.037 3.811 5.136-2.541 6.994-17.393 47.847-17.393 47.847a7.614 7.614 0 0 1-5.577-4.514c-1.144-2.691-.612-6.521.248-14.555 0 0 .665-15.874-6.54-20.653l6.406-17.623s12.445 1.227 19.038 4.368z" transform="translate(-56.857 -47.127)" style="fill:#fff"/>
    <path data-name="Path 4453" d="m437.821 341.698-17.545 48.257-.435-.061a8.117 8.117 0 0 1-6.008-4.84c-1.113-2.619-.732-6.1.018-13.043.061-.568.127-1.155.194-1.772.019-.593.465-15.675-6.3-20.157l-.356-.236 6.7-18.434.423.042c.515.048 12.62 1.277 19.22 4.417 3.508 1.675 4.888 3.629 4.089 5.819zm-18.258 47.024 17.229-47.4c.568-1.567-.618-3.067-3.534-4.453-5.752-2.735-16.213-4.023-18.439-4.271l-6.116 16.824c7.005 5.148 6.455 20.23 6.431 20.883v.036c-.067.624-.134 1.217-.194 1.791-.732 6.751-1.1 10.138-.1 12.492a7.036 7.036 0 0 0 4.719 4.1z"/>
    <path data-name="Path 4454" d="M491.355 384.1c3.1.454 5.13 1.506 4.368 3.606-2.54 6.994-17.949 49.377-17.949 49.377s-2.571 1-4.289-2.087a1.708 1.708 0 0 1-.121-1.416l17.985-49.48z" transform="translate(-57.862 -47.722)" style="fill:#6c3099"/>
    <path data-name="Path 4455" d="M421.362 459.771c-.3 3.116-1.294 5.335-3.526 5.335h-50.908a7.611 7.611 0 0 1 2.335-6.782c2.142-2 5.923-2.8 13.77-4.736 0 0 15.148-4.8 17.175-13.2h18.754s3.1 12.117 2.4 19.388z" transform="translate(-44.84 -54.486)" style="fill:#fff"/>
    <path data-name="Path 4456" d="M373.001 410.469h-51.349l-.091-.429a8.1 8.1 0 0 1 2.5-7.3c2.081-1.936 5.481-2.777 12.262-4.441.551-.133 1.132-.278 1.73-.423.563-.181 14.888-4.918 16.794-12.8l.1-.417h19.613l.1.411c.128.5 3.109 12.293 2.414 19.577-.376 3.872-1.743 5.832-4.072 5.832zm-50.436-1.095h50.436c1.67 0 2.669-1.628 2.983-4.84.605-6.345-1.761-16.612-2.287-18.784h-17.9c-2.444 8.343-16.806 12.983-17.429 13.177l-.036.011c-.605.151-1.192.29-1.748.429-6.594 1.622-9.9 2.433-11.779 4.175a7 7 0 0 0-2.232 5.832z"/>
    <path data-name="Path 4457" d="M421.283 462.417c.635 3.067.339 5.335-1.893 5.335h-52.54s-1.821-2.075.5-4.742a1.709 1.709 0 0 1 1.289-.593z" transform="translate(-44.761 -57.133)" style="fill:#6c3099"/>
    <path data-name="Path 4458" d="M417.845 101.1c-.732 9-.151 23.092-.151 23.092-1.289 11.537-25.62 4.767-21.8-3.878 3.013-2.649 4.5-7.29 5.22-11.56.182-1.077.321-2.135.418-3.128-.333.055-.665.1-1 .145a8.459 8.459 0 0 1-1.821.036c-10.109-.985-5.167-22.952-5.167-22.952s6.111-9.722 19.159-5.554c5.6 1.791 6.861 6.7 7.8 14.144 0 0 2.093 6.365-2.662 9.655z" transform="translate(-47.91 -9.456)" style="fill:#fff"/>
    <path data-name="Path 4459" d="M369.511 91.642c-.267 3.255-.339 6.528-.363 9.795-.024 3.013.012 6.025.084 9.039.025.992.048 1.984.085 2.976.011.424.06.853.048 1.277a1.322 1.322 0 0 1-.042.321 7.875 7.875 0 0 1-.151.7 5.772 5.772 0 0 1-.212.641l-.055.139c.031-.072-.018.048-.03.073-.048.1-.1.2-.145.3-.1.194-.212.381-.333.562l-.164.236a.469.469 0 0 1-.042.055 2.347 2.347 0 0 1-.115.139 6.234 6.234 0 0 1-.89.86c-.054.042.037-.025-.054.042-.037.03-.079.055-.115.084a7.853 7.853 0 0 1-.811.502 6.322 6.322 0 0 1-.581.278l-.073.03-.139.055c-.1.042-.212.079-.321.115a10.926 10.926 0 0 1-1.307.351 11.639 11.639 0 0 1-1.324.194 16.229 16.229 0 0 1-2.917-.018c-.532-.048-.913-.1-1.439-.194-.5-.084-.992-.194-1.476-.32a16.882 16.882 0 0 1-5.287-2.275c-.187-.127-.375-.253-.557-.387-.042-.03-.078-.06-.121-.091-.067-.048-.018-.011 0 0-.018-.018-.042-.03-.061-.048-.084-.072-.175-.139-.26-.211a9.5 9.5 0 0 1-.907-.866 8.19 8.19 0 0 1-.423-.502c-.025-.037-.055-.073-.079-.109-.054-.078-.114-.164-.163-.248a8.63 8.63 0 0 1-.284-.484c-.037-.073-.079-.151-.109-.223-.006-.018-.061-.145-.042-.092s-.037-.084-.042-.108a3.838 3.838 0 0 1-.164-.515l-.055-.236c-.006-.042-.018-.078-.024-.121s-.025-.182-.012-.067a3.966 3.966 0 0 1 0-1.071c-.012.1 0-.006.006-.042a.952.952 0 0 1 .024-.128c.018-.1.042-.187.067-.284a4.656 4.656 0 0 1 .181-.556.292.292 0 0 1 .025-.067c.024-.048-.061.055 0-.012.036-.036.114-.1.163-.139.158-.151.315-.3.46-.459a10.587 10.587 0 0 0 .823-.98c2.2-2.886 3.231-6.582 3.829-10.115.181-1.077.327-2.16.429-3.243.031-.3-.29-.448-.532-.406a11.809 11.809 0 0 1-2.02.2 6.628 6.628 0 0 1-.78-.042.586.586 0 0 1-.1-.012c-.078-.011.1.012-.03 0a2.803 2.803 0 0 1-.237-.042 5.007 5.007 0 0 1-.786-.205 4.11 4.11 0 0 1-.666-.279 5.133 5.133 0 0 1-.659-.4 3.975 3.975 0 0 1-.521-.436 5.489 5.489 0 0 1-.949-1.155 9.983 9.983 0 0 1-1.264-3.055 19.936 19.936 0 0 1-.562-3.66 41.978 41.978 0 0 1 .236-7.653 56.7 56.7 0 0 1 .762-4.955c.03-.157.073-.315.1-.472.03-.175-.061.054 0-.018.091-.109.17-.242.254-.357a1.677 1.677 0 0 1 .1-.133c.018-.03-.067.079 0 0l.072-.091c.1-.127.206-.248.309-.375a15.4 15.4 0 0 1 5.009-3.866 16.215 16.215 0 0 1 9.71-1.276 14.462 14.462 0 0 1 5.451 1.821 8.546 8.546 0 0 1 2.933 3.291 18.49 18.49 0 0 1 1.6 4.9c.206 1 .37 2.015.515 3.031a12.79 12.79 0 0 0 .26 1.742 10 10 0 0 1 .393 2.765 7.951 7.951 0 0 1-1.108 4.392 6.608 6.608 0 0 1-1.8 1.869c-.442.309-.018 1.041.424.732a7.557 7.557 0 0 0 3.067-4.5 10.891 10.891 0 0 0 .091-4.265 11.163 11.163 0 0 0-.248-1.168c-.018-.067-.042-.127-.061-.194.025.091-.012-.115-.018-.127-.018-.133-.036-.26-.048-.393a40.02 40.02 0 0 0-.133-.956 34.812 34.812 0 0 0-1.231-5.85 12.28 12.28 0 0 0-2.353-4.4 9.483 9.483 0 0 0-4.09-2.65 18.7 18.7 0 0 0-11.519-.4 16.341 16.341 0 0 0-6.594 3.975 14.761 14.761 0 0 0-1.464 1.676 1.877 1.877 0 0 0-.357.593 37.655 37.655 0 0 0-.69 4 49.913 49.913 0 0 0-.514 7.6 19.744 19.744 0 0 0 1.373 7.628 7.619 7.619 0 0 0 1.887 2.686 5.994 5.994 0 0 0 3.031 1.422 10.753 10.753 0 0 0 3.436-.133l-.532-.406a39.233 39.233 0 0 1-1.045 6.048 22.067 22.067 0 0 1-1.978 5.154 12.837 12.837 0 0 1-1.476 2.16 10.548 10.548 0 0 1-.883.913 1.6 1.6 0 0 0-.406.72 4.8 4.8 0 0 0-.187 2.36 6.878 6.878 0 0 0 2.577 3.962 16.126 16.126 0 0 0 5.16 2.759 19.429 19.429 0 0 0 6.1 1.04 11.856 11.856 0 0 0 5.53-1.174 6.629 6.629 0 0 0 3.333-3.974 5.165 5.165 0 0 0 .26-1.712c-.025-.7-.048-1.4-.067-2.1q-.117-4.137-.139-8.276c-.012-3.375.031-6.751.218-10.121.042-.762.091-1.525.151-2.281.042-.545-.8-.538-.847 0z"/>
    <path data-name="Path 4460" d="M360.213 93.533s-4.036 3.606-6.988 5.693c.181-1.077.321-2.135.418-3.128a33.9 33.9 0 0 1-1 .145 8.45 8.45 0 0 1-1.82.036c.1-.266.175-.429.175-.429a26.64 26.64 0 0 0 9.215-2.317z"/>
    <path data-name="Path 4461" d="M355.532 77.378s-14.894-.012-14.869-9.05 12.275-12.6 15.584-4.162c0 0 9.951-2.849 11.2 4.961 0 0 7.078.012 6.612 9.976s-5.59 16.461-6.715 15.251 1.082-7.09-2.2-10.605-5.221 4.458-5.324-.907-2.958-5.342-4.289-5.457z"/>
    <path data-name="Path 4462" d="M355.531 76.95c-.429 0-.859-.024-1.288-.054q-.7-.045-1.4-.127c-.127-.012-.253-.03-.381-.048a2.232 2.232 0 0 1-.211-.03c.1.012-.109-.018-.145-.018a24.395 24.395 0 0 1-.92-.145 23.1 23.1 0 0 1-3.926-1.01 12.713 12.713 0 0 1-3.563-1.906 6.824 6.824 0 0 1-2.287-3.146 7.919 7.919 0 0 1 .042-4.695 8.577 8.577 0 0 1 6.432-5.821 7.309 7.309 0 0 1 4.144.309 6.64 6.64 0 0 1 1.779 1.071 6.924 6.924 0 0 1 1.482 1.8 8.773 8.773 0 0 1 .551 1.125.434.434 0 0 0 .52.3c.315-.091.641-.157.968-.218.164-.03.333-.061.5-.085.091-.012.181-.03.273-.042.024 0 .181-.024.06-.006l.164-.018a16.06 16.06 0 0 1 1.319-.109 10.833 10.833 0 0 1 2.922.248 6.073 6.073 0 0 1 2.674 1.313 5.977 5.977 0 0 1 1.8 3.581.421.421 0 0 0 .406.308 1.3 1.3 0 0 1 .157.006c.061 0 .121.012.182.018.036 0 .072.012.114.012-.145-.018-.024 0 .042.006a6.837 6.837 0 0 1 1.453.405c.03.012.139.061.03.012.036.018.072.03.109.048.072.03.145.067.217.1.158.079.309.157.454.248a5.282 5.282 0 0 1 .459.3c.037.024.073.054.109.079.018.012.036.03.055.042-.012-.012-.067-.048 0 0s.151.121.223.182a6.371 6.371 0 0 1 1.6 2.087c1.294 2.583 1.137 5.777.762 8.59a26.419 26.419 0 0 1-2.68 8.754 18.4 18.4 0 0 1-.859 1.47 9.742 9.742 0 0 1-.8 1.082 6.287 6.287 0 0 1-.78.78c-.078.067.018-.011-.024.018s-.055.042-.085.061c-.054.036-.108.072-.163.1s-.1.054-.158.084.1-.031.006 0c-.025.006-.055.018-.079.024-.078.025-.157.006-.036.018h-.127c.114-.012.066.025-.012-.018.036.018.1.048.036.012s0-.006.031.025l-.042-.042c-.079-.067.018.042-.012-.012l-.055-.091c-.006-.018-.018-.031-.025-.048-.042-.085.025.06 0 .011-.024-.078-.054-.157-.072-.236a1 1 0 0 1-.025-.133.216.216 0 0 0-.011-.067c-.006-.048.006.067 0-.011a28.559 28.559 0 0 1 .024-3.3 12.547 12.547 0 0 0-.532-4.162 6.029 6.029 0 0 0-2.347-3.255 2.335 2.335 0 0 0-2.359-.03 7.72 7.72 0 0 0-1.573 1.3 5.463 5.463 0 0 1-.278.248c-.042.036.091-.054.006 0l-.061.042c-.055.036-.17.067-.036.024-.121.036.048.006 0 .006-.079 0 .108.024.055.006-.079-.018.108.054.036.012-.048-.03.091.079.042.03-.036-.03.061.03.018.024-.006 0-.031-.054-.037-.061-.036-.06.025.1 0 0a4.085 4.085 0 0 1-.1-.436.749.749 0 0 1-.011-.121c0-.048-.012-.1-.012-.151-.012-.151-.018-.3-.025-.448a15.228 15.228 0 0 0-.217-2.408 4.894 4.894 0 0 0-1.525-2.886 4.2 4.2 0 0 0-2.16-.859c-.272-.036-.544-.054-.816-.073-.545-.042-.538.8 0 .847.133.012.273.018.406.03.072 0 .139.012.212.018a.656.656 0 0 1 .108.012c.115.012-.048-.006.042 0a4.544 4.544 0 0 1 1.011.266c-.085-.036.024.012.055.024s.084.042.121.061c.084.042.164.091.242.139.042.024.079.054.121.079l.06.042c-.06-.048-.011-.006 0 0a2.95 2.95 0 0 1 .254.23 3.354 3.354 0 0 1 .732 1.162 7.4 7.4 0 0 1 .454 2.081c.055.665.03 1.337.114 2a1.72 1.72 0 0 0 .345 1 .7.7 0 0 0 .841.121 6.773 6.773 0 0 0 1.319-1.149 5.545 5.545 0 0 1 .23-.193c.037-.03.079-.054.115-.085a4.06 4.06 0 0 1 .442-.266c.03-.018.127-.054.042-.018a.843.843 0 0 1 .115-.042 1.966 1.966 0 0 1 .253-.067.213.213 0 0 0 .061-.012c.061-.012-.078.006-.018 0a.9.9 0 0 0 .127-.012 2.038 2.038 0 0 1 .272.012c-.108-.012.025.006.055.012l.133.036a.855.855 0 0 1 .134.048c.072.03.018.006 0 0 .036.018.072.03.1.048a2.607 2.607 0 0 1 .544.375 5.605 5.605 0 0 1 1.253 1.7 9.539 9.539 0 0 1 .8 4.041c.018 1.2-.114 2.4-.055 3.593.031.635.145 1.615.908 1.791a1.954 1.954 0 0 0 1.591-.69 10.033 10.033 0 0 0 1.712-2.165 24.8 24.8 0 0 0 3.1-8.125 28.751 28.751 0 0 0 .623-5.523 13.813 13.813 0 0 0-.556-4.307 7.68 7.68 0 0 0-3.376-4.44 6.949 6.949 0 0 0-2.964-.932c-.055 0-.1-.006-.158-.006.134.1.273.206.406.309a6.862 6.862 0 0 0-1.681-3.63 6.47 6.47 0 0 0-2.868-1.718 12.9 12.9 0 0 0-5.886-.182 11.4 11.4 0 0 0-1.276.278c.175.1.344.194.52.3a8.1 8.1 0 0 0-3.219-4.011 7.671 7.671 0 0 0-4.41-1.071 9.424 9.424 0 0 0-7.774 5.076 9.306 9.306 0 0 0-.949 5.227 7.245 7.245 0 0 0 1.833 4.029c1.954 2.166 4.925 3.224 7.7 3.823a30.451 30.451 0 0 0 3.684.557 18.56 18.56 0 0 0 1.924.109h.091a.424.424 0 0 0 0-.847z"/>
    <path data-name="Path 4463" d="M412.128 98.141a3.873 3.873 0 0 1-.042-5.777c1.168-1.083 2.83-1.809 4.688-.067 3.533 3.315.914 8.687-2.843 6.975a7.371 7.371 0 0 1-1.8-1.131z" transform="translate(-50.13 -11.275)" style="fill:#fff"/>
    <path data-name="Path 4464" d="M366.959 84.596a6.63 6.63 0 0 0-.369-1.482 2.974 2.974 0 0 0-1.7-1.936 2.408 2.408 0 0 0-1.79.242.42.42 0 1 0 .423.726c.036-.018.072-.03.1-.048.108-.054-.079.024.036-.012.055-.018.109-.042.164-.06a2.088 2.088 0 0 1 .339-.079c-.128.024.03 0 .06 0h.151c.037 0 .194.03.061 0 .048.012.1.018.151.03l.121.036c.109.036-.066-.036.037.012a2.02 2.02 0 0 1 .242.145c.024.012.072.061-.018-.012.018.018.036.03.055.048a1.167 1.167 0 0 1 .091.085 2.769 2.769 0 0 1 .187.206c.073.085-.036-.054.025.036.024.036.055.079.078.115.055.085.1.169.151.254s.078.151.115.23l.055.127c.019.042-.043-.1-.006-.018a.479.479 0 0 1 .03.079 6.793 6.793 0 0 1 .278.913c.025.115.048.23.067.345.012.061.036.248.006.03a.441.441 0 0 0 .423.423c.206 0 .454-.194.423-.423z"/>
    <path data-name="Path 4465" d="m426.16 235.689-2.111 188.482h-39.117l-9.534-191.8z" transform="translate(-45.88 -29.493)" style="fill:#fff"/>
    <path data-name="Path 4466" d="m379.855 206.196-.055 5.039q-.073 6.86-.15 13.714-.119 10.145-.231 20.285l-.278 24.749q-.154 13.558-.3 27.108l-.309 27.363q-.145 12.76-.284 25.511-.118 10.781-.242 21.561-.09 7.75-.175 15.506l-.055 4.822a21.652 21.652 0 0 0-.03 2.516 2.9 2.9 0 0 1 0 .315l.423-.424H339.05l.424.424-.254-5.154q-.344-6.979-.7-13.957-.508-10.317-1.022-20.629l-1.252-25.251q-.681-13.73-1.367-27.465-.689-13.957-1.385-27.913l-1.289-25.935-1.089-21.924q-.389-7.9-.786-15.807l-.242-4.882a22.719 22.719 0 0 0-.128-2.559 2.837 2.837 0 0 1-.018-.326l-.424.423 17.193 1.125q13.648.89 27.289 1.784 3.14.208 6.279.412c.545.036.538-.811 0-.847l-17.192-1.125q-13.648-.888-27.29-1.784c-2.093-.139-4.186-.272-6.28-.412a.429.429 0 0 0-.423.424l.254 5.154q.344 6.978.7 13.956.508 10.318 1.022 20.629l1.253 25.252q.68 13.73 1.367 27.465.689 13.955 1.385 27.912l1.289 25.935 1.088 21.924.787 15.807c.121 2.48.224 4.961.37 7.441l.018.327a.429.429 0 0 0 .423.423h39.117a.433.433 0 0 0 .423-.423l.055-5.04.151-13.714q.117-10.145.23-20.284l.279-24.749.3-27.108.309-27.363q.145-12.758.284-25.511.119-10.78.242-21.561.091-7.75.176-15.506c.03-2.443.1-4.894.084-7.338v-.314a.424.424 0 0 0-.847 0z"/>
    <path data-name="Path 4467" d="m373.509 232.132-13.551 85.481a23.7 23.7 0 0 0 10.472 23.57l80.411 52.365 19.728-34.482L397.974 315l20.81-47.259c4.9-13.9 7.484-26.813 4.477-37.351l-49.752 1.742z" transform="translate(-44.213 -29.255)" style="fill:#fff"/>
    <path data-name="Path 4468" d="M328.884 202.762q-.843 5.344-1.694 10.689l-3.89 24.513q-2.178 13.722-4.35 27.442l-3.1 19.54a634.62 634.62 0 0 0-.52 3.273 24.321 24.321 0 0 0 4.458 18.24c3.061 4.1 7.363 6.575 11.555 9.31q8.993 5.853 17.985 11.713l23.467 15.281 21.325 13.884 11.73 7.641c.182.121.37.242.551.362a.429.429 0 0 0 .575-.151q3.339-5.835 6.679-11.676l10.6-18.53 2.444-4.271a.429.429 0 0 0-.151-.575q-3.629-2.2-7.266-4.41-8.647-5.254-17.3-10.5-10.491-6.371-20.98-12.735l-18.131-11q-2.976-1.805-5.953-3.617c-.617-.376-1.24-.751-1.856-1.125a5.035 5.035 0 0 0-.974-.593.532.532 0 0 1-.128-.079c.048.194.1.388.151.575l3.315-7.526q3.629-8.239 7.253-16.479l7.151-16.232c1.192-2.71 2.541-5.4 3.509-8.2 3.587-10.388 6.715-21.87 4.9-32.935a34.256 34.256 0 0 0-.792-3.57.427.427 0 0 0-.406-.308q-8.431.29-16.861.587-13.376.471-26.757.937-3.067.11-6.134.212c-.545.018-.545.865 0 .847q8.431-.3 16.861-.587 13.375-.473 26.757-.938 3.067-.11 6.134-.212c-.133-.1-.272-.205-.406-.308 3 10.689.333 22.262-2.946 32.565a56.051 56.051 0 0 1-2.015 5.65l-2.051 4.664-6.873 15.614q-3.674 8.349-7.35 16.691c-1.313 2.977-2.758 5.935-3.943 8.96-.018.048-.043.091-.061.139a.435.435 0 0 0 .151.575q3.629 2.2 7.265 4.41 8.649 5.254 17.3 10.5 10.49 6.371 20.98 12.735l18.131 11q2.976 1.805 5.952 3.617c.618.376 1.241.751 1.857 1.125a5.034 5.034 0 0 0 .974.593.6.6 0 0 1 .128.078 26.62 26.62 0 0 0-.151-.575q-3.34 5.835-6.679 11.676l-10.595 18.535c-.817 1.422-1.628 2.849-2.444 4.271.194-.048.387-.1.575-.151l-8.221-5.354q-9.764-6.361-19.534-12.716-11.724-7.64-23.454-15.275-10.046-6.542-20.088-13.075c-3.025-1.973-6.056-3.927-9.075-5.911a23.5 23.5 0 0 1-10.209-15.289 26.236 26.236 0 0 1 .084-9.044q1.288-8.1 2.571-16.207 2.1-13.221 4.192-26.449 2.06-13.013 4.126-26.019 1.18-7.45 2.366-14.906l.109-.69c.084-.532-.732-.762-.817-.223z"/>
    <path data-name="Path 4469" d="M415.312 125.306s19.474 49.541 11.785 106.1h-58.724s-2.838-82.935 24.707-106.661c6.183 4.6 12.244 2.474 22.232.562z" transform="translate(-45.029 -15.551)" style="fill:#6c3099"/>
    <path data-name="Path 4470" d="M344.412 164.881a21.782 21.782 0 0 1-7.945 1.839c-22.85.642-24.785-35.924-40.28-54.208-2.138-2.525-4.065-4.742-5.341-4.6-2.138.229-2.4-1.786.185-2.789 0 0-3.4 1.179-3.783.088-.466-1.311 3.942-2.851 3.942-2.851s-4.434 1.769-4.118.088 4.267-2.569 4.267-2.569-7.963.959-8.341-.546c-.308-1.223 6-1.672 11.552-1.346a15.512 15.512 0 0 1 8.974 3.467 54.98 54.98 0 0 1 9.414 10.532s13.444 20.325 23.844 37.9l32.766-17.157a11.839 11.839 0 0 1 12.617.9c2.833 2.156 5.068 5.376 3.6 9.934a11.628 11.628 0 0 1-6.74 7.048l-34.631 14.271z" transform="translate(-34.668 -12.154)" style="stroke-linecap:round;stroke-linejoin:round;stroke:#000;fill:#fff"/>
    <path data-name="Path 4471" d="M355.07 117.258a1.7 1.7 0 0 1 .188.066c.072.025.145.055.217.085l.133.054c.025.012.048.018.073.031.072.03-.109-.048.012 0a13.76 13.76 0 0 1 1.706.889 10.788 10.788 0 0 1 3.92 4.024 9.3 9.3 0 0 1 1.047 3.381 12.741 12.741 0 0 1-.382 4.537 19.06 19.06 0 0 1-.543 1.748c-.018.048-.037.1-.061.151-.012.031-.025.055-.036.084.03-.066 0 0-.012.031a9.741 9.741 0 0 1-.629 1.191c-.121.2-.254.393-.387.581-.067.1-.134.188-.206.279s-.091.121-.187.242a15.151 15.151 0 0 1-1.016 1.131 26.06 26.06 0 0 1-5.469 4.078 59.2 59.2 0 0 1-7.005 3.454c-2.474 1.04-4.991 1.954-7.538 2.794q-3.458 1.144-6.982 2.1-2.65.726-5.318 1.355c-.877.206-1.748.406-2.632.587-.036.006-.078.018-.114.025.158.066.32.127.478.194-.423-.938-.841-1.881-1.264-2.819q-1.515-3.385-3.031-6.763l-3.648-8.155q-1.578-3.521-3.152-7.041l-1.035-2.311c-.164-.369-.309-.756-.5-1.113a.191.191 0 0 0-.024-.048l-.254.623a224.3 224.3 0 0 1 2.88-.72q3.585-.88 7.174-1.7c3.079-.7 6.165-1.367 9.262-1.978 3.05-.6 6.111-1.156 9.189-1.573a36.111 36.111 0 0 1 6.873-.46q.3.018.6.055a.428.428 0 0 0 .423-.423.436.436 0 0 0-.423-.423 16.848 16.848 0 0 0-2.819-.048 51.258 51.258 0 0 0-3.732.339c-3.056.375-6.092.9-9.117 1.482a311.154 311.154 0 0 0-9.4 1.973q-3.793.853-7.575 1.778c-1.168.284-2.359.532-3.508.877a.145.145 0 0 0-.049.012.433.433 0 0 0-.253.623c.423.938.84 1.882 1.264 2.819q1.515 3.385 3.03 6.763l3.649 8.155q1.578 3.521 3.152 7.041l1.035 2.311c.163.369.314.75.5 1.113a.18.18 0 0 0 .025.048.429.429 0 0 0 .478.194c.623-.127 1.246-.267 1.87-.406q2.45-.562 4.875-1.2a147.165 147.165 0 0 0 6.794-1.966c2.565-.81 5.106-1.7 7.6-2.7a67.525 67.525 0 0 0 7.38-3.412 32.337 32.337 0 0 0 6.014-4.09 12.909 12.909 0 0 0 3.6-4.8 13.15 13.15 0 0 0 .508-8.863 10.987 10.987 0 0 0-3.865-5.173 13.006 13.006 0 0 0-3.388-1.851c-.061-.025-.121-.042-.187-.067-.52-.163-.744.654-.223.816z"/>
    <path data-name="Path 4472" d="M398.533 133.219s10.859 3.376 6.745 15.13-37.961 18.579-37.961 18.579l-12.65-28.246s28.343-7.32 36.086-6.395" transform="translate(-43.348 -16.368)" style="fill:#6c3099"/>
    <g data-name="Group 2" transform="translate(146.964 246.488)" style="clip-path:url(#ab7jg455aa)">
        <path data-name="Path 4473" d="m174.42 323.919-.01-4.287 27.239 13.378 34.923-29.323 1.564 6.636a3.152 3.152 0 0 1-.767 2.881l-32.805 34.9a6.311 6.311 0 0 1-9.084.15l-18.823-18.914a7.7 7.7 0 0 1-2.238-5.417z" transform="translate(-168.285 -284.12)" style="fill:#ed1e79"/>
        <g data-name="Group 1" style="opacity:.3">
            <path data-name="Path 4474" d="m174.42 323.919-.01-4.287 27.239 13.378 34.923-29.323 1.564 6.636a3.152 3.152 0 0 1-.767 2.881l-32.805 34.9a6.311 6.311 0 0 1-9.084.15l-18.823-18.914a7.7 7.7 0 0 1-2.238-5.417z" transform="translate(-168.285 -284.12)" style="opacity:.3"/>
        </g>
        <path data-name="Path 4475" d="m174.982 316.707 6.1-6.307a2.346 2.346 0 0 1 3.233-.145l14.478 12.614a2.347 2.347 0 0 0 3.272-.186L226.8 295.8a2.352 2.352 0 0 1 3.439-.033l5.612 5.931a2.384 2.384 0 0 1 0 3.27l-32.049 34.1a5.7 5.7 0 0 1-8.037.288l-20.694-19.248a2.388 2.388 0 0 1-.085-3.4z" transform="translate(-168.273 -283.081)" style="fill:#ed1e79"/>
    </g>
    <circle data-name="Ellipse 1" cx="24.636" cy="24.636" r="24.636" transform="translate(387.895)" style="fill:#6c3099"/>
    <circle data-name="Ellipse 2" cx="8.799" cy="8.799" r="8.799" transform="translate(390.094 36.514)" style="stroke:#fff;fill:#6c3099"/>
    <path data-name="Path 4476" d="M460 20.331h4.463a3.79 3.79 0 0 1 3.891-3.812 3.614 3.614 0 0 1 3.5 2.31 4 4 0 0 1-.313 3.61c-.763 1.245-2.411 2.388-5.427 1.85v10.068h4.418v-5.9a8.622 8.622 0 0 0 6.189-8.42c0-6.817-5.853-8.039-8.353-8.039-1.917 0-8.442.46-8.352 8.342z" transform="translate(-56.268 -1.442)" style="fill:#fff"/>
    <path data-name="Path 4477" d="M471.406 39.767h-4.474v4.182h4.474z" transform="translate(-57.101 -4.778)" style="fill:#fff"/>
    <circle data-name="Ellipse 3" cx="6.599" cy="6.599" r="6.599" transform="translate(377.519 56.311)" style="fill:#6c3099"/>
    <path data-name="Path 4478" d="m283.071 404.8 9.712 34.093c3.4-14.588 9.191-44.681 5.106-48.349-5.106-4.586-8.119 20.934-5.106 27.514s14.817 2.592 13.316 0-16.32-7.676-48.057 6.58-7.208 19.838-3.6 14.255 5.106-30.988 8.711-24.424-7.209 24.424 0 24.424 4.1-16.747 8.209-10.666c5.686 8.534 12.915 6.812 15.819 4.885" transform="translate(-29.593 -48.432)" style="fill:none;stroke:#000"/>
</svg>
