<svg data-name="Group 47564" xmlns="http://www.w3.org/2000/svg" width="183" height="151.491" viewBox="0 0 183 151.491">
    <path data-name="Path 4581" d="M180.975 18.788h-3.729a1.21 1.21 0 0 1-1.172-.911 16.257 16.257 0 0 0-1.189-3.226 1.208 1.208 0 0 1 .227-1.393l2.524-2.524a1.209 1.209 0 0 0 0-1.71l-3.7-3.7a1.21 1.21 0 0 0-1.71 0l-2.219 2.219a1.21 1.21 0 0 1-1.483.177 17.13 17.13 0 0 0-3.489-1.6 1.21 1.21 0 0 1-.833-1.149v-2.95A1.207 1.207 0 0 0 162.993.81h-5.251a1.21 1.21 0 0 0-1.21 1.212v2.639a1.21 1.21 0 0 1-.906 1.171 16.788 16.788 0 0 0-3.844 1.529 1.207 1.207 0 0 1-1.434-.205l-1.831-1.831a1.21 1.21 0 0 0-1.71 0l-3.783 3.783a1.211 1.211 0 0 0 0 1.71l1.84 1.84a1.212 1.212 0 0 1 .209 1.429 18.028 18.028 0 0 0-1.511 3.819 1.213 1.213 0 0 1-1.173.908l-2.637-.007a1.209 1.209 0 0 0-1.213 1.21l.005 5.244a1.208 1.208 0 0 0 1.211 1.208h2.947a1.209 1.209 0 0 1 1.151.835 17.1 17.1 0 0 0 1.6 3.493 1.211 1.211 0 0 1-.179 1.482l-2.248 2.248a1.211 1.211 0 0 0 0 1.71l3.7 3.7a1.21 1.21 0 0 0 1.71 0l2.549-2.549a1.21 1.21 0 0 1 1.395-.226 16.349 16.349 0 0 0 3.225 1.2 1.207 1.207 0 0 1 .91 1.17v3.7a1.209 1.209 0 0 0 1.209 1.208h5.258a1.209 1.209 0 0 0 1.209-1.211l-.007-3.982a1.212 1.212 0 0 1 .842-1.154 16.177 16.177 0 0 0 2.827-1.208 1.211 1.211 0 0 1 1.436.2l2.845 2.845a1.21 1.21 0 0 0 1.71 0l3.782-3.783a1.21 1.21 0 0 0 0-1.71l-2.846-2.846a1.209 1.209 0 0 1-.205-1.435A16.246 16.246 0 0 0 175.8 27.3a1.206 1.206 0 0 1 1.152-.842h4.018a1.211 1.211 0 0 0 1.211-1.209V20a1.211 1.211 0 0 0-1.211-1.209zm-14 10.448a10.181 10.181 0 1 1 0-14.4 10.181 10.181 0 0 1 .005 14.4z" style="fill:#6c3099"/>
    <path data-name="Path 4582" d="M159.78 33.029a10.993 10.993 0 1 1 7.772-3.219 10.916 10.916 0 0 1-7.772 3.219zm0-20.361a9.369 9.369 0 1 0 6.625 2.744 9.305 9.305 0 0 0-6.625-2.744z"/>
    <path data-name="Path 4583" d="M162.992 45.247h-5.258a2.022 2.022 0 0 1-2.019-2.019v-3.7a.4.4 0 0 0-.3-.384 17.184 17.184 0 0 1-3.385-1.257.4.4 0 0 0-.46.073l-2.55 2.549a2.022 2.022 0 0 1-2.858 0l-3.7-3.7a2.021 2.021 0 0 1 0-2.858l2.248-2.248a.4.4 0 0 0 .057-.489 17.878 17.878 0 0 1-1.675-3.66.4.4 0 0 0-.376-.275h-2.947a2.021 2.021 0 0 1-2.021-2.02v-5.244a2.02 2.02 0 0 1 2.021-2.022L142.4 18a.4.4 0 0 0 .386-.3 18.945 18.945 0 0 1 1.579-3.993.4.4 0 0 0-.066-.473l-1.84-1.84a2.023 2.023 0 0 1 0-2.858l3.783-3.783a2.022 2.022 0 0 1 2.858 0l1.831 1.832a.4.4 0 0 0 .47.068 17.586 17.586 0 0 1 4.03-1.6.4.4 0 0 0 .3-.385V2.029A2.022 2.022 0 0 1 157.746 0H163a2.018 2.018 0 0 1 2.02 2.021v2.948a.392.392 0 0 0 .273.377 17.841 17.841 0 0 1 3.656 1.68.4.4 0 0 0 .49-.057l2.219-2.219a2.021 2.021 0 0 1 2.857 0l3.7 3.7a2.023 2.023 0 0 1 0 2.858l-2.524 2.524a.4.4 0 0 0-.073.459 17.214 17.214 0 0 1 1.249 3.387.4.4 0 0 0 .385.3h3.728A2.022 2.022 0 0 1 183 20v5.253a2.018 2.018 0 0 1-2.02 2.021h-4.018a.4.4 0 0 0-.378.278 17.162 17.162 0 0 1-1.281 3 .4.4 0 0 0 .066.472l2.846 2.846a2.021 2.021 0 0 1 0 2.858l-3.783 3.772a2.021 2.021 0 0 1-2.857 0l-2.845-2.845a.4.4 0 0 0-.473-.066 17.106 17.106 0 0 1-2.968 1.268.394.394 0 0 0-.277.379l.006 3.982A2.02 2.02 0 0 1 163 45.247zm-11.148-9.031a2.018 2.018 0 0 1 .9.213 15.533 15.533 0 0 0 3.065 1.137 2.02 2.02 0 0 1 1.52 1.955v3.7a.4.4 0 0 0 .4.4h5.258a.4.4 0 0 0 .4-.4l-.006-3.982a2.014 2.014 0 0 1 1.4-1.927 15.194 15.194 0 0 0 2.686-1.148 2.03 2.03 0 0 1 2.4.343l2.845 2.845a.4.4 0 0 0 .563 0l3.783-3.783a.4.4 0 0 0 0-.562l-2.846-2.846a2.033 2.033 0 0 1-.344-2.4 15.555 15.555 0 0 0 1.16-2.715 2.013 2.013 0 0 1 1.924-1.406h4.018a.4.4 0 0 0 .4-.4V20a.4.4 0 0 0-.117-.282.4.4 0 0 0-.281-.116h-3.728a2.017 2.017 0 0 1-1.957-1.523 15.4 15.4 0 0 0-1.13-3.066 2.02 2.02 0 0 1 .38-2.328l2.524-2.524a.4.4 0 0 0 0-.562l-3.7-3.7a.4.4 0 0 0-.562 0l-2.219 2.218a2.018 2.018 0 0 1-2.475.3 16.232 16.232 0 0 0-3.324-1.527 2.015 2.015 0 0 1-1.391-1.92V2.02a.4.4 0 0 0-.4-.4h-5.252a.4.4 0 0 0-.281.117.391.391 0 0 0-.116.282v2.639a2.019 2.019 0 0 1-1.512 1.957 15.978 15.978 0 0 0-3.657 1.455 2.028 2.028 0 0 1-2.4-.343L147.95 5.9a.4.4 0 0 0-.563 0L143.6 9.679a.4.4 0 0 0 0 .562l1.84 1.84a2.011 2.011 0 0 1 .35 2.385 17.323 17.323 0 0 0-1.442 3.644 2.026 2.026 0 0 1-1.954 1.512h-.006l-2.638-.007a.4.4 0 0 0-.281.116.392.392 0 0 0-.118.282l.005 5.244a.4.4 0 0 0 .4.4h2.948a2.014 2.014 0 0 1 1.921 1.395 16.162 16.162 0 0 0 1.523 3.326 2.019 2.019 0 0 1-.3 2.473l-2.248 2.24a.4.4 0 0 0 0 .562l3.7 3.7a.4.4 0 0 0 .562 0l2.55-2.549a2.016 2.016 0 0 1 1.427-.591z"/>
    <path data-name="Path 4584" d="M5.188 8.879a.808.808 0 0 1-.574-.238L2.772 6.8A.812.812 0 1 1 3.92 5.652L5.188 6.92l3.8-3.8a.812.812 0 0 1 1.148 1.148L5.762 8.643a.808.808 0 0 1-.574.238z" style="fill:#ed1e79"/>
    <path data-name="Path 4585" d="M5.354 12.335a5.354 5.354 0 0 1 0-10.709.812.812 0 1 1 0 1.623A3.731 3.731 0 1 0 9.085 6.98a.812.812 0 1 1 1.623 0 5.36 5.36 0 0 1-5.354 5.354z"/>
    <path data-name="Path 4586" d="M37.691 5.762H14.273a.812.812 0 1 1 0-1.623h23.418a.812.812 0 0 1 0 1.623z"/>
    <path data-name="Path 4587" d="M52.531 10.167H14.273a.812.812 0 1 1 0-1.623h38.258a.812.812 0 0 1 0 1.623z"/>
    <path data-name="Path 4588" d="M5.188 27.553a.808.808 0 0 1-.574-.238l-1.842-1.842a.812.812 0 1 1 1.148-1.148l1.268 1.268 3.8-3.8a.812.812 0 1 1 1.148 1.148l-4.374 4.374a.808.808 0 0 1-.574.238z" style="fill:#ed1e79"/>
    <path data-name="Path 4589" d="M5.354 31.009a5.354 5.354 0 1 1 0-10.708.812.812 0 0 1 0 1.623 3.731 3.731 0 1 0 3.731 3.731.812.812 0 0 1 1.623 0 5.36 5.36 0 0 1-5.354 5.354z"/>
    <path data-name="Path 4590" d="M37.691 24.311H14.273a.812.812 0 1 1 0-1.623h23.418a.812.812 0 0 1 0 1.623z"/>
    <path data-name="Path 4591" d="M52.531 28.717H14.273a.812.812 0 1 1 0-1.623h38.258a.812.812 0 0 1 0 1.623z"/>
    <path data-name="Path 4592" d="M5.188 46.227a.808.808 0 0 1-.574-.238l-1.842-1.841A.812.812 0 0 1 3.92 43l1.268 1.268 3.8-3.8a.812.812 0 0 1 1.148 1.148L5.762 45.99a.808.808 0 0 1-.574.237z" style="fill:#ed1e79"/>
    <path data-name="Path 4593" d="M5.354 49.683a5.354 5.354 0 0 1 0-10.709.812.812 0 0 1 0 1.623 3.731 3.731 0 1 0 3.731 3.731.812.812 0 0 1 1.623 0 5.361 5.361 0 0 1-5.354 5.355z"/>
    <path data-name="Path 4594" d="M37.691 43.093H14.273a.812.812 0 1 1 0-1.623h23.418a.812.812 0 0 1 0 1.623z"/>
    <path data-name="Path 4595" d="M52.531 47.5H14.273a.812.812 0 1 1 0-1.623h38.258a.812.812 0 0 1 0 1.623z"/>
    <path data-name="Path 4596" d="M144.7 122.971H37.576a.812.812 0 1 1 0-1.623H144.7a.812.812 0 1 1 0 1.623z"/>
    <path data-name="Path 4597" d="M78.732 151.027a.811.811 0 0 1-.812-.812v-16.694a.812.812 0 1 1 1.623 0v16.694a.811.811 0 0 1-.811.812z"/>
    <path data-name="Path 4598" d="M103.542 151.027a.811.811 0 0 1-.812-.812v-16.694a.811.811 0 1 1 1.623 0v16.694a.811.811 0 0 1-.811.812z"/>
    <path data-name="Path 4599" d="M114.44 151.491H67.95a.812.812 0 0 1 0-1.624h46.49a.812.812 0 0 1 0 1.624z"/>
    <path data-name="Path 4600" d="M91.137 130.534A2.867 2.867 0 1 1 94 127.667a2.871 2.871 0 0 1-2.863 2.867zm0-4.112a1.244 1.244 0 1 0 1.244 1.244 1.247 1.247 0 0 0-1.244-1.244z"/>
    <path data-name="Path 4601" d="M140.487 134.005H41.776a5.037 5.037 0 0 1-5.032-5.031V63.606a5.037 5.037 0 0 1 5.032-5.032h98.711a5.037 5.037 0 0 1 5.032 5.032v65.368a5.037 5.037 0 0 1-5.032 5.031zM41.776 60.2a3.412 3.412 0 0 0-3.409 3.4v65.368a3.412 3.412 0 0 0 3.409 3.408h98.711a3.412 3.412 0 0 0 3.409-3.408V63.606a3.413 3.413 0 0 0-3.409-3.409H41.776z"/>
    <path data-name="Path 4602" d="M161.1 53.932a.869.869 0 0 1-.869-.869v-1.507a.869.869 0 1 1 1.739 0v1.507a.87.87 0 0 1-.87.869z"/>
    <path data-name="Path 4603" d="M161.1 91.031a.869.869 0 0 1-.869-.869V87.5a.869.869 0 1 1 1.739 0v2.666a.87.87 0 0 1-.87.865zm0-7.42a.869.869 0 0 1-.869-.869v-2.667a.869.869 0 1 1 1.739 0v2.666a.87.87 0 0 1-.87.87zm0-7.42a.869.869 0 0 1-.869-.869v-2.666a.869.869 0 1 1 1.739 0v2.666a.87.87 0 0 1-.87.87zm0-7.42a.869.869 0 0 1-.869-.869v-2.666a.869.869 0 1 1 1.739 0V67.9a.87.87 0 0 1-.87.872zm0-7.42a.869.869 0 0 1-.869-.869v-2.666a.869.869 0 1 1 1.739 0v2.666a.87.87 0 0 1-.87.87z"/>
    <path data-name="Path 4604" d="M161.1 97.233h-1.449a.869.869 0 0 1 0-1.739h.58v-.58a.869.869 0 1 1 1.739 0v1.449a.87.87 0 0 1-.87.87z"/>
    <path data-name="Path 4605" d="M155.48 97.233h-2.319a.869.869 0 0 1 0-1.739h2.319a.869.869 0 0 1 0 1.739z"/>
    <path data-name="Path 4606" d="M148.987 97.233H147.6a.869.869 0 0 1 0-1.739h1.391a.869.869 0 1 1 0 1.739z"/>
    <path data-name="Path 4607" d="M5.288 57.41a.87.87 0 0 1-.87-.869v-1.507a.87.87 0 0 1 1.739 0v1.507a.87.87 0 0 1-.869.869z"/>
    <path data-name="Path 4608" d="M5.288 90.683a.87.87 0 0 1-.87-.869V86.8a.87.87 0 0 1 1.739 0v3.014a.87.87 0 0 1-.869.869zm0-8.347a.87.87 0 0 1-.87-.869v-3.015a.87.87 0 0 1 1.739 0v3.014a.87.87 0 0 1-.869.87zm0-8.347a.87.87 0 0 1-.87-.869v-3.015a.87.87 0 0 1 1.739 0v3.014a.87.87 0 0 1-.869.87zm0-8.347a.87.87 0 0 1-.87-.869v-3.015a.87.87 0 0 1 1.739 0v3.014a.87.87 0 0 1-.869.87z"/>
    <path data-name="Path 4609" d="M6.737 97.234H5.288a.87.87 0 0 1-.87-.869v-1.45a.87.87 0 0 1 1.739 0v.58h.58a.869.869 0 1 1 0 1.739z"/>
    <path data-name="Path 4610" d="M24.127 97.234H21a.869.869 0 1 1 0-1.739h3.13a.869.869 0 1 1 0 1.739zm-8.7 0H12.3a.869.869 0 1 1 0-1.739h3.13a.869.869 0 1 1 0 1.739z"/>
    <path data-name="Path 4611" d="M31.083 97.234h-1.507a.869.869 0 1 1 0-1.739h1.507a.869.869 0 1 1 0 1.739z"/>
    <path data-name="Path 4612" d="M172.58 103.9a.871.871 0 0 1-.87-.87v-5.217a.869.869 0 1 1 1.739 0v5.217a.87.87 0 0 1-.869.87z"/>
    <path data-name="Path 4613" d="M175.3 101.407h-5.217a.869.869 0 0 1 0-1.739h5.217a.869.869 0 1 1 0 1.739z"/>
    <path data-name="Path 4614" d="M147.422 145.4a.87.87 0 0 1-.869-.87v-5.217a.87.87 0 0 1 1.739 0v5.217a.871.871 0 0 1-.87.87z"/>
    <path data-name="Path 4615" d="M150.147 142.911h-5.217a.869.869 0 1 1 0-1.739h5.217a.869.869 0 0 1 0 1.739z"/>
    <path data-name="Path 4616" d="M20.707 115.841a.87.87 0 0 1-.869-.87v-5.217a.87.87 0 0 1 1.739 0v5.217a.87.87 0 0 1-.87.87z"/>
    <path data-name="Path 4617" d="M23.431 113.348h-5.217a.869.869 0 1 1 0-1.739h5.217a.869.869 0 1 1 0 1.739z"/>
    <path data-name="Path 4618" d="M123.424 45.7a.869.869 0 0 1-.869-.869v-5.216a.869.869 0 1 1 1.739 0v5.217a.87.87 0 0 1-.87.868z"/>
    <path data-name="Path 4619" d="M126.149 43.208h-5.217a.869.869 0 1 1 0-1.739h5.217a.869.869 0 0 1 0 1.739z"/>
    <path data-name="Path 4620" d="M74.268 20.659a.87.87 0 0 1-.869-.87v-5.216a.869.869 0 1 1 1.739 0v5.217a.87.87 0 0 1-.87.869z"/>
    <path data-name="Path 4621" d="M76.993 18.167h-5.217a.87.87 0 1 1 0-1.739h5.217a.87.87 0 0 1 0 1.739z"/>
    <path data-name="Path 4622" d="M40.184 149.925a.869.869 0 0 1-.869-.869v-5.217a.87.87 0 1 1 1.739 0v5.217a.869.869 0 0 1-.87.869z"/>
    <path data-name="Path 4623" d="M42.908 147.433h-5.217a.869.869 0 1 1 0-1.739h5.217a.869.869 0 1 1 0 1.739z"/>
    <path data-name="Path 4624" d="M174.368 149.11a1.159 1.159 0 0 1 2.317-.063 1.132 1.132 0 0 1-1.13 1.168h-.029a1.136 1.136 0 0 1-1.158-1.1zm-3.434-.641a1.158 1.158 0 1 1 .8.325 1.16 1.16 0 0 1-.8-.325zm7.508-.177a1.161 1.161 0 1 1 .794.314 1.16 1.16 0 0 1-.794-.314zm-9.477-4.348a1.16 1.16 0 1 1 1.174 1.17h-.014a1.183 1.183 0 0 1-1.16-1.171zm10.538-.277a1.148 1.148 0 1 1 2.295-.068 1.112 1.112 0 0 1-1.093 1.167h-.044a1.144 1.144 0 0 1-1.157-1.1zm-8.672-2.706a1.159 1.159 0 1 1 .814.335 1.159 1.159 0 0 1-.814-.335zm7.34-.153a1.16 1.16 0 1 1 .783.305 1.158 1.158 0 0 1-.783-.305zm-3.935-2.238a1.159 1.159 0 1 1 1.159 1.159 1.158 1.158 0 0 1-1.159-1.159z"/>
    <path data-name="Path 4625" d="M5.452 149.11a1.159 1.159 0 0 1 2.318-.063 1.133 1.133 0 0 1-1.13 1.168h-.03a1.137 1.137 0 0 1-1.158-1.1zm-3.433-.641a1.159 1.159 0 1 1 .8.325 1.159 1.159 0 0 1-.8-.325zm7.507-.177a1.161 1.161 0 1 1 .794.314 1.16 1.16 0 0 1-.794-.314zm-9.475-4.348a1.17 1.17 0 0 1 1.149-1.186 1.178 1.178 0 0 1 .029 2.356h-.02a1.181 1.181 0 0 1-1.158-1.171zm10.536-.26a1.159 1.159 0 1 1 1.2 1.115h-.044a1.159 1.159 0 0 1-1.157-1.116zm-8.673-2.724a1.161 1.161 0 1 1 .815.335 1.16 1.16 0 0 1-.815-.335zm7.341-.153a1.159 1.159 0 1 1 .784.3 1.16 1.16 0 0 1-.784-.3zM5.32 138.57a1.159 1.159 0 1 1 1.159 1.158 1.16 1.16 0 0 1-1.159-1.158z"/>
    <path data-name="Path 4626" d="M108.4 14.627a1.16 1.16 0 0 1 2.318-.064 1.133 1.133 0 0 1-1.13 1.169h-.029a1.138 1.138 0 0 1-1.159-1.105zm-3.434-.641a1.16 1.16 0 1 1 .805.325 1.161 1.161 0 0 1-.805-.325zm7.508-.177a1.161 1.161 0 1 1 .794.314 1.161 1.161 0 0 1-.794-.314zM103 9.461a1.159 1.159 0 1 1 1.172 1.17h-.014A1.181 1.181 0 0 1 103 9.46zm10.536-.277a1.159 1.159 0 0 1 2.316-.09 1.133 1.133 0 0 1-1.115 1.189h-.043a1.145 1.145 0 0 1-1.158-1.1zm-8.672-2.706a1.16 1.16 0 1 1 .814.335 1.16 1.16 0 0 1-.814-.335zm7.34-.153a1.158 1.158 0 1 1 .783.3 1.16 1.16 0 0 1-.783-.3zm-3.935-2.239a1.16 1.16 0 1 1 1.16 1.159 1.16 1.16 0 0 1-1.16-1.158z"/>
    <path data-name="Path 4627" d="M92.171 48.48a1.159 1.159 0 0 1 2.318-.064 1.134 1.134 0 0 1-1.13 1.17h-.029a1.137 1.137 0 0 1-1.158-1.1zm-3.433-.634a1.16 1.16 0 1 1 .8.322 1.088 1.088 0 0 1-.8-.321zm7.507-.184a1.161 1.161 0 1 1 .794.314 1.161 1.161 0 0 1-.795-.315zm-9.476-4.347a1.16 1.16 0 1 1 1.174 1.17h-.015a1.182 1.182 0 0 1-1.159-1.171zm10.537-.277a1.159 1.159 0 0 1 2.316-.09 1.134 1.134 0 0 1-1.115 1.19h-.043a1.145 1.145 0 0 1-1.158-1.1zm-8.673-2.706a1.16 1.16 0 1 1 .815.335 1.16 1.16 0 0 1-.815-.335zm7.341-.153a1.158 1.158 0 1 1 .784.3 1.159 1.159 0 0 1-.785-.301zm-3.935-2.239A1.159 1.159 0 1 1 93.2 39.1a1.159 1.159 0 0 1-1.162-1.161z"/>
    <path data-name="Path 4628" d="M59.1 72.321h-6.674v6.158H59.1z" style="fill:#ed1e79"/>
    <path data-name="Path 4629" d="M66.3 84.856H52.774c-.192 0-.348-.229-.348-.513s.156-.513.348-.513H66.3c.192 0 .348.229.348.513s-.156.513-.348.513z"/>
    <path data-name="Path 4630" d="M79.886 108.9h-6.9c-.1 0-.178-.23-.178-.514s.079-.513.178-.513h6.9c.1 0 .178.23.178.513s-.08.514-.178.514z"/>
    <path data-name="Path 4631" d="M79.64 73.347H63.186a.523.523 0 0 1 0-1.026H79.64a.523.523 0 0 1 0 1.026z"/>
    <path data-name="Path 4632" d="M73.918 77.306H63.042c-.155 0-.28-.229-.28-.513s.125-.513.28-.513h10.876c.155 0 .28.229.28.513s-.125.513-.28.513z"/>
    <path data-name="Path 4633" d="M66.3 90.868H52.774c-.192 0-.348-.229-.348-.513s.156-.513.348-.513H66.3c.192 0 .348.229.348.513s-.156.513-.348.513z"/>
    <path data-name="Path 4634" d="M79.387 96.879H53.1a.533.533 0 1 1 0-1.026h26.287a.533.533 0 1 1 0 1.026z"/>
    <path data-name="Path 4635" d="M79.387 102.89H53.1a.533.533 0 1 1 0-1.026h26.287a.533.533 0 1 1 0 1.026z"/>
    <path data-name="Rectangle 18" transform="translate(48.527 69.229)" style="fill:none;stroke:#000" d="M0 0h35.434v46.944H0z"/>
    <path data-name="Path 4636" d="M108.78 72.321h-6.671v6.158h6.671z" style="fill:#ed1e79"/>
    <path data-name="Path 4637" d="M115.983 84.856h-13.526c-.192 0-.348-.229-.348-.513s.156-.513.348-.513h13.526c.192 0 .348.229.348.513s-.156.513-.348.513z"/>
    <path data-name="Path 4638" d="M129.569 108.9h-6.9c-.1 0-.177-.23-.177-.514s.079-.513.177-.513h6.9c.1 0 .177.23.177.513s-.079.514-.177.514z"/>
    <path data-name="Path 4639" d="M129.323 73.347h-16.454a.523.523 0 0 1 0-1.026h16.454a.523.523 0 0 1 0 1.026z"/>
    <path data-name="Path 4640" d="M123.6 77.306h-10.875c-.155 0-.28-.229-.28-.513s.125-.513.28-.513H123.6c.154 0 .279.229.279.513s-.123.513-.279.513z"/>
    <path data-name="Path 4641" d="M115.983 90.868h-13.526c-.192 0-.348-.229-.348-.513s.156-.513.348-.513h13.526c.192 0 .348.229.348.513s-.156.513-.348.513z"/>
    <path data-name="Path 4642" d="M129.07 96.879h-26.285a.533.533 0 1 1 0-1.026h26.285a.533.533 0 1 1 0 1.026z"/>
    <path data-name="Path 4643" d="M129.07 102.89h-26.285a.533.533 0 1 1 0-1.026h26.285a.533.533 0 1 1 0 1.026z"/>
    <path data-name="Rectangle 19" transform="translate(98.21 69.229)" style="fill:none;stroke:#000" d="M0 0h35.434v46.944H0z"/>
</svg>
