<svg id="Group_47572" data-name="Group 47572" xmlns="http://www.w3.org/2000/svg" width="108.402" height="28.677" viewBox="0 0 108.402 28.677">
  <path id="Path_4970" data-name="Path 4970" d="M12.189,20.949a3.625,3.625,0,1,0-3.647-3.625A3.636,3.636,0,0,0,12.189,20.949Z" fill="#ed1e79"/>
  <path id="Path_4971" data-name="Path 4971" d="M25.387,20.223a2.746,2.746,0,1,0-2.763-2.746A2.754,2.754,0,0,0,25.387,20.223Z" fill="#ed1e79"/>
  <path id="Path_4972" data-name="Path 4972" d="M27.268,7.937a8.526,8.526,0,0,0-7.224,3.987,10.323,10.323,0,1,0-3.693,12.051l2.715,4.267a.932.932,0,0,0,.792.435h.037a.938.938,0,0,0,.794-.494l2.355-4.406a8.495,8.495,0,1,0,4.224-15.84ZM2.13,15.577a8.232,8.232,0,1,1,8.231,8.183A8.219,8.219,0,0,1,2.13,15.577ZM19.788,25.888,17.794,22.75a10.273,10.273,0,0,0,1.834-2.577,8.527,8.527,0,0,0,1.886,2.489Zm7.479-3.107a6.364,6.364,0,1,1,6.405-6.364A6.388,6.388,0,0,1,27.268,22.781Z" fill="#ed1e79"/>
  <path id="Path_4973" data-name="Path 4973" d="M19.906,6.948c-2.73-3.225-6.946-4.364-8.865-4.693-.636-.113-.983-.137-.984-.137h0A1.067,1.067,0,0,1,9.071.98,1.068,1.068,0,0,1,10.217,0,18.32,18.32,0,0,1,20.874,4.868a15.535,15.535,0,0,1,7.11-2.475,1.059,1.059,0,1,1,.124,2.114A13.566,13.566,0,0,0,21.886,6.74c-.347.226-.512.355-.517.355a1.068,1.068,0,0,1-1.463-.148Z" fill="#ed1e79"/>
  <path id="Path_4974" data-name="Path 4974" d="M42.221,16.581A8.134,8.134,0,0,1,50.609,8.2a7.246,7.246,0,0,1,6.184,3.208l-1.686.948A5.5,5.5,0,0,0,50.609,10a6.228,6.228,0,0,0-6.284,6.585,6.255,6.255,0,0,0,6.284,6.585,5.56,5.56,0,0,0,4.5-2.357l1.711.923a7.349,7.349,0,0,1-6.209,3.233A8.132,8.132,0,0,1,42.221,16.581Z" fill="#662d91"/>
  <path id="Path_4975" data-name="Path 4975" d="M63.321,24.675,56.744,8.465h2.321l5.5,14,5.5-14h2.322l-6.551,16.21Z" fill="#662d91"/>
  <path id="Path_4976" data-name="Path 4976" d="M73.222,16.581c0-4.69,3.008-8.384,7.751-8.384,4.719,0,7.75,3.694,7.75,8.384s-3.032,8.385-7.75,8.385C76.231,24.967,73.222,21.271,73.222,16.581Zm14.647,0c0-4.447-2.716-7.655-6.9-7.655-4.23,0-6.9,3.208-6.9,7.655,0,4.4,2.666,7.656,6.9,7.656C85.154,24.237,87.869,20.981,87.869,16.581Z" fill="#662d91"/>
  <path id="Path_4977" data-name="Path 4977" d="M101.511,24.675l-3.57-10.646L94.371,24.675h-.586L89.873,12.937h.808L94.1,23.532l3.545-10.595h.587l3.546,10.595L105.2,12.937h.805L102.1,24.675Z" fill="#662d91"/>
  <path id="Path_4978" data-name="Path 4978" d="M107.673,24.675V8.465h.73v16.21Z" fill="#662d91"/>
</svg>
