<svg xmlns="http://www.w3.org/2000/svg" width="28.719" height="28.72" viewBox="0 0 28.719 28.72">
  <path id="insta" d="M3.445,0a3,3,0,0,0-3,3V25.719a3,3,0,0,0,3,3H26.164a3,3,0,0,0,3-3V3a3,3,0,0,0-3-3Zm15.55,6.017c-1.085-.049-1.41-.06-4.158-.06s-3.073.01-4.158.06a5.694,5.694,0,0,0-1.91.354A3.407,3.407,0,0,0,6.816,8.324a5.7,5.7,0,0,0-.354,1.911c-.05,1.085-.06,1.41-.06,4.158s.01,3.073.06,4.158a5.691,5.691,0,0,0,.354,1.91,3.406,3.406,0,0,0,1.953,1.953,5.694,5.694,0,0,0,1.91.354c1.085.05,1.41.06,4.158.06s3.073-.01,4.158-.06a5.692,5.692,0,0,0,1.911-.354,3.407,3.407,0,0,0,1.953-1.953,5.69,5.69,0,0,0,.354-1.91c.049-1.085.06-1.41.06-4.158s-.01-3.073-.06-4.158a5.691,5.691,0,0,0-.354-1.911,3.407,3.407,0,0,0-1.953-1.953A5.7,5.7,0,0,0,18.994,6.017Zm-8.4-1.852c1.1-.05,1.448-.062,4.242-.062s3.145.012,4.242.062a7.553,7.553,0,0,1,2.5.478,5.261,5.261,0,0,1,3.009,3.009,7.551,7.551,0,0,1,.478,2.5c.05,1.1.062,1.448.062,4.242s-.012,3.145-.062,4.242a7.551,7.551,0,0,1-.478,2.5,5.26,5.26,0,0,1-3.009,3.009,7.55,7.55,0,0,1-2.5.478c-1.1.05-1.448.062-4.242.062s-3.145-.012-4.242-.062a7.551,7.551,0,0,1-2.5-.478,5.26,5.26,0,0,1-3.009-3.009,7.551,7.551,0,0,1-.478-2.5c-.05-1.1-.062-1.448-.062-4.242s.012-3.145.062-4.242a7.551,7.551,0,0,1,.478-2.5A5.261,5.261,0,0,1,8.1,4.643,7.553,7.553,0,0,1,10.595,4.165ZM9.553,14.392a5.284,5.284,0,1,1,5.284,5.283A5.284,5.284,0,0,1,9.553,14.392Zm1.854,0a3.43,3.43,0,1,0,3.43-3.43A3.43,3.43,0,0,0,11.407,14.392Zm8.922-4.258A1.235,1.235,0,1,0,19.094,8.9,1.235,1.235,0,0,0,20.329,10.134Z" transform="translate(-0.445)" fill="#6c3099" fill-rule="evenodd"/>
</svg>
