<svg xmlns="http://www.w3.org/2000/svg" width="28.754" height="28.754" viewBox="0 0 28.754 28.754">
  <path id="linkedin" d="M27.6,0H2.952A2.063,2.063,0,0,0,.9,2.073V26.681a2.063,2.063,0,0,0,2.047,2.073H27.6a2.068,2.068,0,0,0,2.054-2.073V2.073A2.068,2.068,0,0,0,27.6,0ZM9.595,24.646H5.333V10.924H9.6V24.646ZM7.464,9.05A2.471,2.471,0,1,1,9.935,6.579,2.472,2.472,0,0,1,7.464,9.05Zm18.106,15.6H21.308V17.971c0-1.592-.032-3.639-2.214-3.639-2.221,0-2.561,1.733-2.561,3.524v6.791H12.271V10.924h4.088V12.8h.058a4.489,4.489,0,0,1,4.037-2.214c4.313,0,5.115,2.843,5.115,6.54Z" transform="translate(-0.904)" fill="#6c3099"/>
</svg>
