<svg xmlns="http://www.w3.org/2000/svg" width="28.754" height="28.754" viewBox="0 0 28.754 28.754">
  <path id="pin" d="M29,3.081V25.673a3.082,3.082,0,0,1-3.081,3.081H10.156a16.445,16.445,0,0,0,1.759-3.806c.193-.738.982-3.748.982-3.748a4.214,4.214,0,0,0,3.613,1.81c4.756,0,8.177-4.371,8.177-9.8,0-5.205-4.249-9.1-9.717-9.1-6.8,0-10.41,4.563-10.41,9.538,0,2.311,1.232,5.186,3.2,6.1.3.141.456.077.526-.212.051-.218.321-1.29.436-1.784a.465.465,0,0,0-.109-.449,6.144,6.144,0,0,1-1.175-3.594,6.822,6.822,0,0,1,7.118-6.842,6.224,6.224,0,0,1,6.585,6.412c0,4.262-2.15,7.214-4.955,7.214a2.292,2.292,0,0,1-2.336-2.85c.443-1.874,1.3-3.9,1.3-5.25,0-3.4-4.846-2.933-4.846,1.6a5.759,5.759,0,0,0,.468,2.343c-2.015,8.523-2.317,8.633-1.9,12.361l.141.051H3.327A3.082,3.082,0,0,1,.246,25.673V3.081A3.082,3.082,0,0,1,3.327,0H25.919A3.082,3.082,0,0,1,29,3.081Z" transform="translate(-0.246)" fill="#6c3099"/>
</svg>
