<svg data-name="Group 47566" xmlns="http://www.w3.org/2000/svg" width="175.479" height="144.145" viewBox="0 0 175.479 144.145">
    <path data-name="Path 4680" d="M33.462 36.894v19.734h26.6V36.894z" style="fill:#ed1e79"/>
    <path data-name="Path 4681" d="M150.18 19.046a7.264 7.264 0 1 0 7.266 7.264 7.264 7.264 0 0 0-7.266-7.264zm0 10.814a3.545 3.545 0 1 1 3.546-3.545 3.546 3.546 0 0 1-3.546 3.545z" style="fill:#6c3099"/>
    <path data-name="Path 4682" d="M.858 140.831c0 1.356.684 2.456 1.528 2.456h30.406c.844 0 1.528-1.1 1.528-2.456v-6.124H.858z" style="fill:#ed1e79"/>
    <path data-name="Path 4683" d="M144.8 114.868H54.549a.773.773 0 1 1 0-1.546H144.8a2.727 2.727 0 0 0 2.665-2.778V50.593a.773.773 0 1 1 1.546 0v59.951a4.274 4.274 0 0 1-4.211 4.324z"/>
    <path data-name="Path 4684" d="M25.714 90.571a.773.773 0 0 1-.773-.773V21.431a4.256 4.256 0 0 1 4.309-4.19h96.45a.773.773 0 1 1 0 1.546H29.249a2.708 2.708 0 0 0-2.762 2.644V89.8a.773.773 0 0 1-.773.771z"/>
    <path data-name="Path 4685" d="M124.924 29.72H26.377a.773.773 0 1 1 0-1.546h98.547a.773.773 0 1 1 0 1.546z"/>
    <path data-name="Path 4686" d="M50.24 28.837a.773.773 0 0 1-.773-.773v-9.388a.773.773 0 0 1 1.547 0v9.387a.773.773 0 0 1-.774.774z"/>
    <path data-name="Path 4687" d="M36.293 25.995a2.711 2.711 0 1 1 2.712-2.711 2.714 2.714 0 0 1-2.712 2.711zm0-3.876a1.165 1.165 0 1 0 1.166 1.165 1.166 1.166 0 0 0-1.166-1.166z"/>
    <path data-name="Path 4688" d="M44.091 25.995a2.711 2.711 0 1 1 2.709-2.711 2.714 2.714 0 0 1-2.709 2.711zm0-3.876a1.165 1.165 0 1 0 1.166 1.165 1.166 1.166 0 0 0-1.166-1.166z"/>
    <path data-name="Path 4689" d="M115.091 22.321H54.549a.773.773 0 1 1 0-1.546h60.542a.773.773 0 1 1 0 1.546z"/>
    <path data-name="Path 4690" d="M87.03 26.076H54.549a.773.773 0 1 1 0-1.546H87.03a.773.773 0 1 1 0 1.546z"/>
    <path data-name="Path 4691" d="M139.507 105.149H53.555a.773.773 0 1 1 0-1.546h85.952a.773.773 0 1 1 0 1.546z"/>
    <path data-name="Path 4692" d="M139.507 95.1H54.328a.773.773 0 1 1 0-1.546h85.179a.773.773 0 1 1 0 1.546z"/>
    <path data-name="Path 4693" d="M109.087 40.072H65.872c-.217 0-.392-.447-.392-1s.175-1 .392-1h43.215c.217 0 .392.447.392 1s-.179 1-.392 1z"/>
    <path data-name="Path 4694" d="M94.12 49.764H65.468c-.144 0-.26-.384-.26-.858s.116-.858.26-.858H94.12c.144 0 .26.384.26.858s-.116.858-.26.858z"/>
    <path data-name="Path 4695" d="M127.851 66.066h-93.54a.858.858 0 0 1 0-1.716h93.54a.858.858 0 0 1 0 1.716z"/>
    <path data-name="Path 4696" d="M127.851 74.646h-93.54a.858.858 0 0 1 0-1.716h93.54a.858.858 0 0 1 0 1.716z"/>
    <path data-name="Path 4697" d="M127.851 83.226h-93.54a.858.858 0 0 1 0-1.716h93.54a.858.858 0 0 1 0 1.716z"/>
    <path data-name="Path 4698" d="M51.817 144.145H2.535A2.538 2.538 0 0 1 0 141.61V92.347a2.538 2.538 0 0 1 2.535-2.535h49.282a2.538 2.538 0 0 1 2.536 2.535v49.263a2.538 2.538 0 0 1-2.536 2.535zM2.535 91.36a.99.99 0 0 0-.989.988v49.263a.99.99 0 0 0 .989.989h49.282a.99.99 0 0 0 .989-.989V92.348a.99.99 0 0 0-.989-.988z"/>
    <path data-name="Path 4699" d="M53.555 135.74H.856a.773.773 0 1 1 0-1.546h52.7a.773.773 0 1 1 0 1.546z"/>
    <path data-name="Path 4700" d="M150.179 37.206c-4.809 0-9.834-1.836-14.532-5.308a33.053 33.053 0 0 1-5.7-5.293.774.774 0 0 1 .027-1 36.759 36.759 0 0 1 5.917-5.081c3.342-2.327 8.534-5.1 14.289-5.1 6.122 0 11.3 2.777 14.56 5.107a32.023 32.023 0 0 1 5.668 5.1.775.775 0 0 1-.011 1 37.277 37.277 0 0 1-5.915 5.278c-3.346 2.413-8.54 5.297-14.303 5.297zm-18.588-11.059a33.767 33.767 0 0 0 5.009 4.533c3.083 2.272 7.94 4.98 13.579 4.98 5.336 0 10.213-2.712 13.365-4.987a37.991 37.991 0 0 0 5.225-4.56 32.665 32.665 0 0 0-4.964-4.35c-3.073-2.187-7.93-4.793-13.626-4.793-5.342 0-10.221 2.612-13.374 4.8a37.71 37.71 0 0 0-5.214 4.375z"/>
    <path data-name="Path 4701" d="M150.179 34.346a8.037 8.037 0 1 1 8.04-8.037 8.047 8.047 0 0 1-8.04 8.037zm0-14.528a6.49 6.49 0 1 0 6.493 6.49 6.5 6.5 0 0 0-6.493-6.49z"/>
    <path data-name="Path 4702" d="M150.179 30.632a4.318 4.318 0 1 1 4.32-4.318 4.324 4.324 0 0 1-4.32 4.318zm0-7.091a2.772 2.772 0 1 0 2.773 2.772 2.776 2.776 0 0 0-2.773-2.772z"/>
    <path data-name="Path 4703" d="M167.245 43.674a.773.773 0 0 1-.538-1.329 23.652 23.652 0 0 0 5.284-7.637.773.773 0 0 1 1.42.613 25.2 25.2 0 0 1-5.628 8.133.768.768 0 0 1-.538.218z"/>
    <path data-name="Path 4704" d="M150.18 50.581a25.289 25.289 0 0 1-17.89-43.174 25.3 25.3 0 0 1 43.189 17.883.773.773 0 1 1-1.546 0 23.753 23.753 0 1 0-23.753 23.745 23.532 23.532 0 0 0 10.405-2.393.773.773 0 1 1 .678 1.389 25.067 25.067 0 0 1-11.083 2.55z"/>
    <path data-name="Path 4705" d="M9.806 86.264a.773.773 0 0 1-.773-.773v-1.325a.773.773 0 0 1 1.547 0v1.325a.773.773 0 0 1-.774.773z"/>
    <path data-name="Path 4706" d="M9.806 79.859a.773.773 0 0 1-.773-.773v-2.761a.773.773 0 0 1 1.547 0v2.761a.773.773 0 0 1-.774.773zm0-7.731a.773.773 0 0 1-.773-.773v-2.761a.773.773 0 0 1 1.547 0v2.761a.773.773 0 0 1-.774.773zm0-7.731a.773.773 0 0 1-.773-.773v-2.76a.773.773 0 0 1 1.547 0v2.761a.773.773 0 0 1-.774.775zm0-7.731a.773.773 0 0 1-.773-.773v-2.76a.773.773 0 0 1 1.547 0v2.761a.773.773 0 0 1-.774.773zm0-7.731a.773.773 0 0 1-.773-.773V45.4a.773.773 0 0 1 1.547 0v2.761a.773.773 0 0 1-.774.775zm0-7.731a.773.773 0 0 1-.773-.773v-2.759a.773.773 0 0 1 1.547 0v2.761a.773.773 0 0 1-.774.773zm0-7.731a.773.773 0 0 1-.773-.773v-2.759a.773.773 0 0 1 1.547 0V32.7a.773.773 0 0 1-.774.775zm0-7.731a.773.773 0 0 1-.773-.773V22.21a.773.773 0 0 1 1.547 0v2.761a.773.773 0 0 1-.774.773zm0-7.731a.773.773 0 0 1-.773-.773V14.48a.773.773 0 0 1 1.547 0v2.761a.773.773 0 0 1-.774.773z"/>
    <path data-name="Path 4707" d="M9.805 10.062a.773.773 0 0 1-.773-.773V7.853a.773.773 0 0 1 .773-.773h1.326a.773.773 0 1 1 0 1.546h-.552v.663a.773.773 0 0 1-.774.773z"/>
    <path data-name="Path 4708" d="M119.4 8.626h-2.762a.773.773 0 0 1 0-1.546h2.762a.773.773 0 0 1 0 1.546zm-7.734 0H108.9a.773.773 0 0 1 0-1.546h2.762a.773.773 0 1 1 0 1.546zm-7.733 0h-2.762a.773.773 0 1 1 0-1.546h2.762a.773.773 0 0 1 0 1.546zm-7.734 0h-2.761a.773.773 0 1 1 0-1.546H96.2a.773.773 0 1 1 0 1.546zm-7.734 0H85.7a.773.773 0 1 1 0-1.546h2.762a.773.773 0 1 1 0 1.546zm-7.733 0h-2.761a.773.773 0 1 1 0-1.546h2.762a.773.773 0 1 1 0 1.546zm-7.732 0h-2.762a.773.773 0 1 1 0-1.546H73a.773.773 0 1 1 0 1.546zm-7.734 0H62.5a.773.773 0 1 1 0-1.546h2.762a.773.773 0 1 1 0 1.546zm-7.733 0h-2.762a.773.773 0 1 1 0-1.546h2.762a.773.773 0 1 1 0 1.546zm-7.734 0h-2.762a.773.773 0 1 1 0-1.546H49.8a.773.773 0 1 1 0 1.546zm-7.734 0H39.3a.773.773 0 1 1 0-1.546h2.762a.773.773 0 1 1 0 1.546zm-7.733 0H31.57a.773.773 0 1 1 0-1.546h2.762a.773.773 0 1 1 0 1.546zm-7.734 0h-2.761a.773.773 0 1 1 0-1.546H26.6a.773.773 0 1 1 0 1.546zm-7.734 0H16.1a.773.773 0 1 1 0-1.546h2.762a.773.773 0 1 1 0 1.546z"/>
    <path data-name="Path 4709" d="M125.7 8.626h-1.436a.773.773 0 1 1 0-1.546h1.436a.773.773 0 0 1 0 1.546z"/>
    <path data-name="Path 4710" d="M63.829 135.74H62.5a.773.773 0 1 1 0-1.546h1.326a.773.773 0 1 1 0 1.546z"/>
    <path data-name="Path 4711" d="M164.365 135.74H161.6a.773.773 0 0 1 0-1.546h2.762a.773.773 0 0 1 0 1.546zm-7.733 0h-2.762a.773.773 0 1 1 0-1.546h2.762a.773.773 0 0 1 0 1.546zm-7.734 0h-2.762a.773.773 0 0 1 0-1.546h2.764a.773.773 0 1 1 0 1.546zm-7.734 0H138.4a.773.773 0 1 1 0-1.546h2.761a.773.773 0 1 1 0 1.546zm-7.733 0h-2.762a.773.773 0 1 1 0-1.546h2.762a.773.773 0 0 1 0 1.546zm-7.734 0h-2.762a.773.773 0 0 1 0-1.546h2.765a.773.773 0 1 1 0 1.546zm-7.733 0H115.2a.773.773 0 1 1 0-1.546h2.762a.773.773 0 1 1 0 1.546zm-7.734 0h-2.762a.773.773 0 1 1 0-1.546h2.762a.773.773 0 1 1 0 1.546zm-7.733 0h-2.762a.773.773 0 1 1 0-1.546h2.765a.773.773 0 0 1 0 1.546zm-7.734 0H92a.773.773 0 1 1 0-1.546h2.762a.773.773 0 1 1 0 1.546zm-7.734 0h-2.761a.773.773 0 1 1 0-1.546h2.762a.773.773 0 1 1 0 1.546zm-7.733 0h-2.762a.773.773 0 1 1 0-1.546H79.3a.773.773 0 1 1 0 1.546zm-7.734 0H68.8a.773.773 0 1 1 0-1.546h2.762a.773.773 0 1 1 0 1.546z"/>
    <path data-name="Path 4712" d="M169.778 135.74h-1.436a.773.773 0 0 1 0-1.546h.663v-.552a.773.773 0 0 1 1.547 0v1.325a.772.772 0 0 1-.774.773z"/>
    <path data-name="Path 4713" d="M169.778 129.445a.772.772 0 0 1-.773-.773v-2.761a.773.773 0 0 1 1.547 0v2.761a.772.772 0 0 1-.774.773zm0-7.62a.772.772 0 0 1-.773-.773v-2.761a.773.773 0 0 1 1.547 0v2.761a.772.772 0 0 1-.774.773zm0-7.62a.773.773 0 0 1-.773-.773v-2.761a.773.773 0 0 1 1.547 0v2.761a.773.773 0 0 1-.774.773zm0-7.62a.773.773 0 0 1-.773-.773v-2.761a.773.773 0 0 1 1.547 0v2.761a.773.773 0 0 1-.774.773zm0-7.62a.773.773 0 0 1-.773-.773v-2.761a.773.773 0 0 1 1.547 0v2.761a.773.773 0 0 1-.774.773zm0-7.62a.773.773 0 0 1-.773-.773V87.81a.773.773 0 0 1 1.547 0v2.761a.773.773 0 0 1-.774.773zm0-7.62a.773.773 0 0 1-.773-.773V80.19a.773.773 0 0 1 1.547 0v2.761a.773.773 0 0 1-.774.773z"/>
    <path data-name="Path 4714" d="M169.778 76.325a.773.773 0 0 1-.773-.773v-.663h-.663a.773.773 0 0 1 0-1.546h1.436a.773.773 0 0 1 .774.773v1.436a.773.773 0 0 1-.774.773z"/>
    <path data-name="Path 4715" d="M163.261 74.889h-2.873a.773.773 0 0 1 0-1.546h2.873a.773.773 0 0 1 0 1.546z"/>
    <path data-name="Path 4716" d="M155.085 74.889h-1.326a.773.773 0 0 1 0-1.546h1.326a.773.773 0 0 1 0 1.546z"/>
    <path data-name="Path 4717" d="m13.728 113.686 7.722 7.722c9.549-9.215 9.756-9.233 19.305-18.448" style="fill:none;stroke:#6c3099;stroke-linecap:round;stroke-width:6px"/>
</svg>
