<svg data-name="Group 47568" xmlns="http://www.w3.org/2000/svg" width="182.387" height="148.521" viewBox="0 0 182.387 148.521">
    <path data-name="Path 4762" d="M167.77 143.251a15.206 15.206 0 1 0-21.513 0 15.192 15.192 0 0 0 21.513 0z" style="fill:#6c3099"/>
    <path data-name="Path 4763" d="M175.273 17.6H76.362v19.814h98.911z" style="fill:#ed1e79"/>
    <path data-name="Path 4764" d="M177.913 92.312H73.778a4.7 4.7 0 0 1-4.648-4.619V4.364A4.474 4.474 0 0 1 73.7 0h104.289a4.309 4.309 0 0 1 4.4 4.311v83.438a4.524 4.524 0 0 1-4.475 4.563zM73.7 1.632a2.841 2.841 0 0 0-2.934 2.732v83.329a3.08 3.08 0 0 0 3.015 2.987h104.133a2.891 2.891 0 0 0 2.843-2.931V4.311a2.664 2.664 0 0 0-2.766-2.68z"/>
    <path data-name="Path 4765" d="M168.858 11.889H70.763a.816.816 0 1 1 0-1.632h98.095a.816.816 0 1 1 0 1.632z"/>
    <path data-name="Path 4766" d="M91.058 11.073a.816.816 0 0 1-.816-.816V1.4a.817.817 0 0 1 1.633 0v8.858a.816.816 0 0 1-.817.815z"/>
    <path data-name="Path 4767" d="M76.889 8.375a2.646 2.646 0 1 1 2.648-2.646 2.649 2.649 0 0 1-2.648 2.646zm0-3.661A1.014 1.014 0 1 0 77.9 5.728a1.015 1.015 0 0 0-1.011-1.014z"/>
    <path data-name="Path 4768" d="M84.256 8.375A2.646 2.646 0 1 1 86.9 5.729a2.649 2.649 0 0 1-2.644 2.646zm0-3.661a1.014 1.014 0 1 0 1.015 1.014 1.015 1.015 0 0 0-1.015-1.014z"/>
    <path data-name="Path 4769" d="M152.294 4.9H95.141a.816.816 0 1 1 0-1.632h57.153a.816.816 0 1 1 0 1.632z"/>
    <path data-name="Path 4770" d="M125.817 8.509H95.141a.816.816 0 1 1 0-1.632h30.676a.816.816 0 1 1 0 1.632z"/>
    <path data-name="Path 4771" d="M180.871 11.889h-4.9a.816.816 0 1 1 0-1.632h4.9a.816.816 0 1 1 0 1.632z"/>
    <path data-name="Path 4772" d="M176.089 37.414a.815.815 0 0 1-.816.816H76.362a.816.816 0 0 1-.816-.816V17.6a.816.816 0 0 1 .816-.816h98.911a.815.815 0 0 1 .816.816v19.814zM77.178 36.6h97.278V18.416H77.178V36.6z"/>
    <path data-name="Path 4773" d="M175.389 83.1H76.362a.816.816 0 1 1 0-1.632h99.027a.816.816 0 1 1 0 1.632z"/>
    <path data-name="Path 4774" d="M92.342 61.308a.816.816 0 0 1-.816.816H76.362a.816.816 0 0 1-.816-.816V46.156a.816.816 0 0 1 .816-.816h15.163a.816.816 0 0 1 .816.816zm-15.163-.816h13.53v-13.52H77.178z"/>
    <path data-name="Path 4775" d="M120.219 61.308a.816.816 0 0 1-.817.816h-15.163a.816.816 0 0 1-.817-.816V46.156a.816.816 0 0 1 .817-.816H119.4a.816.816 0 0 1 .817.816zm-15.164-.816h13.531v-13.52h-13.531z"/>
    <path data-name="Path 4776" d="M148.1 61.308a.815.815 0 0 1-.816.816h-15.168a.816.816 0 0 1-.817-.816V46.156a.816.816 0 0 1 .817-.816h15.163a.815.815 0 0 1 .816.816zm-15.163-.816h13.531v-13.52h-13.536z"/>
    <path data-name="Path 4777" d="M176.089 61.308a.815.815 0 0 1-.816.816h-15.28a.816.816 0 0 1-.817-.816V46.156a.816.816 0 0 1 .817-.816h15.28a.815.815 0 0 1 .816.816zm-15.28-.816h13.647v-13.52h-13.647z"/>
    <path data-name="Path 4778" d="M175.389 73.663H76.362a.816.816 0 1 1 0-1.632h99.027a.816.816 0 1 1 0 1.632z"/>
    <path data-name="Path 4779" d="M11.158 147.434a4.391 4.391 0 0 1-3.124-1.292L5.1 143.213a4.413 4.413 0 0 1 0-6.243l9.7-9.688a4.42 4.42 0 0 1 6.247 0l2.931 2.929a4.413 4.413 0 0 1 0 6.243l-9.7 9.688a4.391 4.391 0 0 1-3.12 1.292zm6.764-19.814a2.765 2.765 0 0 0-1.969.815l-9.7 9.688a2.782 2.782 0 0 0 0 3.935l2.931 2.929a2.789 2.789 0 0 0 3.938 0l9.7-9.688a2.784 2.784 0 0 0 0-3.935l-2.931-2.929a2.765 2.765 0 0 0-1.969-.815z" style="fill:#6c3099"/>
    <path data-name="Path 4780" d="M32.537 126.072a4.391 4.391 0 0 1-3.124-1.292l-2.931-2.929a4.417 4.417 0 0 1 0-6.243l9.7-9.688a4.423 4.423 0 0 1 6.247 0l2.931 2.929a4.413 4.413 0 0 1 0 6.243l-9.7 9.688a4.391 4.391 0 0 1-3.124 1.292zm6.763-19.813a2.779 2.779 0 0 0-1.969.814l-9.7 9.688a2.784 2.784 0 0 0 0 3.935l2.931 2.929a2.788 2.788 0 0 0 3.938 0l9.7-9.689a2.78 2.78 0 0 0 0-3.934l-2.931-2.929a2.779 2.779 0 0 0-1.969-.814z" style="fill:#6c3099"/>
    <path data-name="Path 4781" d="M17.818 134.174a.816.816 0 0 1-.577-1.393L32 118.033a.816.816 0 1 1 1.155 1.154L18.4 133.935a.812.812 0 0 1-.577.239z" style="fill:#6c3099"/>
    <path data-name="Path 4782" d="M25.229 147.145a21.02 21.02 0 0 1-7.709-1.45.815.815 0 1 1 .6-1.518 19.5 19.5 0 0 0 25.521-24.584.816.816 0 0 1 1.541-.54 21.129 21.129 0 0 1-19.95 28.092z" style="fill:#6c3099"/>
    <path data-name="Path 4783" d="M5.97 133.318a.816.816 0 0 1-.773-.555 21.144 21.144 0 0 1 26.636-26.8.816.816 0 1 1-.511 1.55 19.5 19.5 0 0 0-24.579 24.73.817.817 0 0 1-.773 1.077z" style="fill:#6c3099"/>
    <path data-name="Path 4784" d="M155.589 138.5a.81.81 0 0 1-.577-.239l-4.651-4.512a.816.816 0 0 1 1.155-1.154l4.073 3.935 9.161-9.154a.816.816 0 0 1 1.155 1.154l-9.739 9.731a.81.81 0 0 1-.577.239z" style="fill:#fff"/>
    <path data-name="Path 4785" d="M157.014 148.521a16.017 16.017 0 1 1 16.029-16.021 16.041 16.041 0 0 1-16.029 16.021zm0-30.4a14.386 14.386 0 1 0 14.4 14.385 14.407 14.407 0 0 0-14.4-14.389z"/>
    <path data-name="Path 4786" d="M25.215 101.461a.874.874 0 0 1-.875-.874v-1.4a.875.875 0 0 1 1.75 0v1.4a.874.874 0 0 1-.875.874z"/>
    <path data-name="Path 4787" d="M25.215 95.051a.875.875 0 0 1-.875-.874v-2.8a.875.875 0 0 1 1.75 0v2.8a.875.875 0 0 1-.875.874zm0-7.693a.875.875 0 0 1-.875-.874v-2.8a.875.875 0 0 1 1.75 0v2.8a.875.875 0 0 1-.875.874zm0-7.693a.875.875 0 0 1-.875-.874v-2.8a.875.875 0 0 1 1.75 0v2.8a.875.875 0 0 1-.875.874zm0-7.693a.875.875 0 0 1-.875-.874V68.3a.875.875 0 0 1 1.75 0v2.8a.875.875 0 0 1-.875.873zm0-7.693a.875.875 0 0 1-.875-.874v-2.8a.875.875 0 0 1 1.75 0v2.8a.875.875 0 0 1-.875.875zm0-7.693a.875.875 0 0 1-.875-.874v-2.8a.875.875 0 0 1 1.75 0v2.8a.875.875 0 0 1-.875.876zm0-7.693a.875.875 0 0 1-.875-.874v-2.8a.875.875 0 0 1 1.75 0v2.8a.875.875 0 0 1-.875.876z"/>
    <path data-name="Path 4788" d="M25.215 41.319a.875.875 0 0 1-.875-.874v-1.457a.875.875 0 0 1 .875-.874h1.458a.874.874 0 1 1 0 1.748h-.583v.583a.875.875 0 0 1-.875.874z"/>
    <path data-name="Path 4789" d="M57 39.862h-2.683a.874.874 0 1 1 0-1.748H57a.874.874 0 1 1 0 1.748zm-7.582 0h-2.683a.874.874 0 1 1 0-1.748h2.683a.874.874 0 1 1 0 1.748zm-7.582 0h-2.682a.874.874 0 1 1 0-1.748h2.683a.874.874 0 1 1 0 1.748zm-7.582 0h-2.682a.874.874 0 1 1 0-1.748h2.683a.874.874 0 1 1 0 1.748z"/>
    <path data-name="Path 4790" d="M63.3 39.862h-1.518a.874.874 0 1 1 0-1.748H63.3a.874.874 0 1 1 0 1.748z"/>
    <path data-name="Path 4791" d="M57.816 133.456h-1.4a.874.874 0 1 1 0-1.748h1.4a.874.874 0 1 1 0 1.748z"/>
    <path data-name="Path 4792" d="M124.068 133.456h-2.916a.874.874 0 1 1 0-1.748h2.916a.874.874 0 1 1 0 1.748zm-8.282 0h-2.916a.874.874 0 1 1 0-1.748h2.916a.874.874 0 1 1 0 1.748zm-8.281 0h-2.916a.874.874 0 1 1 0-1.748h2.911a.874.874 0 1 1 0 1.748zm-8.282 0h-2.916a.874.874 0 1 1 0-1.748h2.916a.874.874 0 1 1 0 1.748zm-8.281 0h-2.916a.874.874 0 1 1 0-1.748h2.916a.874.874 0 1 1 0 1.748zm-8.282 0h-2.916a.874.874 0 1 1 0-1.748h2.916a.874.874 0 1 1 0 1.748zm-8.281 0h-2.916a.874.874 0 1 1 0-1.748h2.916a.874.874 0 1 1 0 1.748zm-8.282 0h-2.916a.874.874 0 1 1 0-1.748H66.1a.874.874 0 1 1 0 1.748z"/>
    <path data-name="Path 4793" d="M131.3 133.456h-1.516a.874.874 0 1 1 0-1.748h1.516a.874.874 0 1 1 0 1.748z"/>
    <path data-name="Path 4794" d="M156.9 112.3a.874.874 0 0 1-.875-.874v-1.4a.875.875 0 0 1 1.749 0v1.4a.874.874 0 0 1-.874.874z"/>
    <path data-name="Path 4795" d="M156.9 106.473a.874.874 0 0 1-.875-.874v-2.447a.875.875 0 1 1 1.749 0v2.448a.874.874 0 0 1-.874.873z"/>
    <path data-name="Path 4796" d="M156.9 99.83a.875.875 0 0 1-.875-.874V97.44a.875.875 0 0 1 1.749 0v1.515a.874.874 0 0 1-.874.875z"/>
    <path data-name="Path 4797" d="M10.285 8.45a.875.875 0 0 1-.875-.874V2.331a.875.875 0 0 1 1.75 0v5.245a.875.875 0 0 1-.875.874z"/>
    <path data-name="Path 4798" d="M13.026 5.944H7.778a.874.874 0 1 1 0-1.748h5.249a.874.874 0 1 1 0 1.748z"/>
    <path data-name="Path 4799" d="M47.493 64.863a.875.875 0 0 1-.875-.874v-5.245a.875.875 0 0 1 1.75 0v5.245a.875.875 0 0 1-.875.874z"/>
    <path data-name="Path 4800" d="M50.234 62.357h-5.248a.874.874 0 1 1 0-1.748h5.249a.874.874 0 1 1 0 1.748z"/>
    <path data-name="Path 4801" d="M95.083 120.926a.874.874 0 0 1-.875-.874v-5.245a.875.875 0 0 1 1.75 0v5.245a.874.874 0 0 1-.875.874z"/>
    <path data-name="Path 4802" d="M97.824 118.42h-5.249a.874.874 0 1 1 0-1.748h5.249a.874.874 0 1 1 0 1.748z"/>
    <path data-name="Path 4803" d="M51.858 15.557a1.166 1.166 0 0 1 2.332-.064 1.14 1.14 0 0 1-1.137 1.175h-.029a1.144 1.144 0 0 1-1.165-1.111zm-3.458-.645a1.169 1.169 0 1 1 .81.326 1.166 1.166 0 0 1-.81-.326zm7.554-.178a1.168 1.168 0 1 1 .8.316 1.166 1.166 0 0 1-.8-.316zm-9.534-4.371a1.163 1.163 0 0 1 1.134-1.192 1.134 1.134 0 0 1 1.162 1.139 1.18 1.18 0 0 1-1.114 1.23h-.015a1.189 1.189 0 0 1-1.166-1.177zm10.6-.279a1.167 1.167 0 0 1 2.332-.091 1.142 1.142 0 0 1-1.123 1.2h-.039a1.151 1.151 0 0 1-1.165-1.106zm-8.72-2.72a1.166 1.166 0 1 1 .819.337 1.165 1.165 0 0 1-.819-.337zm7.384-.154a1.167 1.167 0 1 1 .788.307 1.164 1.164 0 0 1-.788-.307zm-3.959-2.251a1.166 1.166 0 1 1 1.166 1.166 1.166 1.166 0 0 1-1.166-1.166z"/>
    <path data-name="Path 4804" d="M5.435 76.282a1.166 1.166 0 0 1 2.332-.064 1.14 1.14 0 0 1-1.137 1.175H6.6a1.144 1.144 0 0 1-1.165-1.111zm-3.454-.645a1.167 1.167 0 1 1 .808.326 1.165 1.165 0 0 1-.807-.326zm7.552-.178a1.168 1.168 0 1 1 .8.316 1.166 1.166 0 0 1-.8-.316zM0 71.087a1.178 1.178 0 0 1 1.152-1.192 1.184 1.184 0 0 1 .029 2.368h-.015A1.19 1.19 0 0 1 0 71.086zm10.6-.262a1.166 1.166 0 1 1 1.208 1.121h-.043a1.166 1.166 0 0 1-1.165-1.121zm-8.723-2.738a1.166 1.166 0 1 1 .819.337 1.165 1.165 0 0 1-.819-.337zm7.384-.154a1.167 1.167 0 1 1 .789.307 1.164 1.164 0 0 1-.789-.307zM5.3 65.682a1.166 1.166 0 1 1 1.166 1.166A1.166 1.166 0 0 1 5.3 65.682z"/>
    <path data-name="Path 4805" d="M62.239 105.887a1.166 1.166 0 0 1 2.332-.064A1.14 1.14 0 0 1 63.434 107H63.4a1.143 1.143 0 0 1-1.165-1.111zm-3.454-.645a1.166 1.166 0 1 1 .808.327 1.165 1.165 0 0 1-.808-.327zm7.552-.178a1.168 1.168 0 1 1 .8.316 1.166 1.166 0 0 1-.8-.316zm-9.537-4.371a1.167 1.167 0 1 1 1.181 1.176h-.011a1.189 1.189 0 0 1-1.166-1.177zm10.6-.262a1.166 1.166 0 1 1 1.208 1.121h-.044a1.166 1.166 0 0 1-1.159-1.121zm-8.725-2.738a1.166 1.166 0 1 1 .819.337 1.165 1.165 0 0 1-.819-.337zm7.385-.154a1.167 1.167 0 1 1 .788.307 1.165 1.165 0 0 1-.783-.307zm-3.946-2.251a1.143 1.143 0 0 1 1.186-1.165 1.2 1.2 0 0 1 1.154 1.166 1.167 1.167 0 0 1-2.333 0z"/>
    <path data-name="Path 4806" d="M131.057 112.764a1.167 1.167 0 0 1 2.332-.064 1.141 1.141 0 0 1-1.138 1.175h-.029a1.144 1.144 0 0 1-1.165-1.111zm-3.454-.645a1.167 1.167 0 1 1 .809.327 1.165 1.165 0 0 1-.812-.327zm7.553-.178a1.168 1.168 0 1 1 .8.316 1.167 1.167 0 0 1-.8-.316zm-9.534-4.371a1.163 1.163 0 0 1 1.133-1.192 1.134 1.134 0 0 1 1.162 1.139 1.179 1.179 0 0 1-1.114 1.229h-.015a1.188 1.188 0 0 1-1.166-1.177zm10.6-.262a1.166 1.166 0 1 1 1.208 1.121h-.043a1.166 1.166 0 0 1-1.164-1.121zm-8.722-2.738a1.167 1.167 0 1 1 .819.337 1.165 1.165 0 0 1-.819-.337zm7.385-.154a1.166 1.166 0 1 1 .788.307 1.165 1.165 0 0 1-.788-.307zm-3.959-2.25a1.167 1.167 0 1 1 1.167 1.165 1.166 1.166 0 0 1-1.169-1.165z"/>
</svg>
