<svg xmlns="http://www.w3.org/2000/svg" width="350" height="371.383" viewBox="0 0 350 371.383">
    <g data-name="Group 23" transform="translate(12390.977 13200)">
        <path data-name="Path 4979" d="M329.175 375.322s-77.131-57.462-43.913-81.674c39.757-28.98 60.56 81.7 60.56 81.7l-16.647-.029z" transform="translate(-12390.977 -13204.608)" style="fill:#fff"/>
        <path data-name="Path 4980" d="m201.613 305.841-60.359-.1-.118 68.953 60.359.1z" transform="translate(-12390.977 -13204.608)" style="fill:#ccc"/>
        <path data-name="Path 4981" d="m-12189.377-12890.755-.052 30.236-60.331-16v-1.435z"/>
        <path data-name="Path 4982" d="m33.059 144.537 277.164.476a7.931 7.931 0 0 1 8.161 7.664L318.09 323.6a7.931 7.931 0 0 1-8.187 7.636l-277.164-.477a7.93 7.93 0 0 1-8.16-7.663l.294-170.923a7.93 7.93 0 0 1 8.187-7.636z" transform="translate(-12390.977 -13204.608)" style="fill:#ccc"/>
        <path data-name="Path 4983" d="m-12073.111-13051.928-.291 169.334a11.292 11.292 0 0 1-.394 3.841c-1.138 3.231-4.363 4.895-7.831 4.9l-3.086-.005-265.2-.456c-2.658-.005-5.316 0-7.973-.014-4.36-.029-7.913-3-8-7.182-.013-.694 0-1.393 0-2.091l.288-167.354a9.357 9.357 0 0 1 .782-4.612c1.443-2.748 4.371-4.017 7.507-4.012l273.606.471h2.571c4.378.029 7.909 2.991 8.011 7.178.017.626 1.055.628 1.038 0-.111-4.6-3.969-8.083-8.852-8.155-.782-.01-1.565 0-2.348 0l-265.819-.457c-2.794 0-5.589-.018-8.383-.014a9.1 9.1 0 0 0-8.049 4.173 9.666 9.666 0 0 0-1.1 5.2l-.288 167.839a25.878 25.878 0 0 0 .036 2.59c.425 4.294 4.338 7.354 8.848 7.392 2.494.021 4.988.008 7.477.013l266.266.457 2.821.005a8.968 8.968 0 0 0 8.341-4.82c1.329-2.774.767-6.673.772-9.633l.283-164.589a.521.521 0 0 0-1.037 0z"/>
        <path data-name="Path 4984" d="m301.983 156.618-262.192-.451a7.223 7.223 0 0 0-7.462 6.96l-.258 149.853a7.223 7.223 0 0 0 7.438 6.985l262.192.451a7.223 7.223 0 0 0 7.462-6.96l.258-149.853a7.224 7.224 0 0 0-7.438-6.985z" transform="translate(-12390.977 -13204.608)" style="fill:#fff"/>
        <path data-name="Path 4985" d="m-12082.077-13041.008-.253 147.268c0 .839.011 1.678 0 2.517-.075 3.718-3.161 6.494-7.1 6.538-2.166.026-4.332-.007-6.494-.011l-248.1-.427c-2.371 0-4.747.005-7.118-.012-3.95-.028-7.163-2.712-7.243-6.5-.013-.66 0-1.325 0-1.985l.24-139.737c0-2.692-.05-5.392.014-8.088.088-3.718 3.192-6.494 7.138-6.517h2.207l257.145.442h2.307c3.964.028 7.159 2.7 7.253 6.5.017.626 1.054.628 1.037 0-.106-4.217-3.632-7.4-8.11-7.472-.7-.01-1.4 0-2.1 0l-257.9-.443c-.646 0-1.292-.011-1.934 0-4.451.06-7.983 3.265-8.082 7.452-.059 2.56-.009 5.124-.013 7.684l-.241 140.393c0 .817-.048 1.661.032 2.474.4 3.928 3.98 6.72 8.107 6.761 2.221.021 4.442.008 6.663.011l249.245.429c2.007 0 4.018.041 6.02.01 4.451-.069 7.961-3.283 8.059-7.465.015-.758 0-1.516 0-2.275l.254-147.548a.522.522 0 0 0-1.038 0z"/>
        <path data-name="Path 4986" d="m49.255 373.336-16.155-.027a1.986 1.986 0 0 1-2-2.534l1.336-4.091a2.082 2.082 0 0 1 2-1.385l13.653.024a2.074 2.074 0 0 1 2.018 1.456l1.163 4.1a1.991 1.991 0 0 1-2.025 2.462z" transform="translate(-12390.977 -13204.608)" style="fill:#ccc"/>
        <path data-name="Path 4987" d="m-12341.722-12831.757-16.024-.027a1.587 1.587 0 0 1-1.686-1.247 1.211 1.211 0 0 1-.018-.192 1.759 1.759 0 0 1 .01-.217c-.009.064.009-.051.014-.064.009-.046.023-.093.037-.14 0-.021.014-.043.018-.064.023-.077.05-.149.073-.226.119-.37.242-.74.361-1.111.275-.842.549-1.69.828-2.532a1.75 1.75 0 0 1 .47-.826 1.65 1.65 0 0 1 1.134-.42h1.229l11.3.02h1.079a1.607 1.607 0 0 1 1.341.7 2.783 2.783 0 0 1 .29.772c.253.886.5 1.772.755 2.659l.271.963a2 2 0 0 1 .077.328 1.525 1.525 0 0 1-.138.771 1.6 1.6 0 0 1-1.435.853.486.486 0 1 0 0 .971 2.513 2.513 0 0 0 2.527-3.083c-.2-.733-.416-1.462-.624-2.2-.127-.452-.258-.9-.385-1.355a6.887 6.887 0 0 0-.217-.724 2.585 2.585 0 0 0-1.863-1.558 3.679 3.679 0 0 0-.755-.065l-13.011-.023a3.339 3.339 0 0 0-2.008.465 2.605 2.605 0 0 0-1 1.366l-.316.97-.878 2.7a3.4 3.4 0 0 0-.22 1.018 2.437 2.437 0 0 0 1.121 2.029 3.291 3.291 0 0 0 1.9.442l15.737.027a.486.486 0 1 0 0-.971z"/>
        <path data-name="Path 4988" d="m71.263 373.375-16.151-.028a1.985 1.985 0 0 1-2-2.533l1.336-4.091a2.081 2.081 0 0 1 2-1.385l13.653.023a2.073 2.073 0 0 1 2.018 1.456l1.163 4.1a1.992 1.992 0 0 1-2.025 2.463z" transform="translate(-12390.977 -13204.608)" style="fill:#ccc"/>
        <path data-name="Path 4989" d="m-12319.713-12831.718-16.024-.028a1.587 1.587 0 0 1-1.686-1.247 1.208 1.208 0 0 1-.018-.191 1.767 1.767 0 0 1 .009-.218c-.009.064.009-.051.014-.063.009-.047.023-.094.037-.141 0-.021.014-.042.018-.064.023-.076.05-.149.073-.225.119-.371.243-.741.361-1.111.275-.843.549-1.69.828-2.533a1.754 1.754 0 0 1 .47-.826 1.644 1.644 0 0 1 1.134-.419h1.229l11.3.019h1.079a1.606 1.606 0 0 1 1.341.7 2.776 2.776 0 0 1 .29.771c.253.886.5 1.773.755 2.659l.271.963a2.022 2.022 0 0 1 .077.328 1.523 1.523 0 0 1-.138.771 1.6 1.6 0 0 1-1.435.853.486.486 0 1 0 0 .972 2.514 2.514 0 0 0 2.527-3.084c-.2-.733-.416-1.462-.624-2.2-.127-.451-.258-.9-.384-1.355a6.96 6.96 0 0 0-.217-.724 2.587 2.587 0 0 0-1.863-1.558 3.751 3.751 0 0 0-.755-.065l-13.011-.023a3.332 3.332 0 0 0-2.008.466 2.6 2.6 0 0 0-1 1.365l-.316.971-.878 2.694a3.4 3.4 0 0 0-.22 1.018 2.435 2.435 0 0 0 1.121 2.029 3.291 3.291 0 0 0 1.9.442l15.737.027a.486.486 0 1 0 0-.971z"/>
        <path data-name="Path 4990" d="m93.277 373.413-16.151-.028a1.985 1.985 0 0 1-2-2.533l1.336-4.091a2.081 2.081 0 0 1 2-1.385l13.653.023a2.077 2.077 0 0 1 2.018 1.456l1.162 4.1a1.991 1.991 0 0 1-2.025 2.463z" transform="translate(-12390.977 -13204.608)" style="fill:#ccc"/>
        <path data-name="Path 4991" d="m-12297.699-12831.68-16.024-.028a1.585 1.585 0 0 1-1.686-1.246 1.224 1.224 0 0 1-.018-.192 1.724 1.724 0 0 1 .01-.217c-.009.064.009-.051.014-.064.009-.047.023-.094.037-.141 0-.021.014-.042.018-.063.023-.077.05-.149.073-.226.119-.37.243-.741.361-1.111.274-.843.549-1.69.828-2.533a1.746 1.746 0 0 1 .47-.825 1.645 1.645 0 0 1 1.134-.42h1.229l11.3.019h1.079a1.608 1.608 0 0 1 1.341.7 2.773 2.773 0 0 1 .29.771c.253.887.5 1.773.756 2.659l.271.963a2.069 2.069 0 0 1 .077.328 1.52 1.52 0 0 1-.138.771 1.6 1.6 0 0 1-1.435.854.486.486 0 1 0 0 .971 2.514 2.514 0 0 0 2.527-3.084c-.2-.733-.416-1.461-.624-2.194-.127-.452-.258-.9-.384-1.355a7 7 0 0 0-.217-.725 2.589 2.589 0 0 0-1.863-1.558 3.826 3.826 0 0 0-.755-.065l-13.011-.017a3.325 3.325 0 0 0-2.008.465 2.6 2.6 0 0 0-1 1.365l-.316.971-.878 2.694a3.407 3.407 0 0 0-.22 1.018 2.435 2.435 0 0 0 1.121 2.029 3.284 3.284 0 0 0 1.9.442l15.737.027a.486.486 0 1 0 0-.971z"/>
        <path data-name="Path 4992" d="m217.536 373.626-16.151-.027a1.986 1.986 0 0 1-2-2.534l1.335-4.091a2.084 2.084 0 0 1 2.005-1.385l13.653.024a2.07 2.07 0 0 1 2.018 1.456l1.163 4.1a1.991 1.991 0 0 1-2.025 2.462z" transform="translate(-12390.977 -13204.608)" style="fill:#ccc"/>
        <path data-name="Path 4993" d="m-12173.441-12831.467-16.024-.027a1.587 1.587 0 0 1-1.686-1.247 1.285 1.285 0 0 1-.018-.192 1.584 1.584 0 0 1 .01-.217c-.01.064.009-.051.013-.064.01-.046.023-.093.037-.14.005-.021.014-.043.018-.064.023-.077.051-.149.074-.226.119-.37.242-.74.361-1.111.275-.842.549-1.69.828-2.532a1.758 1.758 0 0 1 .47-.826 1.651 1.651 0 0 1 1.134-.42h1.229l11.3.019h1.079a1.606 1.606 0 0 1 1.341.7 2.773 2.773 0 0 1 .29.772c.254.886.5 1.772.756 2.659l.271.963a2.032 2.032 0 0 1 .077.328 1.517 1.517 0 0 1-.138.771 1.6 1.6 0 0 1-1.435.853.486.486 0 1 0 0 .971 2.513 2.513 0 0 0 2.527-3.083c-.2-.733-.416-1.462-.624-2.195-.127-.451-.258-.9-.385-1.355a7.053 7.053 0 0 0-.217-.724 2.585 2.585 0 0 0-1.863-1.558 3.69 3.69 0 0 0-.756-.065l-13.011-.023a3.337 3.337 0 0 0-2.007.465 2.6 2.6 0 0 0-1 1.366l-.316.97-.878 2.7a3.391 3.391 0 0 0-.22 1.018 2.436 2.436 0 0 0 1.12 2.029 3.293 3.293 0 0 0 1.9.442l15.737.027a.486.486 0 1 0 0-.971z"/>
        <path data-name="Path 4994" d="m239.388 373.665-16.151-.028a1.986 1.986 0 0 1-2-2.534l1.336-4.09a2.08 2.08 0 0 1 2.005-1.385l13.652.023a2.077 2.077 0 0 1 2.019 1.456l1.162 4.1a1.992 1.992 0 0 1-2.025 2.463z" transform="translate(-12390.977 -13204.608)" style="fill:#ccc"/>
        <path data-name="Path 4995" d="m-12151.588-12831.428-16.024-.028a1.586 1.586 0 0 1-1.686-1.247 1.144 1.144 0 0 1-.018-.191 1.741 1.741 0 0 1 .009-.217c-.009.063.009-.052.014-.064.009-.047.023-.094.037-.141 0-.021.013-.042.018-.064.023-.076.05-.149.073-.225.119-.371.243-.741.362-1.111.274-.843.549-1.69.828-2.533a1.75 1.75 0 0 1 .47-.826 1.648 1.648 0 0 1 1.134-.419h1.228l11.305.019h1.079a1.606 1.606 0 0 1 1.341.7 2.786 2.786 0 0 1 .29.771c.253.886.5 1.773.755 2.659l.272.963a2.055 2.055 0 0 1 .076.328 1.526 1.526 0 0 1-.137.771 1.6 1.6 0 0 1-1.435.854.486.486 0 1 0 0 .971 2.513 2.513 0 0 0 2.526-3.084c-.2-.733-.416-1.462-.624-2.194-.127-.452-.258-.9-.384-1.356a6.816 6.816 0 0 0-.218-.724 2.587 2.587 0 0 0-1.863-1.558 3.746 3.746 0 0 0-.755-.065l-13.011-.022a3.324 3.324 0 0 0-2.008.465 2.6 2.6 0 0 0-1 1.365l-.316.971-.879 2.694a3.428 3.428 0 0 0-.22 1.018 2.436 2.436 0 0 0 1.121 2.029 3.282 3.282 0 0 0 1.9.442l15.737.027a.486.486 0 1 0 0-.971z"/>
        <path data-name="Path 4996" d="m261.854 373.7-16.151-.027a1.986 1.986 0 0 1-2-2.534l1.336-4.091a2.083 2.083 0 0 1 2.005-1.385l13.652.024a2.074 2.074 0 0 1 2.018 1.456l1.163 4.1a1.991 1.991 0 0 1-2.025 2.462z" transform="translate(-12390.977 -13204.608)" style="fill:#ccc"/>
        <path data-name="Path 4997" d="m-12129.123-12831.392-16.023-.028a1.586 1.586 0 0 1-1.687-1.246 1.2 1.2 0 0 1-.017-.192 1.75 1.75 0 0 1 .009-.217c-.009.064.009-.051.014-.064.009-.047.023-.094.036-.14 0-.022.014-.043.019-.064.023-.077.05-.149.073-.226.119-.37.242-.741.361-1.111.275-.843.549-1.69.828-2.533a1.748 1.748 0 0 1 .471-.825 1.649 1.649 0 0 1 1.134-.42h1.228l11.305.02h1.078a1.608 1.608 0 0 1 1.342.7 2.817 2.817 0 0 1 .29.771c.253.887.5 1.773.755 2.66.091.319.181.643.271.963a1.931 1.931 0 0 1 .077.328 1.513 1.513 0 0 1-.138.77 1.594 1.594 0 0 1-1.435.854.486.486 0 1 0 0 .971 2.513 2.513 0 0 0 2.526-3.083c-.2-.733-.416-1.462-.624-2.2-.127-.452-.258-.9-.385-1.355a6.826 6.826 0 0 0-.217-.725 2.586 2.586 0 0 0-1.863-1.557 3.746 3.746 0 0 0-.755-.066l-13.011-.022a3.332 3.332 0 0 0-2.008.465 2.6 2.6 0 0 0-1 1.366l-.315.97-.879 2.7a3.391 3.391 0 0 0-.22 1.017 2.439 2.439 0 0 0 1.121 2.03 3.3 3.3 0 0 0 1.9.442l15.737.027a.486.486 0 1 0 0-.971z"/>
        <path data-name="Path 4998" d="m284.325 373.741-16.151-.028a1.985 1.985 0 0 1-2-2.533l1.335-4.091a2.081 2.081 0 0 1 2.005-1.385l13.653.023a2.076 2.076 0 0 1 2.018 1.456l1.163 4.1a1.992 1.992 0 0 1-2.025 2.463z" transform="translate(-12390.977 -13204.608)" style="fill:#ccc"/>
        <path data-name="Path 4999" d="m-12106.652-12831.352-16.024-.028a1.585 1.585 0 0 1-1.686-1.246 1.3 1.3 0 0 1-.018-.192 1.751 1.751 0 0 1 .01-.217c-.009.064.009-.051.014-.064a1.37 1.37 0 0 1 .036-.14c0-.022.014-.043.018-.064.023-.077.051-.149.074-.226.119-.37.242-.741.361-1.111.275-.843.549-1.69.828-2.533a1.755 1.755 0 0 1 .47-.825 1.651 1.651 0 0 1 1.134-.42h1.229l11.3.02h1.079a1.61 1.61 0 0 1 1.341.7 2.755 2.755 0 0 1 .29.771c.254.887.5 1.773.756 2.659l.271.964a2.034 2.034 0 0 1 .077.328 1.513 1.513 0 0 1-.138.77 1.6 1.6 0 0 1-1.435.854.486.486 0 1 0 0 .971 2.513 2.513 0 0 0 2.527-3.084c-.2-.733-.416-1.461-.624-2.194-.127-.452-.258-.9-.385-1.355a7.073 7.073 0 0 0-.217-.725 2.589 2.589 0 0 0-1.863-1.558 3.83 3.83 0 0 0-.756-.065l-13.011-.022a3.33 3.33 0 0 0-2.007.465 2.6 2.6 0 0 0-1 1.365l-.316.971-.878 2.7a3.385 3.385 0 0 0-.22 1.017 2.438 2.438 0 0 0 1.12 2.03 3.3 3.3 0 0 0 1.9.442l15.737.027a.486.486 0 1 0 0-.972z"/>
        <path data-name="Path 5000" d="m306.792 373.779-16.151-.027a1.986 1.986 0 0 1-2-2.534l1.336-4.091a2.082 2.082 0 0 1 2.005-1.385l13.652.024a2.069 2.069 0 0 1 2.018 1.456l1.163 4.1a1.991 1.991 0 0 1-2.025 2.462z" transform="translate(-12390.977 -13204.608)" style="fill:#ccc"/>
        <path data-name="Path 5001" d="m-12084.185-12831.314-16.023-.027a1.588 1.588 0 0 1-1.687-1.247 1.192 1.192 0 0 1-.017-.192 1.758 1.758 0 0 1 .009-.217c-.009.064.009-.051.014-.064.009-.047.023-.093.036-.14.005-.022.014-.043.019-.064.023-.077.05-.149.073-.226.119-.37.242-.74.361-1.111.275-.843.549-1.69.828-2.533a1.748 1.748 0 0 1 .471-.825 1.649 1.649 0 0 1 1.134-.42h1.228l11.3.02h1.078a1.608 1.608 0 0 1 1.342.7 2.813 2.813 0 0 1 .29.772c.253.886.5 1.772.755 2.659l.271.963a1.928 1.928 0 0 1 .077.328 1.518 1.518 0 0 1-.138.771 1.6 1.6 0 0 1-1.435.853.486.486 0 1 0 0 .971 2.513 2.513 0 0 0 2.526-3.083c-.2-.733-.416-1.462-.624-2.2-.127-.452-.258-.9-.385-1.355a6.75 6.75 0 0 0-.217-.724 2.585 2.585 0 0 0-1.863-1.558 3.674 3.674 0 0 0-.755-.065l-13.011-.023a3.339 3.339 0 0 0-2.008.465 2.607 2.607 0 0 0-1 1.366l-.315.97-.879 2.7a3.391 3.391 0 0 0-.22 1.017 2.439 2.439 0 0 0 1.121 2.03 3.29 3.29 0 0 0 1.9.442l15.737.027a.486.486 0 1 0 0-.971z"/>
        <path data-name="Path 5002" d="m195.677 373.587-97.312-.167a1.985 1.985 0 0 1-2-2.533L97.7 366.8a2.081 2.081 0 0 1 2-1.385l94.814.163a2.074 2.074 0 0 1 2.018 1.456l1.163 4.1a1.991 1.991 0 0 1-2.025 2.462z" transform="translate(-12390.977 -13204.608)" style="fill:#ccc"/>
        <path data-name="Path 5003" d="m-12195.298-12831.508-95.979-.162h-1.243a1.66 1.66 0 0 1-1.428-.706c-.527-.8.058-1.874.319-2.674.284-.864.531-1.745.846-2.6a1.616 1.616 0 0 1 1.567-1.053c.4-.008.792 0 1.188 0l93.312.16h.25a1.618 1.618 0 0 1 1.428.845 5.037 5.037 0 0 1 .281.908c.28.993.565 1.981.845 2.974a2.835 2.835 0 0 1 .181.9 1.551 1.551 0 0 1-1.577 1.4.486.486 0 1 0 0 .971 2.521 2.521 0 0 0 2.527-3.088c-.222-.878-.5-1.752-.747-2.625a4.94 4.94 0 0 0-1.187-2.643 2.831 2.831 0 0 0-1.829-.629c-1.324-.015-2.648-.005-3.968-.007l-86.968-.15c-1.247 0-2.5-.029-3.746-.006a2.706 2.706 0 0 0-2.332 1.257 12.849 12.849 0 0 0-.887 2.532 13.593 13.593 0 0 0-.76 2.5 2.54 2.54 0 0 0 2.594 2.7c1.069.027 2.139 0 3.208 0l94.095.162a.486.486 0 1 0 0-.971z"/>
        <path data-name="Path 5004" d="M320.982 375.377 17.9 374.856l1.8-2.429a9.044 9.044 0 0 1 7.292-3.565l286.457.493a6.992 6.992 0 0 1 6.125 3.482l1.415 2.536z" transform="translate(-12390.977 -13204.608)" style="fill:#ccc"/>
        <path data-name="Path 5005" d="m-12069.994-12829.715-298.518-.514a33.052 33.052 0 0 0-4.055-.007 4.013 4.013 0 0 1-.514 0c.15.244.3.487.449.734a27.417 27.417 0 0 1 2.577-3.318 8.8 8.8 0 0 1 6.078-2.435h.71l276.851.476c2.954.005 5.921-.079 8.87.015a6.68 6.68 0 0 1 5.247 2.56 29.879 29.879 0 0 1 1.856 3.219c.308.555 1.206.066.9-.488a26.1 26.1 0 0 0-1.978-3.381 7.675 7.675 0 0 0-5.584-2.872c-.314-.017-.628-.014-.942-.014-1.406-.007-2.812 0-4.218-.007l-273.624-.471c-3.095-.005-6.448-.347-9.525.09-3.978.568-5.995 3.274-8.107 6.128-.228.311.076.733.449.734l290.776.5c3.928.006 7.86.064 11.787.02h.515a.486.486 0 1 0 0-.971z"/>
        <path data-name="Path 5006" d="m-12390.555-12829.234 334.96.576c4.525.008 9.054.071 13.58.023h.592c.562 0 .564-.969 0-.97l-334.954-.575c-4.525-.008-9.055-.071-13.58-.024h-.597c-.562 0-.564.97 0 .971z"/>
        <path data-name="Path 5007" d="M242.117 95.012H99.685c-4.3 0-7.784 3.208-7.784 7.165v191.755c0 3.957 3.485 7.165 7.784 7.165h142.432c4.3 0 7.784-3.208 7.784-7.165V102.177c-.001-3.957-3.485-7.165-7.784-7.165z" transform="translate(-12390.977 -13204.608)" style="fill:#6c3099"/>
        <path data-name="Path 5008" d="M242.117 90.01H99.685c-4.3 0-7.784 3.083-7.784 6.887V281.2c0 3.8 3.485 6.887 7.784 6.887h142.432c4.3 0 7.784-3.084 7.784-6.887V96.9c-.001-3.807-3.485-6.89-7.784-6.89z" transform="translate(-12390.977 -13204.608)" style="fill:#6c3099"/>
        <path data-name="Path 5009" d="M315.9 66h-10v2h10v10h2V66z" transform="translate(-12390.977 -13204.608)" style="fill-rule:evenodd"/>
        <path data-name="Path 5010" d="M25.9 68v10h2V68h10v-2h-12z" transform="translate(-12390.977 -13204.608)" style="fill-rule:evenodd"/>
        <g data-name="Group 12">
            <path data-name="Rectangle 5" transform="translate(-12354.076 -13104.613)" style="fill:#ed1e79" d="M0 0h17v3.001H0z"/>
            <path data-name="Rectangle 6" transform="translate(-12329.076 -13104.613)" style="fill:#ed1e79" d="M0 0h17v3.001H0z"/>
            <path data-name="Rectangle 7" transform="translate(-12304.076 -13104.613)" style="fill:#ed1e79" d="M0 0h17v3.001H0z"/>
            <path data-name="Rectangle 8" transform="translate(-12279.076 -13104.613)" style="fill:#ed1e79" d="M0 0h17v3.001H0z"/>
            <path data-name="Rectangle 9" transform="translate(-12254.076 -13104.613)" style="fill:#ed1e79" d="M0 0h17v3.001H0z"/>
            <path data-name="Rectangle 10" transform="translate(-12229.076 -13104.613)" style="fill:#ed1e79" d="M0 0h17v3.001H0z"/>
            <path data-name="Rectangle 11" transform="translate(-12204.076 -13104.613)" style="fill:#ed1e79" d="M0 0h17v3.001H0z"/>
            <path data-name="Rectangle 12" transform="translate(-12179.076 -13104.613)" style="fill:#ed1e79" d="M0 0h17v3.001H0z"/>
            <path data-name="Rectangle 13" transform="translate(-12154.076 -13104.613)" style="fill:#ed1e79" d="M0 0h17v3.001H0z"/>
            <path data-name="Rectangle 14" transform="translate(-12129.076 -13104.613)" style="fill:#ed1e79" d="M0 0h17v3.001H0z"/>
            <path data-name="Rectangle 15" transform="translate(-12104.076 -13104.613)" style="fill:#ed1e79" d="M0 0h17v3.001H0z"/>
        </g>
        <path data-name="Path 5011" d="M253.9 293.094h-163v3h163z" transform="translate(-12390.977 -13204.608)" style="fill:#fff"/>
        <path data-name="Path 5012" d="M129.765 173.4H102.5v1.847h27.269z" transform="translate(-12390.977 -13204.608)" style="fill:#ed1e79"/>
        <path data-name="Path 5013" d="M129.765 260.406H102.5v1.847h27.269z" transform="translate(-12390.977 -13204.608)" style="fill:#ed1e79"/>
        <path data-name="Path 5014" d="M151.9 270.084h-40v2h40z" transform="translate(-12390.977 -13204.608)" style="fill:#fff"/>
        <path data-name="Path 5015" d="M151.9 281.089h-40v2h40z" transform="translate(-12390.977 -13204.608)" style="fill:#fff"/>
        <path data-name="Path 5016" d="M238.9 281.089h-40v2h40z" transform="translate(-12390.977 -13204.608)" style="fill:#fff"/>
        <path data-name="Path 5017" d="M238.9 270.084h-40v2h40z" transform="translate(-12390.977 -13204.608)" style="fill:#fff"/>
        <path data-name="Path 5018" d="M129.765 226.1H102.5v1.847h27.269z" transform="translate(-12390.977 -13204.608)" style="fill:#ed1e79"/>
        <path data-name="Path 5019" d="M165.537 181.459h-54.909v2.551h54.909z" transform="translate(-12390.977 -13204.608)" style="fill:#ebebeb"/>
        <path data-name="Path 5020" d="M150.327 181.459h-39.7v2.551h39.7z" transform="translate(-12390.977 -13204.608)" style="fill:#fff"/>
        <path data-name="Path 5021" d="M165.537 188.057h-54.909v2.551h54.909z" transform="translate(-12390.977 -13204.608)" style="fill:#ebebeb"/>
        <path data-name="Path 5022" d="M160.981 188.057h-50.353v2.551h50.353z" transform="translate(-12390.977 -13204.608)" style="fill:#fff"/>
        <path data-name="Path 5023" d="M165.537 194.656h-54.909v2.55h54.909z" transform="translate(-12390.977 -13204.608)" style="fill:#ebebeb"/>
        <path data-name="Path 5024" d="M153.419 194.656h-42.791v2.55h42.791z" transform="translate(-12390.977 -13204.608)" style="fill:#fff"/>
        <path data-name="Path 5025" d="M165.537 201.254h-54.909v2.55h54.909z" transform="translate(-12390.977 -13204.608)" style="fill:#ebebeb"/>
        <path data-name="Path 5026" d="M157.816 201.254h-47.188v2.55h47.188z" transform="translate(-12390.977 -13204.608)" style="fill:#fff"/>
        <path data-name="Path 5027" d="M165.537 207.852h-54.909v2.548h54.909z" transform="translate(-12390.977 -13204.608)" style="fill:#ebebeb"/>
        <path data-name="Path 5028" d="M162.266 207.852h-51.638v2.548h51.638z" transform="translate(-12390.977 -13204.608)" style="fill:#fff"/>
        <path data-name="Path 5029" d="M106.615 180.678H102.5v4.12h4.119z" transform="translate(-12390.977 -13204.608)" style="fill:#fff"/>
        <path data-name="Path 5030" d="M106.615 187.276H102.5v4.12h4.119z" transform="translate(-12390.977 -13204.608)" style="fill:#ed1e79"/>
        <path data-name="Path 5031" d="M106.615 193.874H102.5v4.121h4.119z" transform="translate(-12390.977 -13204.608)" style="fill:#c7c7c7"/>
        <path data-name="Path 5032" d="M106.615 200.472H102.5v4.121h4.119z" transform="translate(-12390.977 -13204.608)" style="fill:#fff"/>
        <path data-name="Path 5033" d="M106.615 207.07H102.5v4.121h4.119z" transform="translate(-12390.977 -13204.608)" style="fill:#ed1e79"/>
        <path data-name="Path 5034" d="M215.348 173.4h-34.991v1.847h34.991z" transform="translate(-12390.977 -13204.608)" style="fill:#ed1e79"/>
        <path data-name="Path 5035" d="M193.654 180.571h-13.3v1.848h13.3z" transform="translate(-12390.977 -13204.608)" style="fill:#c7c7c7"/>
        <path data-name="Path 5036" d="M193.654 196.285h-13.3v1.848h13.3z" transform="translate(-12390.977 -13204.608)" style="fill:#c7c7c7"/>
        <path data-name="Path 5037" d="M193.654 211.992h-13.3v1.848h13.3z" transform="translate(-12390.977 -13204.608)" style="fill:#c7c7c7"/>
        <path data-name="Path 5038" d="M193.654 227.706h-13.3v1.848h13.3z" transform="translate(-12390.977 -13204.608)" style="fill:#c7c7c7"/>
        <path data-name="Path 5039" d="M193.654 244.149h-13.3V246h13.3z" transform="translate(-12390.977 -13204.608)" style="fill:#c7c7c7"/>
        <path data-name="Path 5040" d="M201.031 181.5a.821.821 0 1 1-.821-.822.821.821 0 0 1 .821.822z" transform="translate(-12390.977 -13204.608)" style="fill:#fff"/>
        <path data-name="Path 5041" d="M201.031 197.252a.821.821 0 1 1-.821-.821.821.821 0 0 1 .821.821z" transform="translate(-12390.977 -13204.608)" style="fill:#fff"/>
        <path data-name="Path 5042" d="M201.031 213.006a.821.821 0 1 1-.821-.821.821.821 0 0 1 .821.821z" transform="translate(-12390.977 -13204.608)" style="fill:#fff"/>
        <path data-name="Path 5043" d="M201.031 228.759a.821.821 0 1 1-.821-.821.82.82 0 0 1 .821.821z" transform="translate(-12390.977 -13204.608)" style="fill:#fff"/>
        <path data-name="Path 5044" d="M201.031 244.519a.821.821 0 1 1-.821-.821.821.821 0 0 1 .821.821z" transform="translate(-12390.977 -13204.608)" style="fill:#fff"/>
        <path data-name="Path 5045" d="M107.078 274.093a.692.692 0 0 1-.324.165c-.053.013-.106.02-.159.033h-.285c-.093-.013-.192-.026-.285-.046a2.968 2.968 0 0 1-1.033-.457 6.705 6.705 0 0 1-1.841-1.848 2.916 2.916 0 0 1-.45-1.021c-.02-.1-.033-.192-.046-.291v-.272c.02-.086.033-.179.059-.265a1.316 1.316 0 0 1 .12-.232.369.369 0 0 1 .046.04l1.165 1.166a.064.064 0 0 1 .02.073.567.567 0 0 0 .126.563 12.165 12.165 0 0 0 1.053 1.053.569.569 0 0 0 .563.126c.026-.006.046-.013.066.013.391.4.788.789 1.179 1.186l.02.02z" transform="translate(-12390.977 -13204.608)" style="fill:#fff"/>
        <path data-name="Path 5046" d="m107.76 273.416-.41.411-.027.026-1.192-1.192c.027-.026.06-.053.093-.086l.351-.351a.194.194 0 0 1 .305 0c.3.3.6.59.887.888a.187.187 0 0 1 0 .3z" transform="translate(-12390.977 -13204.608)" style="fill:#fff"/>
        <path data-name="Path 5047" d="m104.727 270.369-.456.437c-.385-.384-.782-.775-1.179-1.179 0-.006.013-.02.026-.026l.417-.417a.188.188 0 0 1 .292 0l.9.9a.18.18 0 0 1 0 .285z" transform="translate(-12390.977 -13204.608)" style="fill:#fff"/>
        <path data-name="Path 5048" d="M107.6 280.141c-.046.046-.086.079-.126.119-.662.629-1.324 1.265-1.993 1.894a.3.3 0 0 1-.457 0q-1.023-.963-2.046-1.934l-.079-.079a.276.276 0 0 1 .178-.046h1.384c.961 0 1.921-.007 2.888-.014a.421.421 0 0 1 .251.053z" transform="translate(-12390.977 -13204.608)" style="fill:#fff"/>
        <path data-name="Path 5049" d="M107.589 283.665a.812.812 0 0 1-.173.033c-.549 0-1.1 0-1.655.006-.887 0-1.775 0-2.656.014a.424.424 0 0 1-.211-.053c.549-.53 1.1-1.047 1.648-1.57l.318.3c.047.04.093.086.133.126a.364.364 0 0 0 .51 0l.443-.424c.55.517 1.093 1.033 1.643 1.55v.02z" transform="translate(-12390.977 -13204.608)" style="fill:#fff"/>
        <path data-name="Path 5050" d="M104.337 281.9c-.537.523-1.08 1.027-1.609 1.55 0-.02-.014-.046-.014-.079 0-.974-.006-1.941-.013-2.915a.435.435 0 0 1 .013-.093c.537.51 1.08 1.02 1.623 1.53z" transform="translate(-12390.977 -13204.608)" style="fill:#fff"/>
        <path data-name="Path 5051" d="m107.767 283.433-.6-.576c-.324-.3-.649-.616-.98-.921-.013-.013-.026-.02-.039-.033.536-.523 1.079-1.033 1.609-1.55.017.053.03 3.001.01 3.08z" transform="translate(-12390.977 -13204.608)" style="fill:#fff"/>
        <path data-name="Path 5052" d="M187.112 270.389a3.628 3.628 0 0 0-.252 1.153h-1.02v-.027a.421.421 0 0 1 .007-.079 2.682 2.682 0 0 1 .066-.4 3.405 3.405 0 0 1 .225-.629c0-.014.014-.014.027-.014h.947z" transform="translate(-12390.977 -13204.608)" style="fill:#fff"/>
        <path data-name="Path 5053" d="M187.078 272.959h-.933c-.014 0-.02 0-.02-.013a2.945 2.945 0 0 1-.232-.709 3.111 3.111 0 0 1-.046-.357v-.04h1a.019.019 0 0 1 .019.02c0 .079.014.166.02.245a3.66 3.66 0 0 0 .06.384 3.309 3.309 0 0 0 .132.457v.013z" transform="translate(-12390.977 -13204.608)" style="fill:#fff"/>
        <path data-name="Path 5054" d="M191.025 273.258v.013a3.74 3.74 0 0 1-.271.344 2.507 2.507 0 0 1-.391.358 2.737 2.737 0 0 1-.444.278 2.91 2.91 0 0 1-.47.186 2.67 2.67 0 0 1-.391.086H189l-.02-.014.026-.019a3.174 3.174 0 0 0 .742-.716 3.452 3.452 0 0 0 .305-.5c0-.013.013-.013.026-.013h.947z" transform="translate(-12390.977 -13204.608)" style="fill:#fff"/>
        <path data-name="Path 5055" d="M190.091 271.542h-1.318v-1.153h1.027c.013 0 .013 0 .02.014a3.549 3.549 0 0 1 .212.675c.026.119.039.245.053.364a.56.56 0 0 0 .006.1z" transform="translate(-12390.977 -13204.608)" style="fill:#fff"/>
        <path data-name="Path 5056" d="M190.078 271.847v.079a1.785 1.785 0 0 1-.02.192c-.013.086-.026.179-.046.265a3.444 3.444 0 0 1-.172.563c0 .013-.013.02-.027.02h-1.059v-1.119h1.324z" transform="translate(-12390.977 -13204.608)" style="fill:#fff"/>
        <path data-name="Path 5057" d="M188.476 270.4v1.152h-1.285v-.086a1.886 1.886 0 0 1 .02-.192c.014-.1.033-.2.053-.291a2.856 2.856 0 0 1 .186-.57c0-.013.013-.013.02-.013h1.006z" transform="translate(-12390.977 -13204.608)" style="fill:#fff"/>
        <path data-name="Path 5058" d="M188.476 271.86v1.1h-1.033c-.013 0-.02 0-.02-.013a2.57 2.57 0 0 1-.172-.583c-.02-.1-.033-.205-.046-.311a2.016 2.016 0 0 1-.014-.205h.014c.417-.007.841-.007 1.258-.007.013 0 .013 0 .013.02z" transform="translate(-12390.977 -13204.608)" style="fill:#fff"/>
        <path data-name="Path 5059" d="M191.489 271.548h-1.08a3.872 3.872 0 0 0-.251-1.159h1.006c.014 0 .02 0 .027.014a3.13 3.13 0 0 1 .251.721 2.679 2.679 0 0 1 .053.4v.02z" transform="translate(-12390.977 -13204.608)" style="fill:#fff"/>
        <path data-name="Path 5060" d="M191.489 271.84v.073c-.007.1-.02.192-.033.291a2.814 2.814 0 0 1-.2.649c-.013.033-.033.067-.046.1a.015.015 0 0 1-.014.013h-1.006a.639.639 0 0 0 .033-.1 3.526 3.526 0 0 0 .132-.524c.02-.132.04-.258.047-.39v-.093c0-.007 0-.013.013-.013h1.073z" transform="translate(-12390.977 -13204.608)" style="fill:#fff"/>
        <path data-name="Path 5061" d="M191 270.091h-.96c-.014 0-.02 0-.02-.014a3.3 3.3 0 0 0-.471-.7 2.736 2.736 0 0 0-.357-.331c-.066-.053-.133-.093-.2-.146h-.013l.013-.019v-.02a2.829 2.829 0 0 1 2.008 1.216z" transform="translate(-12390.977 -13204.608)" style="fill:#fff"/>
        <path data-name="Path 5062" d="M188.29 274.509h-.026a2.633 2.633 0 0 1-.312-.059 2.794 2.794 0 0 1-.549-.205 3.118 3.118 0 0 1-.556-.365 2.689 2.689 0 0 1-.338-.337 4.441 4.441 0 0 1-.212-.292h.013c.291-.006.589-.006.881-.006.013 0 .02 0 .02.013a3.311 3.311 0 0 0 .324.53 2.88 2.88 0 0 0 .378.417 2.975 2.975 0 0 0 .364.291h.006z" transform="translate(-12390.977 -13204.608)" style="fill:#fff"/>
        <path data-name="Path 5063" d="M188.277 268.9a1.353 1.353 0 0 0-.132.1 3.308 3.308 0 0 0-.424.4 3.065 3.065 0 0 0-.451.636.306.306 0 0 0-.019.046.024.024 0 0 1-.014.007h-.907a2.793 2.793 0 0 1 1.94-1.205v.019z" transform="translate(-12390.977 -13204.608)" style="fill:#fff"/>
        <path data-name="Path 5064" d="M189.694 273.264a3.1 3.1 0 0 1-.437.59 3.06 3.06 0 0 1-.5.424v-1.014z" transform="translate(-12390.977 -13204.608)" style="fill:#fff"/>
        <path data-name="Path 5065" d="M188.476 273.264v.994a2.81 2.81 0 0 1-.894-.994z" transform="translate(-12390.977 -13204.608)" style="fill:#fff"/>
        <path data-name="Path 5066" d="M189.668 270.084h-.894v-.947a2.532 2.532 0 0 1 .5.424 3.044 3.044 0 0 1 .394.523z" transform="translate(-12390.977 -13204.608)" style="fill:#fff"/>
        <path data-name="Path 5067" d="M188.476 269.17v.921h-.861a2.719 2.719 0 0 1 .861-.921z" transform="translate(-12390.977 -13204.608)" style="fill:#fff"/>
        <path data-name="Path 5068" d="M190.846 280.161a2.419 2.419 0 0 0-2.8-1.285 2.254 2.254 0 0 0-1.748 2.4 3.039 3.039 0 0 0 .318 1.046 8.2 8.2 0 0 0 1.357 1.968c.219.245.45.477.676.715a.625.625 0 0 0 .072-.066c.292-.311.6-.616.875-.947a6.943 6.943 0 0 0 1.258-2.014 2.282 2.282 0 0 0 0-1.815zm-.722.881a1.391 1.391 0 1 0-.006 0z" transform="translate(-12390.977 -13204.608)" style="fill:#fff"/>
        <path data-name="Path 5069" d="M161 112.556h-58.106v51.295H161z" transform="translate(-12390.977 -13204.608)" style="fill:#fff"/>
        <path data-name="Path 5070" d="M223.255 111.019h-44.632v5.193h44.632z" transform="translate(-12390.977 -13204.608)" style="fill:#ed1e79"/>
        <path data-name="Path 5071" d="M206.9 241.072h34m-34 2.5h34m-34 2.5h34" transform="translate(-12390.977 -13204.608)" style="stroke:#fff;fill:none;stroke-width:.5px"/>
        <path data-name="Path 5072" d="M102.9 231.068h34m-34 2.5h34m-34 2.5h34" transform="translate(-12390.977 -13204.608)" style="stroke:#fff;fill:none;stroke-width:.5px"/>
        <path data-name="Path 5073" d="M102.9 240.072h23m-23 2.5h23m-23 2.5h23" transform="translate(-12390.977 -13204.608)" style="stroke:#fff;fill:none;stroke-width:.5px"/>
        <path data-name="Path 5074" d="M206.9 226.066h34m-34 2.5h34m-34 2.5h34" transform="translate(-12390.977 -13204.608)" style="stroke:#fff;fill:none;stroke-width:.5px"/>
        <path data-name="Path 5075" d="M206.9 210.06h34m-34 2.5h34m-34 2.5h34" transform="translate(-12390.977 -13204.608)" style="stroke:#fff;fill:none;stroke-width:.5px"/>
        <path data-name="Path 5076" d="M206.9 194.053h34m-34 2.5h34m-34 2.5h34" transform="translate(-12390.977 -13204.608)" style="stroke:#fff;fill:none;stroke-width:.5px"/>
        <path data-name="Path 5077" d="M206.9 179.047h34m-34 2.5h34m-34 2.5h34" transform="translate(-12390.977 -13204.608)" style="stroke:#fff;fill:none;stroke-width:.5px"/>
        <path data-name="Path 5078" d="M178.9 123.024h44m-44 2.5h44m-44 2.5h44" transform="translate(-12390.977 -13204.608)" style="stroke:#fff;fill:none;stroke-width:.5px"/>
        <path data-name="Path 5079" d="M178.9 131.027h30m-30 2.5h30m-30 2.5h30" transform="translate(-12390.977 -13204.608)" style="stroke:#fff;fill:none;stroke-width:.5px"/>
        <rect data-name="Rectangle 26" width="349.5" height="13.5" rx="6.75" transform="translate(-12390.727 -13174.358)" style="stroke:#6c3099;fill:none;stroke-width:.5px"/>
        <rect data-name="Rectangle 27" width="281.901" height="14" rx="7" transform="translate(-12390.977 -13174.608)" style="fill:#ed1e79"/>
        <path data-name="Path 5080" d="M-12231.689-13194.496a3.106 3.106 0 0 1 1.264 1.088 2.73 2.73 0 0 1 .448 1.552 2.941 2.941 0 0 1-.592 1.824 3.865 3.865 0 0 1-1.664 1.2 7.6 7.6 0 0 1-4.96 0 3.878 3.878 0 0 1-1.648-1.2 3 3 0 0 1-.576-1.824 2.807 2.807 0 0 1 .432-1.552 3.257 3.257 0 0 1 1.264-1.088 2.756 2.756 0 0 1-.96-.96 2.675 2.675 0 0 1-.336-1.344 2.732 2.732 0 0 1 .544-1.7 3.417 3.417 0 0 1 1.52-1.1 6.517 6.517 0 0 1 4.5 0 3.413 3.413 0 0 1 1.536 1.1 2.732 2.732 0 0 1 .544 1.7 2.675 2.675 0 0 1-.336 1.344 2.716 2.716 0 0 1-.98.96zm-3.024-3.6a1.962 1.962 0 0 0-1.264.388 1.235 1.235 0 0 0-.464 1.024 1.218 1.218 0 0 0 .464 1.004 1.981 1.981 0 0 0 1.264.368 2.051 2.051 0 0 0 1.28-.368 1.2 1.2 0 0 0 .48-1.008 1.217 1.217 0 0 0-.48-1.024 1.99 1.99 0 0 0-1.28-.384zm0 7.776a2.455 2.455 0 0 0 1.536-.432 1.427 1.427 0 0 0 .576-1.184 1.384 1.384 0 0 0-.576-1.172 2.455 2.455 0 0 0-1.536-.432 2.428 2.428 0 0 0-1.52.432 1.4 1.4 0 0 0-.56 1.168 1.415 1.415 0 0 0 .56 1.184 2.428 2.428 0 0 0 1.52.436zm10.723 1.9a4.54 4.54 0 0 1-2.48-.688 4.673 4.673 0 0 1-1.712-1.984 7.357 7.357 0 0 1-.608-3.12 7.248 7.248 0 0 1 .608-3.1 4.656 4.656 0 0 1 1.712-2 4.556 4.556 0 0 1 6.656 2 7.1 7.1 0 0 1 .624 3.1 7.2 7.2 0 0 1-.624 3.12 4.436 4.436 0 0 1-4.176 2.672zm0-2.192a1.813 1.813 0 0 0 1.6-.88 4.953 4.953 0 0 0 .592-2.72 4.953 4.953 0 0 0-.592-2.72 1.813 1.813 0 0 0-1.6-.88 1.836 1.836 0 0 0-1.6.88 5.059 5.059 0 0 0-.576 2.72 5.059 5.059 0 0 0 .576 2.72 1.836 1.836 0 0 0 1.6.884zm8.651-3.152a2.647 2.647 0 0 1-2.016-.832 3.232 3.232 0 0 1-.768-2.256 3.173 3.173 0 0 1 .768-2.24 2.623 2.623 0 0 1 2.016-.848 2.573 2.573 0 0 1 2 .848 3.173 3.173 0 0 1 .768 2.24 3.232 3.232 0 0 1-.768 2.256 2.6 2.6 0 0 1-2 .836zm6.672-6.044h1.9l-7.644 11.2h-1.9zm-6.672 4.736a.968.968 0 0 0 .848-.448 2.282 2.282 0 0 0 .32-1.328 2.282 2.282 0 0 0-.32-1.328.968.968 0 0 0-.848-.448.984.984 0 0 0-.848.464 2.249 2.249 0 0 0-.32 1.312 2.329 2.329 0 0 0 .32 1.328.993.993 0 0 0 .848.448zm7.6 6.592a2.838 2.838 0 0 1-1.44-.368 2.62 2.62 0 0 1-.976-1.088 3.6 3.6 0 0 1-.352-1.632 3.6 3.6 0 0 1 .352-1.632 2.513 2.513 0 0 1 .976-1.072 2.746 2.746 0 0 1 1.44-.384 2.573 2.573 0 0 1 2 .848 3.132 3.132 0 0 1 .784 2.24 3.19 3.19 0 0 1-.784 2.256 2.6 2.6 0 0 1-2 .832zm0-1.312a.968.968 0 0 0 .848-.448 2.329 2.329 0 0 0 .32-1.328 2.249 2.249 0 0 0-.32-1.312.96.96 0 0 0-.848-.464.993.993 0 0 0-.848.448 2.283 2.283 0 0 0-.32 1.328 2.283 2.283 0 0 0 .32 1.328.993.993 0 0 0 .848.448z"/>
        <path data-name="Path 5176" d="M315.9 78h-10v-2h10V66h2v12z" transform="translate(-12390.977 -12924.608)" style="fill-rule:evenodd"/>
        <path data-name="Path 5177" d="M25.9 76V66h2v10h10v2h-12z" transform="translate(-12390.977 -12924.608)" style="fill-rule:evenodd"/>
    </g>
</svg>
