<svg xmlns="http://www.w3.org/2000/svg" width="28.754" height="28.754" viewBox="0 0 28.754 28.754">
  <path id="twitter" d="M25.673,0H3.081A3.082,3.082,0,0,0,0,3.081V25.673a3.082,3.082,0,0,0,3.081,3.081H25.673a3.082,3.082,0,0,0,3.081-3.081V3.081A3.082,3.082,0,0,0,25.673,0ZM22.534,10.192c.013.18.013.366.013.546A11.9,11.9,0,0,1,10.571,22.714a11.921,11.921,0,0,1-6.463-1.887,8.87,8.87,0,0,0,1.014.051,8.44,8.44,0,0,0,5.224-1.8,4.215,4.215,0,0,1-3.934-2.92,4.536,4.536,0,0,0,1.9-.077,4.21,4.21,0,0,1-3.37-4.133V11.9a4.207,4.207,0,0,0,1.9.533,4.2,4.2,0,0,1-1.874-3.5A4.157,4.157,0,0,1,5.539,6.8a11.952,11.952,0,0,0,8.677,4.4A4.218,4.218,0,0,1,21.4,7.362a8.248,8.248,0,0,0,2.67-1.014A4.2,4.2,0,0,1,22.22,8.665a8.376,8.376,0,0,0,2.426-.655A8.861,8.861,0,0,1,22.534,10.192Z" fill="#6c3099"/>
</svg>
