<svg data-name="Group 47567" xmlns="http://www.w3.org/2000/svg" width="185" height="150.824" viewBox="0 0 185 150.824">
    <path data-name="Path 4718" d="M153.279 14.718 182.557 9.5V.807l-29.278 5.216z" style="fill:#6c3099"/>
    <path data-name="Path 4719" d="M149.323 38.541a3.826 3.826 0 1 0-3.826-3.826 3.825 3.825 0 0 0 3.826 3.826z" style="fill:#6c3099"/>
    <path data-name="Path 4720" d="M178.652 33.324a3.826 3.826 0 1 0-3.826-3.826 3.825 3.825 0 0 0 3.826 3.826z" style="fill:#6c3099"/>
    <path data-name="Path 4721" d="M25.565 42.673h42.188V18.7H25.565zM44.008 25.96l7.855 4.695-7.855 4.695v-9.389z" style="fill:#ed1e79"/>
    <path data-name="Path 4722" d="M153.336 150.824H31.281a5.718 5.718 0 0 1-5.711-5.711v-2.357a.806.806 0 0 1 .807-.807H158.24a.806.806 0 0 1 .806.807v2.357a5.718 5.718 0 0 1-5.711 5.711zm-126.152-7.261v1.55a4.1 4.1 0 0 0 4.1 4.1h122.052a4.1 4.1 0 0 0 4.1-4.1v-1.55H27.184z"/>
    <path data-name="Path 4723" d="M101.525 147.334H82.967a.806.806 0 0 1-.807-.807v-3.688a.807.807 0 1 1 1.614 0v2.881h16.944v-2.881a.807.807 0 1 1 1.614 0v3.688a.807.807 0 0 1-.807.807z"/>
    <path data-name="Path 4724" d="M35.248 143.184a.806.806 0 0 1-.807-.806V79.23a6.116 6.116 0 0 1 6.2-6.011h103.265a5.957 5.957 0 0 1 6.031 6.011v62.57a.807.807 0 1 1-1.614 0V79.23a4.36 4.36 0 0 0-4.417-4.4H40.645a4.5 4.5 0 0 0-4.589 4.4v63.148a.806.806 0 0 1-.807.806z"/>
    <path data-name="Path 4725" d="M42.74 137.421a.792.792 0 0 1-.571-.22.77.77 0 0 1-.236-.554V81.518a.806.806 0 0 1 .807-.807h99.013a.806.806 0 0 1 .807.807v55.072a.794.794 0 0 1-.807.791l-99.013.041zm.807-55.1v53.519l97.4-.057V82.326h-97.4z"/>
    <path data-name="Path 4726" d="M90.024 64.74H3.267A3.271 3.271 0 0 1 0 61.473V3.4A3.27 3.27 0 0 1 3.267.131h86.757A3.269 3.269 0 0 1 93.29 3.4v58.073a3.27 3.27 0 0 1-3.265 3.267zM3.267 1.745A1.655 1.655 0 0 0 1.614 3.4v58.073a1.655 1.655 0 0 0 1.653 1.653h86.757a1.654 1.654 0 0 0 1.652-1.653V3.4a1.654 1.654 0 0 0-1.652-1.652H3.267z"/>
    <path data-name="Path 4727" d="M92.42 12.243H1.13a.807.807 0 1 1 0-1.614h91.29a.807.807 0 0 1 0 1.614z"/>
    <path data-name="Path 4728" d="M67.731 43.474H25.56a.806.806 0 0 1-.807-.807V18.642a.806.806 0 0 1 .807-.807h42.171a.806.806 0 0 1 .807.807v24.025a.806.806 0 0 1-.807.807zm-41.364-1.613h40.557V19.448H26.367v22.413z"/>
    <path data-name="Path 4729" d="M43.982 36.156a.807.807 0 0 1-.807-.807v-9.388a.807.807 0 0 1 1.221-.693l7.855 4.695a.807.807 0 0 1 0 1.385L44.4 36.043a.806.806 0 0 1-.414.114zm.807-8.773v6.545l5.476-3.272-5.476-3.272z"/>
    <path data-name="Path 4730" d="M87 56.5H6.547a.807.807 0 0 1 0-1.614H87a.807.807 0 0 1 0 1.614z"/>
    <path data-name="Path 4731" d="M16.229 58.81a.806.806 0 0 1-.807-.81v-4.722a.807.807 0 1 1 1.614 0V58a.806.806 0 0 1-.807.81z"/>
    <path data-name="Path 4732" d="M87 51.779H6.547a.807.807 0 0 1 0-1.614H87a.807.807 0 0 1 0 1.614z"/>
    <path data-name="Path 4733" d="M77.32 54.084a.806.806 0 0 1-.807-.807v-4.725a.807.807 0 1 1 1.614 0v4.726a.806.806 0 0 1-.807.806z"/>
    <path data-name="Path 4734" d="M6.271 8.8a2.387 2.387 0 1 1 2.388-2.392A2.39 2.39 0 0 1 6.271 8.8zm0-3.162a.773.773 0 1 0 .773.773.774.774 0 0 0-.773-.777z"/>
    <path data-name="Path 4735" d="M19.619 8.8a2.387 2.387 0 1 1 2.387-2.387A2.39 2.39 0 0 1 19.619 8.8zm0-3.162a.773.773 0 1 0 .773.773.774.774 0 0 0-.773-.777z"/>
    <path data-name="Path 4736" d="M12.945 8.8a2.387 2.387 0 1 1 2.387-2.387A2.39 2.39 0 0 1 12.945 8.8zm0-3.162a.773.773 0 1 0 .774.773.774.774 0 0 0-.774-.777z"/>
    <path data-name="Path 4737" d="M59.569 5.212H30.753a.807.807 0 1 1 0-1.614h28.816a.807.807 0 1 1 0 1.614z"/>
    <path data-name="Path 4738" d="M80.662 8.324H30.753a.807.807 0 1 1 0-1.614h49.91a.807.807 0 0 1 0 1.614z"/>
    <path data-name="Path 4739" d="M26.719 11.782a.806.806 0 0 1-.807-.807v-9.8a.807.807 0 1 1 1.614 0v9.8a.806.806 0 0 1-.807.807z"/>
    <path data-name="Path 4740" d="M153.28 15.525a.806.806 0 0 1-.807-.807V6.023a.806.806 0 0 1 .665-.794L182.416.012a.808.808 0 0 1 .949.8V9.5a.806.806 0 0 1-.665.794l-29.278 5.217a.83.83 0 0 1-.141.013zm.806-8.826v7.055l27.664-4.928V1.77L154.086 6.7z"/>
    <path data-name="Path 4741" d="M153.165 35.757a.807.807 0 0 1-.8-.812l.116-20.171a.806.806 0 0 1 .807-.8.806.806 0 0 1 .8.811l-.115 20.171a.807.807 0 0 1-.807.8z"/>
    <path data-name="Path 4742" d="M149.322 39.348a4.633 4.633 0 1 1 4.633-4.632 4.638 4.638 0 0 1-4.633 4.632zm0-7.651a3.019 3.019 0 1 0 3.019 3.019 3.022 3.022 0 0 0-3.019-3.016z"/>
    <path data-name="Path 4743" d="M182.443 30.455a.806.806 0 0 1-.8-.811l.115-19.826a.807.807 0 0 1 .807-.8.807.807 0 0 1 .8.811l-.116 19.826a.806.806 0 0 1-.806.8z"/>
    <path data-name="Path 4744" d="M178.652 34.131a4.633 4.633 0 1 1 4.632-4.633 4.638 4.638 0 0 1-4.632 4.633zm0-7.651a3.019 3.019 0 1 0 3.018 3.02 3.022 3.022 0 0 0-3.018-3.02z"/>
    <path data-name="Path 4745" d="M154.024 11.178a.807.807 0 0 1-.148-1.6l13.876-2.608a.807.807 0 1 1 .3 1.586l-13.875 2.608a.836.836 0 0 1-.15.014z"/>
    <path data-name="Path 4746" d="M174.777 42.961a.865.865 0 0 1-.864-.864V40.6a.865.865 0 1 1 1.729 0v1.5a.865.865 0 0 1-.865.861z"/>
    <path data-name="Path 4747" d="M174.777 101.862a.865.865 0 0 1-.864-.865V98a.865.865 0 0 1 1.729 0v3a.866.866 0 0 1-.865.862zm0-8.415a.865.865 0 0 1-.864-.865v-3a.865.865 0 1 1 1.729 0v3a.865.865 0 0 1-.865.865zm0-8.414a.865.865 0 0 1-.864-.864v-3a.865.865 0 1 1 1.729 0v3a.865.865 0 0 1-.865.864zm0-8.414a.865.865 0 0 1-.864-.864v-3a.865.865 0 1 1 1.729 0v3a.865.865 0 0 1-.865.864zm0-8.414a.865.865 0 0 1-.864-.865v-3a.865.865 0 1 1 1.729 0v3a.865.865 0 0 1-.865.86zm0-8.414a.865.865 0 0 1-.864-.865v-3a.865.865 0 1 1 1.729 0v3a.865.865 0 0 1-.865.864zm0-8.414a.865.865 0 0 1-.864-.865v-3a.865.865 0 1 1 1.729 0v3a.865.865 0 0 1-.865.864z"/>
    <path data-name="Path 4748" d="M174.777 109.181h-1.441a.865.865 0 0 1 0-1.729h.576v-.576a.865.865 0 1 1 1.729 0v1.441a.864.864 0 0 1-.864.864z"/>
    <path data-name="Path 4749" d="M167.112 109.181h-3.458a.865.865 0 0 1 0-1.729h3.458a.865.865 0 0 1 0 1.729z"/>
    <path data-name="Path 4750" d="M157.429 109.181h-1.383a.865.865 0 0 1 0-1.729h1.383a.865.865 0 1 1 0 1.729z"/>
    <path data-name="Path 4751" d="M7.872 74.89a.865.865 0 0 1-.864-.865v-1.5a.865.865 0 0 1 1.729 0v1.5a.865.865 0 0 1-.865.865z"/>
    <path data-name="Path 4752" d="M7.872 101.862a.865.865 0 0 1-.864-.862v-3.23a.865.865 0 1 1 1.729 0V101a.865.865 0 0 1-.865.862zm0-8.991a.865.865 0 0 1-.864-.865v-3.227a.865.865 0 0 1 1.729 0v3.228a.865.865 0 0 1-.865.864zm0-8.991a.865.865 0 0 1-.864-.865v-3.226a.865.865 0 1 1 1.729 0v3.227a.865.865 0 0 1-.865.865z"/>
    <path data-name="Path 4753" d="M9.313 109.181H7.872a.865.865 0 0 1-.864-.864v-1.441a.865.865 0 1 1 1.729 0v.576h.576a.865.865 0 0 1 0 1.729z"/>
    <path data-name="Path 4754" d="M22.914 109.181h-2.42a.865.865 0 0 1 0-1.729h2.421a.865.865 0 1 1 0 1.729zm-6.8 0h-2.421a.865.865 0 1 1 0-1.729h2.421a.865.865 0 1 1 0 1.729z"/>
    <path data-name="Path 4755" d="M28.793 109.181h-1.5a.865.865 0 1 1 0-1.729h1.5a.865.865 0 1 1 0 1.729z"/>
    <path data-name="Path 4756" d="M104.811 59.1a.865.865 0 0 1-.865-.864v-5.189a.865.865 0 1 1 1.729 0v5.187a.865.865 0 0 1-.864.866z"/>
    <path data-name="Path 4757" d="M107.519 56.62h-5.187a.865.865 0 0 1 0-1.729h5.187a.865.865 0 1 1 0 1.729z"/>
    <path data-name="Path 4758" d="M121.342 19.79a1.153 1.153 0 0 1 2.3-.063 1.127 1.127 0 0 1-1.124 1.162h-.029a1.131 1.131 0 0 1-1.151-1.1zm-3.415-.637a1.153 1.153 0 1 1 .8.323 1.154 1.154 0 0 1-.8-.323zm7.465-.176a1.154 1.154 0 1 1 .79.312 1.155 1.155 0 0 1-.79-.312zm-9.422-4.322a1.153 1.153 0 1 1 1.168 1.163h-.015a1.176 1.176 0 0 1-1.153-1.164zm10.477-.259a1.152 1.152 0 1 1 1.194 1.109h-.041a1.151 1.151 0 0 1-1.153-1.111zm-8.622-2.708a1.152 1.152 0 1 1 .809.333 1.152 1.152 0 0 1-.809-.335zm7.3-.152a1.153 1.153 0 1 1 .78.3 1.153 1.153 0 0 1-.78-.3zm-3.915-2.227a1.153 1.153 0 1 1 1.153 1.153 1.152 1.152 0 0 1-1.153-1.153z"/>
    <path data-name="Path 4759" d="M158.342 65.9a1.153 1.153 0 0 1 2.3-.063 1.126 1.126 0 0 1-1.124 1.162h-.028a1.13 1.13 0 0 1-1.152-1.1zm-3.414-.637a1.153 1.153 0 1 1 .8.323 1.154 1.154 0 0 1-.8-.328zm7.465-.176a1.153 1.153 0 1 1 .789.312 1.153 1.153 0 0 1-.789-.312zm-9.422-4.322a1.153 1.153 0 1 1 1.167 1.163h-.015a1.175 1.175 0 0 1-1.152-1.164zm10.476-.276a1.152 1.152 0 0 1 2.3-.09 1.127 1.127 0 0 1-1.109 1.183h-.038a1.139 1.139 0 0 1-1.151-1.094zm-8.622-2.69a1.152 1.152 0 1 1 .81.333 1.153 1.153 0 0 1-.81-.333zm7.3-.152a1.153 1.153 0 1 1 .779.3 1.151 1.151 0 0 1-.779-.3zm-3.912-2.226a1.153 1.153 0 1 1 1.152 1.153 1.152 1.152 0 0 1-1.154-1.158z"/>
    <path data-name="Path 4760" d="M177.591 148.541a1.153 1.153 0 0 1 2.3-.064 1.126 1.126 0 0 1-1.124 1.162h-.028a1.13 1.13 0 0 1-1.152-1.1zm-3.413-.631a1.151 1.151 0 1 1 .8.321 1.082 1.082 0 0 1-.8-.32zm7.464-.183a1.154 1.154 0 1 1 .789.312 1.153 1.153 0 0 1-.789-.312zm-9.422-4.327a1.153 1.153 0 1 1 1.167 1.163h-.015a1.175 1.175 0 0 1-1.152-1.165zm10.476-.26a1.152 1.152 0 1 1 1.194 1.109h-.043a1.152 1.152 0 0 1-1.151-1.11zm-8.622-2.707a1.152 1.152 0 1 1 .81.333 1.153 1.153 0 0 1-.81-.333zm7.3-.152a1.153 1.153 0 1 1 .779.3 1.154 1.154 0 0 1-.779-.3zm-3.9-2.226a1.13 1.13 0 0 1 1.166-1.153 1.182 1.182 0 0 1 1.14 1.153 1.153 1.153 0 0 1-2.306 0z"/>
    <path data-name="Path 4761" d="M6.884 133.326a1.153 1.153 0 0 1 2.3-.064 1.126 1.126 0 0 1-1.124 1.162h-.025a1.13 1.13 0 0 1-1.151-1.1zm-3.413-.638a1.152 1.152 0 1 1 .8.323 1.152 1.152 0 0 1-.8-.323zm7.463-.176a1.155 1.155 0 1 1 .79.312 1.154 1.154 0 0 1-.79-.312zm-9.422-4.322a1.165 1.165 0 0 1 1.139-1.18 1.172 1.172 0 0 1 .029 2.343h-.015a1.176 1.176 0 0 1-1.153-1.165zm10.476-.276a1.152 1.152 0 0 1 2.3-.09 1.128 1.128 0 0 1-1.109 1.183h-.044a1.139 1.139 0 0 1-1.15-1.094zm-8.622-2.69a1.153 1.153 0 1 1 .809.333 1.153 1.153 0 0 1-.809-.333zm7.3-.152a1.153 1.153 0 1 1 .779.3 1.154 1.154 0 0 1-.781-.3zm-3.912-2.226A1.153 1.153 0 1 1 7.9 124a1.153 1.153 0 0 1-1.148-1.154z"/>
</svg>
