<svg xmlns="http://www.w3.org/2000/svg" width="37.951" height="28.72" viewBox="0 0 37.951 28.72">
  <path id="yt" d="M37.707,6.341A5.793,5.793,0,0,0,32.221.268C28.114.075,23.926,0,19.646,0H18.311C14.041,0,9.845.075,5.738.269,2.714.269.26,2.992.26,6.357.075,9.019,0,11.681,0,14.344s.077,5.327.252,7.995c0,3.365,2.454,6.1,5.478,6.1,4.314.2,8.74.292,13.24.284q6.761.022,13.24-.284c3.032,0,5.486-2.73,5.486-6.1.178-2.67.259-5.332.252-8Q37.974,10.343,37.707,6.341ZM15.346,21.681V6.985L26.1,14.329Z" fill="#6c3099"/>
</svg>
